<svg width="35" height="35" viewBox="0 0 35 35" fill="none" xmlns="http://www.w3.org/2000/svg">
<path fill-rule="evenodd" clip-rule="evenodd" d="M3.88867 16.5265C3.88867 16.0108 4.09353 15.5162 4.45819 15.1515C4.82284 14.7869 5.31742 14.582 5.83312 14.582H7.77756C8.29326 14.582 8.78784 14.7869 9.15249 15.1515C9.51714 15.5162 9.722 16.0108 9.722 16.5265V18.4709C9.722 18.9866 9.51714 19.4812 9.15249 19.8458C8.78784 20.2105 8.29326 20.4154 7.77756 20.4154H5.83312C5.31742 20.4154 4.82284 20.2105 4.45819 19.8458C4.09353 19.4812 3.88867 18.9866 3.88867 18.4709V16.5265ZM7.77756 16.5265V18.4709H5.83312V16.5265H7.77756ZM13.6109 14.582C13.0952 14.582 12.6006 14.7869 12.236 15.1515C11.8713 15.5162 11.6664 16.0108 11.6664 16.5265V18.4709C11.6664 18.9866 11.8713 19.4812 12.236 19.8458C12.6006 20.2105 13.0952 20.4154 13.6109 20.4154H15.5553C16.071 20.4154 16.5656 20.2105 16.9303 19.8458C17.2949 19.4812 17.4998 18.9866 17.4998 18.4709V16.5265C17.4998 16.0108 17.2949 15.5162 16.9303 15.1515C16.5656 14.7869 16.071 14.582 15.5553 14.582H13.6109ZM15.5553 16.5265H13.6109V18.4709H15.5553V16.5265ZM19.4442 16.5265C19.4442 16.0108 19.6491 15.5162 20.0137 15.1515C20.3784 14.7869 20.873 14.582 21.3887 14.582H23.3331C23.8488 14.582 24.3434 14.7869 24.708 15.1515C25.0727 15.5162 25.2776 16.0108 25.2776 16.5265V18.4709C25.2776 18.9866 25.0727 19.4812 24.708 19.8458C24.3434 20.2105 23.8488 20.4154 23.3331 20.4154H21.3887C20.873 20.4154 20.3784 20.2105 20.0137 19.8458C19.6491 19.4812 19.4442 18.9866 19.4442 18.4709V16.5265ZM21.3887 16.5265H23.3331V18.4709H21.3887V16.5265ZM5.83312 22.3598C5.31742 22.3598 4.82284 22.5647 4.45819 22.9293C4.09353 23.294 3.88867 23.7886 3.88867 24.3043V26.2487C3.88867 26.7644 4.09353 27.259 4.45819 27.6236C4.82284 27.9883 5.31742 28.1931 5.83312 28.1931H7.77756C8.29326 28.1931 8.78784 27.9883 9.15249 27.6236C9.51714 27.259 9.722 26.7644 9.722 26.2487V24.3043C9.722 23.7886 9.51714 23.294 9.15249 22.9293C8.78784 22.5647 8.29326 22.3598 7.77756 22.3598H5.83312ZM5.83312 24.3043V26.2487H7.77756V24.3043H5.83312ZM11.6664 24.3043C11.6664 23.7886 11.8713 23.294 12.236 22.9293C12.6006 22.5647 13.0952 22.3598 13.6109 22.3598H15.5553C16.071 22.3598 16.5656 22.5647 16.9303 22.9293C17.2949 23.294 17.4998 23.7886 17.4998 24.3043V26.2487C17.4998 26.7644 17.2949 27.259 16.9303 27.6236C16.5656 27.9883 16.071 28.1931 15.5553 28.1931H13.6109C13.0952 28.1931 12.6006 27.9883 12.236 27.6236C11.8713 27.259 11.6664 26.7644 11.6664 26.2487V24.3043ZM13.6109 24.3043H15.5553V26.2487H13.6109V24.3043Z" fill="url(#paint0_linear_402_1120)"/>
<path d="M28.1949 24.793C28.4527 24.793 28.7 24.8954 28.8823 25.0777C29.0647 25.2601 29.1671 25.5073 29.1671 25.7652V27.7932L29.8545 28.4806C30.0316 28.664 30.1296 28.9096 30.1273 29.1645C30.1251 29.4194 30.0229 29.6632 29.8426 29.8435C29.6624 30.0237 29.4185 30.126 29.1636 30.1282C28.9087 30.1304 28.6631 30.0324 28.4797 29.8553L27.2227 28.5982V25.7652C27.2227 25.5073 27.3251 25.2601 27.5074 25.0777C27.6897 24.8954 27.937 24.793 28.1949 24.793Z" fill="url(#paint1_linear_402_1120)"/>
<path fill-rule="evenodd" clip-rule="evenodd" d="M5.83333 0.972222C5.83333 0.714373 5.93576 0.467084 6.11809 0.284757C6.30042 0.10243 6.54771 0 6.80556 0C7.06341 0 7.31069 0.10243 7.49302 0.284757C7.67535 0.467084 7.77778 0.714373 7.77778 0.972222V5.83333C7.77778 6.09118 7.67535 6.33847 7.49302 6.5208C7.31069 6.70312 7.06341 6.80556 6.80556 6.80556C6.54771 6.80556 6.30042 6.70312 6.11809 6.5208C5.93576 6.33847 5.83333 6.09118 5.83333 5.83333V4.86111H2.91667C2.65882 4.86111 2.41153 4.96354 2.2292 5.14587C2.04688 5.3282 1.94444 5.57548 1.94444 5.83333V9.72222H27.2222V5.83333C27.2222 5.57548 27.1198 5.3282 26.9375 5.14587C26.7551 4.96354 26.5079 4.86111 26.25 4.86111H23.3333V2.91667H26.25C27.0236 2.91667 27.7654 3.22396 28.3124 3.77094C28.8594 4.31792 29.1667 5.05979 29.1667 5.83333V21.4569C30.8696 21.7031 32.4161 22.585 33.495 23.9253C34.5739 25.2655 35.1053 26.9647 34.9821 28.6808C34.8589 30.397 34.0903 32.0029 32.831 33.1753C31.5716 34.3477 29.915 34.9996 28.1944 35C27.0972 35.0007 26.016 34.7358 25.0434 34.2279C24.0707 33.72 23.2355 32.9842 22.609 32.0833H2.91667C2.14312 32.0833 1.40125 31.776 0.854272 31.2291C0.307291 30.6821 0 29.9402 0 29.1667V5.83333C0 5.05979 0.307291 4.31792 0.854272 3.77094C1.40125 3.22396 2.14312 2.91667 2.91667 2.91667H5.83333V0.972222ZM21.3889 28.1944C21.3887 26.5577 21.9783 24.9757 23.0496 23.7383C24.1209 22.5009 25.6023 21.691 27.2222 21.4569V11.6667H1.94444V29.1667C1.94444 29.4245 2.04688 29.6718 2.2292 29.8541C2.41153 30.0365 2.65882 30.1389 2.91667 30.1389H21.6708C21.4833 29.5078 21.3883 28.8528 21.3889 28.1944ZM28.1944 33.0556C29.4837 33.0556 30.7201 32.5434 31.6318 31.6318C32.5434 30.7201 33.0556 29.4837 33.0556 28.1944C33.0556 26.9052 32.5434 25.6688 31.6318 24.7571C30.7201 23.8455 29.4837 23.3333 28.1944 23.3333C26.9052 23.3333 25.6688 23.8455 24.7571 24.7571C23.8455 25.6688 23.3333 26.9052 23.3333 28.1944C23.3333 29.4837 23.8455 30.7201 24.7571 31.6318C25.6688 32.5434 26.9052 33.0556 28.1944 33.0556Z" fill="url(#paint2_linear_402_1120)"/>
<path d="M20.4171 6.80555C20.1593 6.80555 19.912 6.70312 19.7296 6.5208C19.5473 6.33847 19.4449 6.09118 19.4449 5.83333V4.86111H9.72266V2.91667H19.4449V0.972222C19.4449 0.714373 19.5473 0.467084 19.7296 0.284757C19.912 0.10243 20.1593 0 20.4171 0C20.675 0 20.9222 0.10243 21.1046 0.284757C21.2869 0.467084 21.3893 0.714373 21.3893 0.972222V5.83333C21.3893 6.09118 21.2869 6.33847 21.1046 6.5208C20.9222 6.70312 20.675 6.80555 20.4171 6.80555Z" fill="url(#paint3_linear_402_1120)"/>
<defs>
<linearGradient id="paint0_linear_402_1120" x1="14.5831" y1="17.1842" x2="15.724" y2="28.0736" gradientUnits="userSpaceOnUse">
<stop stop-color="#827BFD"/>
<stop offset="1" stop-color="#736BF8"/>
</linearGradient>
<linearGradient id="paint1_linear_402_1120" x1="28.675" y1="25.8129" x2="29.8707" y2="29.7667" gradientUnits="userSpaceOnUse">
<stop stop-color="#827BFD"/>
<stop offset="1" stop-color="#736BF8"/>
</linearGradient>
<linearGradient id="paint2_linear_402_1120" x1="17.4998" y1="6.69118" x2="22.0377" y2="34.2529" gradientUnits="userSpaceOnUse">
<stop stop-color="#827BFD"/>
<stop offset="1" stop-color="#736BF8"/>
</linearGradient>
<linearGradient id="paint3_linear_402_1120" x1="15.556" y1="1.30106" x2="16.0798" y2="6.75525" gradientUnits="userSpaceOnUse">
<stop stop-color="#827BFD"/>
<stop offset="1" stop-color="#736BF8"/>
</linearGradient>
</defs>
</svg>
