<svg width="30" height="37" viewBox="0 0 30 37" fill="none" xmlns="http://www.w3.org/2000/svg">
<path d="M9.33333 1H24.3333C25.6594 1 26.9312 1.52678 27.8689 2.46447C28.8066 3.40215 29.3333 4.67392 29.3333 6V27.6667C29.3333 28.9927 28.8066 30.2645 27.8689 31.2022C26.9312 32.1399 25.6594 32.6667 24.3333 32.6667H9.33333C8.00725 32.6667 6.73548 32.1399 5.7978 31.2022C4.86012 30.2645 4.33333 28.9927 4.33333 27.6667V6C4.33333 4.67392 4.86012 3.40215 5.7978 2.46447C6.73548 1.52678 8.00725 1 9.33333 1ZM9.33333 2.66667C8.44928 2.66667 7.60143 3.01786 6.97631 3.64298C6.35119 4.2681 6 5.11594 6 6V27.6667C6 28.5507 6.35119 29.3986 6.97631 30.0237C7.60143 30.6488 8.44928 31 9.33333 31H24.3333C25.2174 31 26.0652 30.6488 26.6904 30.0237C27.3155 29.3986 27.6667 28.5507 27.6667 27.6667V6C27.6667 5.11594 27.3155 4.2681 26.6904 3.64298C26.0652 3.01786 25.2174 2.66667 24.3333 2.66667H19.3333V13.8333L14.3333 10.3333L9.33333 13.8333V2.66667ZM17.6667 2.66667H11V10.6333L14.3333 8.3L17.6667 10.6333V2.66667ZM9.33333 36C7.1232 36 5.00358 35.122 3.44078 33.5592C1.87797 31.9964 1 29.8768 1 27.6667V7.66667H2.66667V27.6667C2.66667 29.4348 3.36905 31.1305 4.61929 32.3807C5.86953 33.631 7.56522 34.3333 9.33333 34.3333H22.6667V36H9.33333Z" fill="url(#paint0_linear_402_1115)"/>
<path fill-rule="evenodd" clip-rule="evenodd" d="M9.33373 1.09844C8.03416 1.09844 6.78783 1.61469 5.8689 2.53361C4.94997 3.45254 4.43372 4.69888 4.43372 5.99844V27.6651C4.43372 28.9647 4.94997 30.211 5.8689 31.1299C6.78783 32.0489 8.03416 32.5651 9.33373 32.5651H24.3337C25.6333 32.5651 26.8796 32.0489 27.7986 31.1299C28.7175 30.211 29.2337 28.9647 29.2337 27.6651V5.99844C29.2337 4.69888 28.7175 3.45254 27.7986 2.53361C26.8796 1.61469 25.6333 1.09844 24.3337 1.09844H9.33373ZM5.72748 2.39219C6.68392 1.43576 7.98112 0.898438 9.33373 0.898438H24.3337C25.6863 0.898438 26.9835 1.43576 27.94 2.39219C28.8964 3.34863 29.4337 4.64583 29.4337 5.99844V27.6651C29.4337 29.0177 28.8964 30.3149 27.94 31.2713C26.9835 32.2278 25.6863 32.7651 24.3337 32.7651H9.33373C7.98112 32.7651 6.68392 32.2278 5.72748 31.2713C4.77104 30.3149 4.23372 29.0177 4.23372 27.6651V5.99844C4.23372 4.64583 4.77104 3.34863 5.72748 2.39219ZM6.90599 3.5707C7.54987 2.92683 8.42315 2.5651 9.33373 2.5651H9.43373V13.6397L14.3337 10.2097L19.2337 13.6397V2.5651H24.3337C25.2443 2.5651 26.1176 2.92683 26.7615 3.5707C27.4053 4.21458 27.7671 5.08786 27.7671 5.99844V27.6651C27.7671 28.5757 27.4053 29.449 26.7615 30.0928C26.1176 30.7367 25.2443 31.0984 24.3337 31.0984H9.33373C8.42315 31.0984 7.54987 30.7367 6.90599 30.0928C6.26212 29.449 5.90039 28.5757 5.90039 27.6651V5.99844C5.90039 5.08786 6.26212 4.21458 6.90599 3.5707ZM9.23373 2.76665C8.41247 2.79204 7.63017 3.12937 7.04741 3.71213C6.44105 4.31849 6.10039 5.1409 6.10039 5.99844V27.6651C6.10039 28.5226 6.44105 29.345 7.04741 29.9514C7.65378 30.5578 8.47619 30.8984 9.33373 30.8984H24.3337C25.1913 30.8984 26.0137 30.5578 26.62 29.9514C27.2264 29.345 27.5671 28.5226 27.5671 27.6651V5.99844C27.5671 5.1409 27.2264 4.31849 26.62 3.71213C26.0137 3.10576 25.1913 2.7651 24.3337 2.7651H19.4337V14.0238L14.3337 10.4538L9.23373 14.0238V2.76665ZM10.9004 2.5651H17.7671V10.8238L14.3337 8.4205L10.9004 10.8238V2.5651ZM11.1004 2.7651V10.4397L14.3337 8.17637L17.5671 10.4397V2.7651H11.1004ZM0.900391 7.5651H2.76706V27.6651C2.76706 29.4067 3.4589 31.0769 4.69039 32.3084C5.92188 33.5399 7.59214 34.2318 9.33373 34.2318H22.7671V36.0984H9.33373C7.09707 36.0984 4.95201 35.2099 3.37046 33.6284C1.7889 32.0468 0.900391 29.9018 0.900391 27.6651V7.5651ZM1.10039 7.7651V27.6651C1.10039 29.8487 1.96783 31.9429 3.51188 33.4869C5.05593 35.031 7.15011 35.8984 9.33373 35.8984H22.5671V34.4318H9.33373C7.53909 34.4318 5.81796 33.7189 4.54897 32.4499C3.27997 31.1809 2.56706 29.4597 2.56706 27.6651V7.7651H1.10039Z" fill="url(#paint1_linear_402_1115)"/>
<defs>
<linearGradient id="paint0_linear_402_1115" x1="15.1667" y1="7.69118" x2="20.6955" y2="34.8755" gradientUnits="userSpaceOnUse">
<stop stop-color="#827BFD"/>
<stop offset="1" stop-color="#736BF8"/>
</linearGradient>
<linearGradient id="paint1_linear_402_1115" x1="15.1671" y1="7.62785" x2="20.7207" y2="34.9704" gradientUnits="userSpaceOnUse">
<stop stop-color="#827BFD"/>
<stop offset="1" stop-color="#736BF8"/>
</linearGradient>
</defs>
</svg>
