<svg width="22" height="22" viewBox="0 0 22 22" fill="none" xmlns="http://www.w3.org/2000/svg">
<path d="M21.4999 0.515086C21.3457 0.36058 21.1625 0.238001 20.9609 0.154365C20.7593 0.0707296 20.5432 0.0276793 20.3249 0.0276793C20.1066 0.0276793 19.8905 0.0707296 19.6888 0.154365C19.4872 0.238001 19.3041 0.36058 19.1499 0.515086L10.9999 8.64842L2.84988 0.498419C2.69558 0.344116 2.5124 0.221716 2.31079 0.138208C2.10918 0.0546995 1.8931 0.0117188 1.67488 0.0117188C1.45667 0.0117187 1.24059 0.0546995 1.03898 0.138208C0.837372 0.221716 0.654187 0.344116 0.499884 0.498419C0.345581 0.652722 0.223181 0.835907 0.139673 1.03751C0.0561643 1.23912 0.0131836 1.4552 0.0131836 1.67342C0.0131836 1.89164 0.0561643 2.10772 0.139673 2.30933C0.223181 2.51093 0.345581 2.69412 0.499884 2.84842L8.64988 10.9984L0.499884 19.1484C0.345581 19.3027 0.223181 19.4859 0.139673 19.6875C0.0561643 19.8891 0.0131836 20.1052 0.0131836 20.3234C0.0131836 20.5416 0.0561643 20.7577 0.139673 20.9593C0.223181 21.1609 0.345581 21.3441 0.499884 21.4984C0.654187 21.6527 0.837372 21.7751 1.03898 21.8586C1.24059 21.9421 1.45667 21.9851 1.67488 21.9851C1.8931 21.9851 2.10918 21.9421 2.31079 21.8586C2.5124 21.7751 2.69558 21.6527 2.84988 21.4984L10.9999 13.3484L19.1499 21.4984C19.3042 21.6527 19.4874 21.7751 19.689 21.8586C19.8906 21.9421 20.1067 21.9851 20.3249 21.9851C20.5431 21.9851 20.7592 21.9421 20.9608 21.8586C21.1624 21.7751 21.3456 21.6527 21.4999 21.4984C21.6542 21.3441 21.7766 21.1609 21.8601 20.9593C21.9436 20.7577 21.9866 20.5416 21.9866 20.3234C21.9866 20.1052 21.9436 19.8891 21.8601 19.6875C21.7766 19.4859 21.6542 19.3027 21.4999 19.1484L13.3499 10.9984L21.4999 2.84842C22.1332 2.21509 22.1332 1.14842 21.4999 0.515086Z" fill="white"/>
</svg>
