<svg width="32" height="32" viewBox="0 0 32 32" fill="none" xmlns="http://www.w3.org/2000/svg">
<path fill-rule="evenodd" clip-rule="evenodd" d="M6 11.5625C6 6.23834 10.5264 2 16 2C21.4736 2 26 6.23834 26 11.5625C26 14.564 24.3771 18.2776 22.5994 21.4874C20.795 24.7453 18.717 27.6804 17.6026 29.1854C17.4187 29.4368 17.1783 29.6414 16.9007 29.7827C16.6217 29.9247 16.313 29.9987 16 29.9987C15.687 29.9987 15.3783 29.9247 15.0993 29.7827C14.8218 29.6414 14.5813 29.4368 14.3975 29.1855C13.2831 27.68 11.205 24.7437 9.40058 21.4852C7.62292 18.2752 6 14.5619 6 11.5625ZM16 4C11.5361 4 8 7.43542 8 11.5625C8 14.0006 9.37708 17.3145 11.1502 20.5163C12.8918 23.6613 14.9091 26.5146 16 27.9889C17.0908 26.5153 19.1082 23.663 20.8498 20.5184C22.6229 17.3171 24 14.0028 24 11.5625C24 7.43542 20.4639 4 16 4Z" fill="white"/>
<path fill-rule="evenodd" clip-rule="evenodd" d="M16 10C14.8954 10 14 10.8954 14 12C14 13.1046 14.8954 14 16 14C17.1046 14 18 13.1046 18 12C18 10.8954 17.1046 10 16 10ZM12 12C12 9.79086 13.7909 8 16 8C18.2091 8 20 9.79086 20 12C20 14.2091 18.2091 16 16 16C13.7909 16 12 14.2091 12 12Z" fill="white"/>
</svg>
