<svg width="36" height="36" viewBox="0 0 36 36" fill="none" xmlns="http://www.w3.org/2000/svg">
<path fill-rule="evenodd" clip-rule="evenodd" d="M18.0002 3.21484C16.0586 3.21484 14.136 3.59728 12.3421 4.34031C10.5483 5.08335 8.91834 6.17244 7.54539 7.54539C6.17244 8.91834 5.08335 10.5483 4.34032 12.3421C3.59728 14.136 3.21484 16.0586 3.21484 18.0002C3.21484 19.9419 3.59728 21.8645 4.34032 23.6584C5.08335 25.4522 6.17244 27.0821 7.54539 28.4551C8.91834 29.8281 10.5483 30.9171 12.3421 31.6602C13.6723 32.2111 15.0732 32.5638 16.5002 32.7094V21.8267H12.184V18.8267H16.5002V15.6738C16.5002 14.0419 17.1485 12.4769 18.3024 11.3229C19.4563 10.169 21.0213 9.52079 22.6532 9.52079H23.8165V12.5208H22.6532C21.817 12.5208 21.015 12.853 20.4237 13.4443C19.8324 14.0356 19.5002 14.8375 19.5002 15.6738V18.8267H23.8165V21.8267H19.5002V32.7094C22.8705 32.3658 26.0381 30.8721 28.4551 28.4551C31.2279 25.6823 32.7856 21.9216 32.7856 18.0002C32.7856 14.0789 31.2279 10.3182 28.4551 7.54539C25.6823 4.77259 21.9216 3.21484 18.0002 3.21484ZM11.1941 1.56868C13.3519 0.674877 15.6646 0.214844 18.0002 0.214844C22.7172 0.214844 27.241 2.08866 30.5764 5.42407C33.9118 8.75948 35.7856 13.2833 35.7856 18.0002C35.7856 22.7172 33.9118 27.241 30.5764 30.5764C27.241 33.9118 22.7172 35.7856 18.0002 35.7856C15.6646 35.7856 13.3519 35.3256 11.1941 34.4318C9.03624 33.538 7.07559 32.2279 5.42407 30.5764C3.77254 28.9249 2.46248 26.9642 1.56868 24.8064C0.674877 22.6486 0.214844 20.3359 0.214844 18.0002C0.214844 15.6646 0.674877 13.3519 1.56868 11.1941C2.46248 9.03624 3.77254 7.07559 5.42407 5.42407C7.07559 3.77254 9.03624 2.46248 11.1941 1.56868Z" fill="white"/>
</svg>
