<svg width="34" height="34" viewBox="0 0 34 34" fill="none" xmlns="http://www.w3.org/2000/svg">
<path d="M9.99967 0.332031H23.9997C29.333 0.332031 33.6663 4.66537 33.6663 9.9987V23.9987C33.6663 26.5625 32.6479 29.0212 30.835 30.8341C29.0222 32.6469 26.5634 33.6654 23.9997 33.6654H9.99967C4.66634 33.6654 0.333008 29.332 0.333008 23.9987V9.9987C0.333008 7.43494 1.35146 4.97618 3.16431 3.16333C4.97716 1.35048 7.43592 0.332031 9.99967 0.332031ZM9.66634 3.66536C8.07504 3.66536 6.54892 4.29751 5.4237 5.42272C4.29848 6.54794 3.66634 8.07407 3.66634 9.66537V24.332C3.66634 27.6487 6.34967 30.332 9.66634 30.332H24.333C25.9243 30.332 27.4504 29.6999 28.5757 28.5747C29.7009 27.4495 30.333 25.9233 30.333 24.332V9.66537C30.333 6.3487 27.6497 3.66536 24.333 3.66536H9.66634ZM25.7497 6.16536C26.3022 6.16536 26.8321 6.38486 27.2228 6.77556C27.6135 7.16626 27.833 7.69616 27.833 8.2487C27.833 8.80123 27.6135 9.33114 27.2228 9.72184C26.8321 10.1125 26.3022 10.332 25.7497 10.332C25.1971 10.332 24.6672 10.1125 24.2765 9.72184C23.8858 9.33114 23.6663 8.80123 23.6663 8.2487C23.6663 7.69616 23.8858 7.16626 24.2765 6.77556C24.6672 6.38486 25.1971 6.16536 25.7497 6.16536ZM16.9997 8.66537C19.2098 8.66537 21.3294 9.54334 22.8922 11.1061C24.455 12.6689 25.333 14.7886 25.333 16.9987C25.333 19.2088 24.455 21.3285 22.8922 22.8913C21.3294 24.4541 19.2098 25.332 16.9997 25.332C14.7895 25.332 12.6699 24.4541 11.1071 22.8913C9.54432 21.3285 8.66634 19.2088 8.66634 16.9987C8.66634 14.7886 9.54432 12.6689 11.1071 11.1061C12.6699 9.54334 14.7895 8.66537 16.9997 8.66537ZM16.9997 11.9987C15.6736 11.9987 14.4018 12.5255 13.4641 13.4632C12.5265 14.4008 11.9997 15.6726 11.9997 16.9987C11.9997 18.3248 12.5265 19.5966 13.4641 20.5342C14.4018 21.4719 15.6736 21.9987 16.9997 21.9987C18.3258 21.9987 19.5975 21.4719 20.5352 20.5342C21.4729 19.5966 21.9997 18.3248 21.9997 16.9987C21.9997 15.6726 21.4729 14.4008 20.5352 13.4632C19.5975 12.5255 18.3258 11.9987 16.9997 11.9987Z" fill="white"/>
</svg>
