<svg width="36" height="28" viewBox="0 0 36 28" fill="none" xmlns="http://www.w3.org/2000/svg">
<path d="M34.5608 23.1251C34.9656 21.5584 35.4437 18.7149 35.4437 14C35.4437 9.28609 34.9673 6.44538 34.5545 4.87463C34.4089 4.3095 34.1313 3.78698 33.7444 3.35004C33.3575 2.91294 32.8722 2.57397 32.3287 2.36101L32.3278 2.36064C29.6281 1.31543 26.1285 0.805376 23.2744 0.555088C20.484 0.310392 18.2882 0.312286 18.0166 0.312521C18.0099 0.312526 18.0043 0.312531 18 0.312531C17.9957 0.312531 17.9901 0.312526 17.9834 0.312521C17.7118 0.312286 15.516 0.310392 12.7248 0.555088C9.86991 0.805377 6.36883 1.31543 3.66608 2.36061L3.66608 2.3606L3.66454 2.36121C3.12224 2.57504 2.63836 2.9144 2.2526 3.35144C1.8669 3.78841 1.59028 4.31057 1.44542 4.87511C1.04069 6.44483 0.5625 9.29607 0.5625 14C0.5625 18.704 1.04069 21.5552 1.44542 23.1249M34.5608 23.1251L34.3187 23.0625L34.5609 23.1248C34.5608 23.1249 34.5608 23.125 34.5608 23.1251ZM34.5608 23.1251C34.4153 23.6903 34.1376 24.213 33.7507 24.65C33.3637 25.0871 32.8785 25.4261 32.335 25.6391L32.334 25.6394C29.766 26.6334 26.475 27.1436 23.7045 27.4067C20.9294 27.6702 18.6552 27.6875 18.1109 27.6875H18L17.9833 27.6875C17.7109 27.6878 15.5152 27.6897 12.725 27.445C9.87109 27.1947 6.37191 26.6846 3.67224 25.6394L3.6713 25.6391C3.12775 25.4261 2.64253 25.0871 2.25555 24.65C1.8686 24.213 1.59094 23.6903 1.44542 23.1249M1.44542 23.1249L1.68747 23.0625L1.44539 23.1248C1.4454 23.1249 1.44541 23.1249 1.44542 23.1249ZM14.3125 18.9997C14.3122 19.2148 14.3703 19.426 14.4807 19.6106C14.591 19.7953 14.7495 19.9465 14.9391 20.0481C15.1287 20.1497 15.3423 20.1979 15.5572 20.1875C15.7721 20.1772 15.9801 20.1086 16.1591 19.9892L23.6585 14.9896C23.6586 14.9895 23.6588 14.9894 23.6589 14.9893C23.822 14.881 23.9558 14.7341 24.0484 14.5616C24.1411 14.3889 24.1896 14.196 24.1896 14C24.1896 13.8041 24.1411 13.6112 24.0484 13.4385C23.9558 13.266 23.822 13.119 23.6589 13.0107C23.6588 13.0106 23.6586 13.0105 23.6585 13.0104L16.1591 8.01082L16.0203 8.21878C15.879 8.12452 15.7148 8.07041 15.5452 8.06223C15.3755 8.05405 15.2069 8.0921 15.0572 8.17232C14.9075 8.25254 14.7824 8.37192 14.6953 8.5177C14.6081 8.66349 14.5622 8.8302 14.5625 9.00003H14.3125V9.0004V18.9997ZM14.3125 18.9997L14.5625 19M14.3125 18.9997V19H14.5625M14.5625 19C14.5622 19.1699 14.6081 19.3366 14.6953 19.4824C14.7824 19.6281 14.9075 19.7475 15.0572 19.8277C15.2069 19.908 15.3755 19.946 15.5452 19.9378C15.7148 19.9297 15.879 19.8755 16.0203 19.7813M14.5625 19L16.0203 19.7813M16.0203 19.7813L23.5203 14.7813C23.6492 14.6958 23.755 14.5797 23.8281 14.4434C23.9013 14.307 23.9396 14.1547 23.9396 14C23.9396 13.8453 23.9013 13.693 23.8281 13.5567C23.755 13.4204 23.6492 13.3043 23.5203 13.2188L16.0203 19.7813ZM32.2548 22.5313L32.2544 22.533C32.2038 22.7348 32.1061 22.9216 31.9692 23.0781C31.8325 23.2344 31.6608 23.3559 31.4681 23.4329C29.003 24.3824 25.6663 24.8545 22.9176 25.0874C20.2201 25.3161 18.1139 25.3127 18.0039 25.3125L18 25.3125L17.9959 25.3125C17.8837 25.3127 15.7811 25.3163 13.0872 25.0875C10.3404 24.8541 7.00486 24.3809 4.53671 23.4283C4.34395 23.3513 4.17219 23.2297 4.03553 23.0735C3.89862 22.9169 3.80086 22.7301 3.75032 22.5283L3.75033 22.5283L3.74964 22.5257C3.3798 21.1154 2.9375 18.4813 2.9375 14C2.9375 9.51896 3.37976 6.88444 3.74519 5.46877L3.7452 5.46877L3.74563 5.46704C3.79617 5.2653 3.89393 5.07846 4.03085 4.92192C4.16746 4.76572 4.33917 4.64415 4.53186 4.56717C6.90715 3.65246 10.0928 3.18059 12.7831 2.93887C15.4684 2.6976 17.6361 2.68753 17.9625 2.68753H18L18.0038 2.68753C18.1114 2.68734 20.2147 2.68362 22.9105 2.91261C25.6581 3.14599 28.9952 3.61921 31.4634 4.57183C31.6561 4.64881 31.8278 4.77039 31.9645 4.92661C32.1014 5.08315 32.1991 5.26999 32.2497 5.47173L32.2502 5.47365C32.6155 6.88446 33.0578 9.51888 33.0578 14.0047C33.0578 18.4907 32.6202 21.1158 32.2548 22.5313ZM20.8587 14L16.6875 16.7813V11.2188L20.8587 14Z" fill="white" stroke="white" stroke-width="0.5"/>
</svg>
