<svg width="27" height="26" viewBox="0 0 27 26" fill="none" xmlns="http://www.w3.org/2000/svg">
<path fill-rule="evenodd" clip-rule="evenodd" d="M6.71838 0.146444C7.66049 -0.0510337 8.53361 0.487341 8.88346 1.287L11.4598 7.17582C11.7487 7.83615 11.66 8.60085 11.2275 9.17746L9.16538 11.9269C9.44513 13.1944 10.6033 15.5226 13.6752 16.7466L16.3031 14.4472C16.8912 13.9326 17.7251 13.8077 18.4382 14.1273L24.8722 17.0116C25.6466 17.3588 26.2087 18.225 25.9751 19.1868C25.5981 20.7385 24.6297 22.652 22.7155 23.8704C20.7696 25.1089 18.0243 25.5171 14.3393 24.3727C6.43772 21.9188 2.92767 16.0757 2.12548 13.242C1.38172 11.4209 0.700585 8.64996 1.07262 6.08633C1.26289 4.77522 1.73576 3.47402 2.66205 2.3965C3.59613 1.30992 4.9314 0.521014 6.71838 0.146444ZM7.06389 2.11777C5.6864 2.41841 4.7804 3.00031 4.17868 3.70028C3.55977 4.42023 3.20246 5.33594 3.05188 6.37356C2.74612 8.48058 3.32233 10.9033 3.99701 12.5344L4.02098 12.5924L4.03752 12.6529C4.64574 14.8772 7.69467 20.2149 14.9324 22.4627C18.2065 23.4794 20.3107 23.0303 21.6416 22.1831C22.9664 21.3399 23.6986 19.9927 24.0063 18.8152L17.6201 15.9524L14.9782 18.264C14.4515 18.7248 13.687 18.9005 12.9826 18.6235C9.09372 17.0941 7.55291 14.0614 7.18898 12.2469C7.07405 11.6739 7.25523 11.1405 7.54455 10.7547L9.6275 7.97746L7.06389 2.11777Z" fill="white"/>
</svg>
