<svg width="37" height="32" viewBox="0 0 37 32" fill="none" xmlns="http://www.w3.org/2000/svg">
<path d="M34.7241 15.0788C34.6019 15.0788 34.4848 15.1273 34.3984 15.2136C34.3121 15.3 34.2636 15.4171 34.2636 15.5393C34.2636 15.6614 34.3121 15.7786 34.3984 15.8649C34.4848 15.9513 34.6019 15.9998 34.7241 15.9998C35.0474 15.9998 35.1846 16.1371 35.1846 16.4603V21.9867C35.1846 22.31 35.0474 22.4472 34.7241 22.4472H27.3556C27.0323 22.4472 26.8951 22.31 26.8951 21.9867V17.3814C26.8951 17.0581 27.0323 16.9209 27.3556 16.9209H32.882C33.0041 16.9209 33.1212 16.8724 33.2076 16.786C33.294 16.6996 33.3425 16.5825 33.3425 16.4603V10.934C33.3425 10.0949 32.8 9.55241 31.9609 9.55241H3.86864C2.73298 9.55241 2.02653 8.84596 2.02653 7.7103C2.02653 6.57463 2.73298 5.86818 3.86864 5.86818H8.54393L5.75681 6.7874C5.69729 6.80456 5.64185 6.83355 5.5938 6.87264C5.54575 6.91174 5.50607 6.96012 5.47715 7.0149C5.44824 7.06967 5.43067 7.12972 5.4255 7.19145C5.42033 7.25318 5.42766 7.31532 5.44706 7.37414C5.46647 7.43297 5.49754 7.48728 5.53841 7.53382C5.57929 7.58035 5.62914 7.61817 5.68497 7.64499C5.74081 7.67182 5.80148 7.68711 5.86336 7.68994C5.92524 7.69277 5.98705 7.68309 6.0451 7.66148L22.7337 2.16C22.7912 2.14101 22.8444 2.11089 22.8902 2.07136C22.936 2.03183 22.9736 1.98366 23.0008 1.92961C23.028 1.87556 23.0442 1.81667 23.0487 1.75633C23.0531 1.69598 23.0456 1.63535 23.0266 1.57789C23.0077 1.52044 22.9775 1.46729 22.938 1.42148C22.8985 1.37566 22.8503 1.33809 22.7963 1.31089C22.7422 1.28369 22.6833 1.2674 22.623 1.26296C22.5626 1.25852 22.502 1.26601 22.4445 1.285L11.2997 4.96002C11.2786 4.95633 11.2592 4.94712 11.2371 4.94712H3.86864C2.21626 4.94712 1.10547 6.05792 1.10547 7.7103V27.9736C1.10547 29.6259 2.21626 30.7367 3.86864 30.7367H31.9609C32.8 30.7367 33.3425 30.1942 33.3425 29.3552V24.7499C33.3425 24.6277 33.294 24.5106 33.2076 24.4242C33.1212 24.3379 33.0041 24.2893 32.882 24.2893C32.7598 24.2893 32.6427 24.3379 32.5563 24.4242C32.47 24.5106 32.4214 24.6277 32.4214 24.7499V29.3552C32.4214 29.6784 32.2842 29.8157 31.9609 29.8157H3.86864C2.73298 29.8157 2.02653 29.1092 2.02653 27.9736V9.83978C2.49903 10.2386 3.12443 10.4735 3.86864 10.4735H31.9609C32.2842 10.4735 32.4214 10.6107 32.4214 10.934V15.9998H27.3556C26.5165 15.9998 25.974 16.5423 25.974 17.3814V21.9867C25.974 22.8258 26.5165 23.3683 27.3556 23.3683H34.7241C35.5632 23.3683 36.1057 22.8258 36.1057 21.9867V16.4603C36.1057 15.6213 35.5632 15.0788 34.7241 15.0788Z" fill="url(#paint0_linear_402_1123)"/>
<path fill-rule="evenodd" clip-rule="evenodd" d="M22.2876 0.810258C22.4074 0.770661 22.5338 0.755049 22.6597 0.764311C22.7855 0.773573 22.9083 0.807529 23.021 0.86424C23.1337 0.92095 23.2341 0.999305 23.3166 1.09483C23.399 1.19036 23.4618 1.30119 23.5014 1.42098C23.541 1.54077 23.5566 1.66719 23.5473 1.79303C23.5381 1.91887 23.5041 2.04165 23.4474 2.15435C23.3907 2.26705 23.3123 2.36749 23.2168 2.44992C23.1213 2.53234 23.0105 2.59515 22.8907 2.63474L6.20902 8.13391C6.09101 8.17628 5.96582 8.19515 5.84049 8.18942C5.71143 8.18351 5.58489 8.15163 5.46844 8.09567C5.35199 8.03972 5.24802 7.96085 5.16276 7.86379C5.07749 7.76672 5.01269 7.65345 4.97222 7.53075C4.93176 7.40806 4.91646 7.27846 4.92724 7.14972C4.93803 7.02097 4.97467 6.89572 5.03499 6.78147C5.0953 6.66722 5.17805 6.56631 5.27827 6.48478C5.33443 6.43909 5.39544 6.40001 5.46007 6.36818H3.86864C3.40566 6.36818 3.08211 6.51007 2.87526 6.71692C2.66842 6.92376 2.52653 7.24731 2.52653 7.7103C2.52653 8.17328 2.66842 8.49683 2.87526 8.70368C3.08211 8.91052 3.40566 9.05241 3.86864 9.05241H31.9609C32.4902 9.05241 32.9706 9.2257 33.3199 9.575C33.6692 9.92429 33.8425 10.4047 33.8425 10.934V15.1579C33.8901 15.0478 33.9584 14.9466 34.0449 14.8601C34.225 14.68 34.4693 14.5788 34.7241 14.5788C35.2534 14.5788 35.7338 14.752 36.0831 15.1013C36.4324 15.4506 36.6057 15.9311 36.6057 16.4603V21.9867C36.6057 22.516 36.4324 22.9964 36.0831 23.3457C35.7338 23.695 35.2534 23.8683 34.7241 23.8683H33.2633C33.3734 23.9159 33.4747 23.9842 33.5612 24.0707C33.7413 24.2508 33.8425 24.4951 33.8425 24.7499V29.3552C33.8425 29.8844 33.6692 30.3649 33.3199 30.7142C32.9706 31.0635 32.4902 31.2367 31.9609 31.2367H3.86864C2.92778 31.2367 2.10384 30.9183 1.51386 30.3283C0.923884 29.7384 0.605469 28.9144 0.605469 27.9736V7.7103C0.605469 6.76943 0.923884 5.94549 1.51386 5.35552C2.10384 4.76554 2.92778 4.44712 3.86864 4.44712H11.2371C11.244 4.44712 11.2508 4.44725 11.2574 4.44749L22.2876 0.810258ZM32.5006 23.8683H27.3556C26.8263 23.8683 26.3459 23.695 25.9966 23.3457C25.6473 22.9964 25.474 22.516 25.474 21.9867V17.3814C25.474 16.8521 25.6473 16.3717 25.9966 16.0224C26.3459 15.6731 26.8263 15.4998 27.3556 15.4998H31.9214V10.9735H3.86864C3.38104 10.9735 2.92987 10.885 2.52653 10.7195V27.9736C2.52653 28.4366 2.66842 28.7601 2.87526 28.9669C3.08211 29.1738 3.40566 29.3157 3.86864 29.3157H31.9214V24.7499C31.9214 24.4951 32.0226 24.2508 32.2028 24.0707C32.2892 23.9842 32.3905 23.9159 32.5006 23.8683ZM33.8425 15.9206V16.4603C33.8425 16.7151 33.7413 16.9594 33.5612 17.1395C33.381 17.3197 33.1367 17.4209 32.882 17.4209H27.3951V21.9472H34.6846V16.499C34.4442 16.4891 34.2157 16.3893 34.0449 16.2185C33.9584 16.132 33.8901 16.0307 33.8425 15.9206ZM8.68782 6.26383L11.1653 5.44712H8.55661L8.68782 6.26383ZM1.60547 8.38891V8.83009L1.89896 9.07781C1.76465 8.87059 1.667 8.63883 1.60547 8.38891ZM22.4445 1.285L22.2876 0.810258ZM11.414 4.4736C11.4145 4.47376 11.4144 4.47372 11.414 4.4736Z" fill="url(#paint1_linear_402_1123)"/>
<defs>
<linearGradient id="paint0_linear_402_1123" x1="18.6056" y1="6.89665" x2="21.8487" y2="30.2871" gradientUnits="userSpaceOnUse">
<stop stop-color="#827BFD"/>
<stop offset="1" stop-color="#736BF8"/>
</linearGradient>
<linearGradient id="paint1_linear_402_1123" x1="18.6056" y1="6.58783" x2="21.9755" y2="30.7671" gradientUnits="userSpaceOnUse">
<stop stop-color="#827BFD"/>
<stop offset="1" stop-color="#736BF8"/>
</linearGradient>
</defs>
</svg>
