<svg width="64" height="64" viewBox="0 0 64 64" fill="none" xmlns="http://www.w3.org/2000/svg">
<path d="M60.7998 46.4C60.7998 50.2191 59.2827 53.8818 56.5821 56.5823C53.8816 59.2829 50.2189 60.8 46.3998 60.8C42.5807 60.8 38.918 59.2829 36.2175 56.5823C33.5169 53.8818 31.9998 50.2191 31.9998 46.4C31.9998 42.5809 33.5169 38.9182 36.2175 36.2177C38.918 33.5171 42.5807 32 46.3998 32C50.2189 32 53.8816 33.5171 56.5821 36.2177C59.2827 38.9182 60.7998 42.5809 60.7998 46.4ZM53.9326 40.4672C53.784 40.3182 53.6074 40.2 53.413 40.1193C53.2186 40.0387 53.0103 39.9971 52.7998 39.9971C52.5893 39.9971 52.381 40.0387 52.1866 40.1193C51.9922 40.2 51.8156 40.3182 51.667 40.4672L43.1998 48.9376L41.1326 46.8672C40.8322 46.5668 40.4247 46.398 39.9998 46.398C39.5749 46.398 39.1674 46.5668 38.867 46.8672C38.5666 47.1676 38.3978 47.5751 38.3978 48C38.3978 48.4249 38.5666 48.8324 38.867 49.1328L42.067 52.3328C42.2156 52.4818 42.3922 52.6 42.5866 52.6807C42.781 52.7613 42.9893 52.8029 43.1998 52.8029C43.4103 52.8029 43.6186 52.7613 43.813 52.6807C44.0074 52.6 44.184 52.4818 44.3326 52.3328L53.9326 42.7328C54.0816 42.5842 54.1998 42.4076 54.2805 42.2132C54.3611 42.0188 54.4027 41.8105 54.4027 41.6C54.4027 41.3895 54.3611 41.1812 54.2805 40.9868C54.1998 40.7924 54.0816 40.6158 53.9326 40.4672Z" fill="white"/>
<circle cx="22" cy="18" r="9" stroke="white" stroke-width="2"/>
<path d="M33.0002 33.4995H12.5002C9.16685 33.3328 3.50039 35.9995 8.00025 43.9993C10.0002 46.999 14.5003 50.9993 28.5003 48.9993" stroke="white" stroke-width="2" stroke-linecap="round"/>
<circle cx="46" cy="20" r="7" stroke="white" stroke-width="2"/>
</svg>
