<svg width="64" height="64" viewBox="0 0 64 64" fill="none" xmlns="http://www.w3.org/2000/svg">
<g clip-path="url(#clip0_434_579)">
<path d="M13.8208 56.5814C13.8208 58.2832 15.157 60 18.1424 60C20.7711 60 22.5385 58.6262 22.5385 56.5814C22.5385 55.3879 22.0654 54.8436 21.7525 54.4831C21.5871 54.2933 21.5203 54.2075 21.5203 54.1217C21.5203 53.98 21.5203 53.8942 21.9985 53.875H27.2253C29.2352 53.875 30.9991 52.2396 30.9991 50.375V47.1095C30.9666 46.2835 30.5097 45.7699 29.806 45.7699C29.4058 45.7699 29.1092 46.0035 28.8212 46.2301C28.4355 46.532 27.9992 46.875 27.1421 46.875C25.6884 46.875 24.1422 45.6482 24.1422 43.375C24.1422 41.0746 25.709 39.4708 27.1155 39.4708C27.9641 39.4708 28.4081 39.8461 28.8006 40.1769C29.0946 40.4254 29.398 40.6826 29.8069 40.6826C30.5097 40.6826 30.9674 40.169 31 39.3255V35.7362C30.9991 33.7806 29.2001 32 27.2253 32H21.972C21.1766 32.0333 20.6632 32.5119 20.6632 33.2215C20.6632 33.6476 20.9006 33.9215 21.1106 34.163C21.3917 34.4859 21.6814 34.8193 21.6814 35.6803C21.6814 37.2255 20.3066 38.2239 18.1801 38.2239C16.0527 38.2239 14.6779 37.2255 14.6779 35.6803C14.6779 34.8193 14.9685 34.4859 15.2487 34.163C15.4587 33.9215 15.697 33.6476 15.697 33.2215C15.697 32.5023 15.1956 32.035 14.3702 32.0009L10.9923 32C9.14777 32 7.85866 33.4674 7.85866 35.5682V39.637C7.83638 39.7437 7.57238 40.1515 7.16954 40.1515C7.08726 40.1515 7.00411 40.0824 6.81898 39.9144C6.46756 39.5933 5.93529 39.1076 4.76789 39.1076C2.89595 39.1085 1 40.5732 1 43.375C1 46.3973 2.72195 47.75 4.42847 47.75C5.58044 47.75 6.24557 47.2127 6.68612 46.8575C6.88155 46.7 7.06497 46.5513 7.16954 46.5513C7.57324 46.5513 7.83723 46.9608 7.85695 47.0509L7.85866 47.0719V50.207C7.85866 52.3324 9.17691 53.875 10.9923 53.875H14.353L14.3873 53.8776C14.8399 53.8951 14.8399 53.98 14.8399 54.1217C14.8399 54.2075 14.773 54.2924 14.6076 54.4831C14.2948 54.8428 13.8208 55.3879 13.8208 56.5814ZM15.2487 55.0632C15.4587 54.8217 15.697 54.547 15.697 54.1209C15.697 53.6396 15.4819 53.0604 14.4362 53.0035C14.4163 53.001 14.3962 52.9998 14.3762 53H10.9923C9.49747 53 8.71407 51.5947 8.71407 50.207V47.0281C8.71407 46.9966 8.72007 46.966 8.71407 46.9362C8.63521 46.4016 7.99237 45.6771 7.16954 45.6771C6.76669 45.6771 6.47013 45.9169 6.15385 46.1715C5.74586 46.5014 5.28216 46.875 4.42847 46.875C2.8668 46.875 1.85712 45.5013 1.85712 43.375C1.85712 41.044 3.3665 39.9835 4.76789 39.9835C5.60701 39.9835 5.93272 40.2801 6.24813 40.5671C6.4847 40.7824 6.75298 41.0265 7.16954 41.0265C7.99237 41.0265 8.63607 40.3011 8.71407 39.7665C8.72007 39.7367 8.71407 39.7061 8.71407 39.6746V35.5674C8.71407 34.2277 9.41948 32.875 10.9923 32.875H14.353C14.8399 32.8951 14.8399 33.1244 14.8399 33.2215C14.8399 33.3064 14.773 33.3921 14.6076 33.5829C14.2948 33.9434 13.8208 34.4876 13.8208 35.6811C13.8208 37.383 15.1682 39.0998 18.1801 39.0998C20.7866 39.0998 22.5385 37.726 22.5385 35.6811C22.5385 34.4876 22.0654 33.9434 21.7517 33.5829C21.5871 33.393 21.5194 33.3072 21.5194 33.2215C21.5194 33.1235 21.5194 32.8943 21.9891 32.875H27.2253C28.6969 32.875 30.142 34.2925 30.142 35.7362V39.308C30.1232 39.8076 29.9012 39.8076 29.806 39.8076C29.7066 39.8076 29.5318 39.6597 29.3458 39.5031C28.9189 39.1418 28.2718 38.5958 27.1147 38.5958C25.2659 38.5958 23.2851 40.5164 23.2851 43.375C23.2851 46.217 25.2719 47.75 27.1421 47.75C28.2906 47.75 28.9241 47.253 29.3432 46.9231C29.5335 46.7735 29.698 46.6449 29.806 46.6449C29.9003 46.6449 30.1223 46.6449 30.142 47.127V50.375C30.142 51.922 28.6044 53 27.2253 53H21.984L21.9437 53.0017C20.8851 53.042 20.6632 53.6335 20.6632 54.1217C20.6632 54.5479 20.9006 54.8217 21.1106 55.0632C21.3917 55.3861 21.6814 55.7195 21.6814 56.5814C21.6814 58.103 20.2594 59.125 18.1424 59.125C16.0381 59.125 14.6779 58.1266 14.6779 56.5814C14.6779 55.7204 14.9685 55.3861 15.2487 55.0632Z" fill="white" stroke="white" stroke-width="0.5"/>
</g>
<g clip-path="url(#clip1_434_579)">
<path d="M36.6485 37.6999C34.8425 37.8238 33.1192 39.3638 33.3393 42.5251C33.533 45.3089 35.1211 47.0804 37.2911 46.9315C38.5577 46.8446 39.1003 46.304 39.4598 45.9464C39.6491 45.7574 39.7352 45.6804 39.8262 45.6742C39.9766 45.6638 40.0676 45.6576 40.1233 46.1626L40.5086 51.6974C40.6568 53.8258 42.5222 55.5747 44.501 55.4389L47.9663 55.2012C48.8404 55.1065 49.3518 54.5854 49.2999 53.8402C49.2704 53.4163 49.0006 53.1193 48.7389 52.8308C48.3901 52.4444 47.994 52.0074 47.9308 51.0997C47.8236 49.5604 49.0114 47.8337 51.4238 47.6681C53.8649 47.5007 55.6824 49.043 55.7861 50.5325C55.8486 51.431 55.483 51.9285 55.161 52.3683C54.919 52.6977 54.6683 53.0377 54.6985 53.4707C54.7503 54.215 55.3291 54.6622 56.2266 54.6353L60.0354 54.374C62.1107 54.2307 63.8676 52.1959 63.722 50.1047L63.3348 44.5418C63.2408 43.7019 62.6951 43.1931 61.942 43.2448C61.4898 43.2758 61.2167 43.5471 60.9759 43.7871C60.654 44.1083 60.3216 44.4394 59.4079 44.5021C57.7681 44.6146 56.6073 43.2314 56.4505 40.9796C56.2937 38.7268 57.2518 37.1983 58.8916 37.0858C59.8053 37.0231 60.1805 37.3065 60.5438 37.5798C60.8155 37.7846 61.1237 38.0169 61.5759 37.9859C62.3392 37.9335 62.7981 37.3686 62.7734 36.492L62.5254 32.9149C62.3894 30.9617 60.7372 29.7035 58.5078 29.8564L54.1901 30.1527C54.0751 30.1369 53.623 29.887 53.5933 29.4604C53.5872 29.3733 53.6545 29.2802 53.8191 29.0719C54.1339 28.6764 54.6101 28.0774 54.524 26.8412C54.3851 24.859 52.6909 22.9579 49.7177 23.1619C46.5106 23.382 45.202 25.3039 45.3278 27.111C45.4127 28.3309 46.0319 28.9961 46.4413 29.4368C46.6229 29.6322 46.7943 29.8156 46.802 29.9264C46.8317 30.3539 46.4166 30.6632 46.3224 30.6907L46.3003 30.694L42.9733 30.9223C40.7179 31.077 39.1781 32.5853 39.3119 34.5077L39.5597 38.0665L39.5594 38.103C39.5742 38.5835 39.4841 38.5897 39.3337 38.6C39.2427 38.6063 39.1477 38.5417 38.9331 38.3804C38.5284 38.0753 37.915 37.613 36.6485 37.6999Z" fill="white"/>
</g>
<g clip-path="url(#clip2_434_579)">
<path d="M30.1935 24.1559C30.1998 25.6034 31.3568 27.0586 33.9277 27.0476C36.1914 27.0378 37.7083 25.8629 37.7007 24.1236C37.6963 23.1085 37.2869 22.6474 37.0161 22.3419C36.873 22.181 36.8151 22.1084 36.8148 22.0354C36.8142 21.9149 36.8139 21.8419 37.2257 21.8238L41.7267 21.8044C43.4575 21.797 44.9705 20.3995 44.9636 18.8136L44.9515 16.0362C44.9204 15.3338 44.5251 14.8986 43.9191 14.9012C43.5744 14.9027 43.3199 15.1025 43.0727 15.2963C42.7417 15.5545 42.3672 15.8479 41.6291 15.851C40.3773 15.8564 39.0412 14.8187 39.0328 12.8853C39.0243 10.9287 40.3676 9.55877 41.5788 9.55356C42.3095 9.55043 42.6933 9.86805 43.0325 10.1479C43.2866 10.3582 43.5489 10.5759 43.901 10.5743C44.5062 10.5717 44.8984 10.1332 44.9234 9.41566L44.9101 6.36288C44.9021 4.69956 43.3462 3.19173 41.6456 3.19904L37.1217 3.21847C36.4369 3.24969 35.9965 3.65868 35.9992 4.26224C36.0008 4.62467 36.2062 4.85673 36.388 5.06136C36.6313 5.33493 36.882 5.61741 36.8852 6.34972C36.8909 7.664 35.7107 8.51824 33.8794 8.52611C32.0474 8.53398 30.8598 7.68991 30.8541 6.37562C30.8509 5.64331 31.0999 5.35869 31.34 5.08304C31.52 4.87686 31.7242 4.64304 31.7226 4.28061C31.7199 3.66886 31.2864 3.2733 30.5755 3.24733L27.6666 3.25908C26.0782 3.2659 24.9735 4.51872 24.9813 6.30559L24.9964 9.76619C24.9776 9.85707 24.7518 10.2049 24.4048 10.2063C24.334 10.2066 24.2621 10.1482 24.1021 10.006C23.7983 9.73413 23.3381 9.32306 22.3328 9.32737C20.7208 9.33504 19.0935 10.5879 19.1039 12.9709C19.1151 15.5414 20.603 16.6856 22.0725 16.6793C23.0646 16.675 23.6353 16.2156 24.0134 15.9118C24.1811 15.7771 24.3385 15.6499 24.4286 15.6495C24.7762 15.648 25.0051 15.9954 25.0224 16.0719L25.0239 16.0898L25.0356 18.7563C25.0434 20.564 26.1844 21.8712 27.7477 21.8645L30.6418 21.8521L30.6713 21.8542C31.0611 21.8674 31.0614 21.9396 31.0619 22.0601C31.0623 22.1331 31.005 22.2055 30.8633 22.3683C30.5952 22.6754 30.189 23.1408 30.1935 24.1559ZM31.4175 22.8594C31.5975 22.6532 31.8016 22.4186 31.8001 22.0562C31.7983 21.6469 31.6109 21.155 30.7102 21.1105C30.693 21.1085 30.6757 21.1075 30.6585 21.1078L27.7444 21.1203C26.4572 21.1258 25.7773 19.9335 25.7722 18.7532L25.7604 16.0494C25.7603 16.0226 25.7653 15.9966 25.7601 15.9713C25.6902 15.5169 25.1339 14.903 24.4253 14.9061C24.0784 14.9076 23.8239 15.1126 23.5525 15.3303C23.2024 15.6124 22.8045 15.9319 22.0693 15.935C20.7245 15.9408 19.8499 14.7761 19.842 12.9677C19.8334 10.9851 21.1292 10.0775 22.336 10.0723C23.0587 10.0692 23.3402 10.3203 23.6129 10.5633C23.8174 10.7455 24.0494 10.9521 24.4081 10.9506C25.1167 10.9475 25.6683 10.3282 25.7335 9.87317C25.7385 9.84785 25.7333 9.82182 25.7331 9.79503L25.7179 6.30168C25.713 5.16228 26.3154 4.00911 27.6698 4.0033L30.5639 3.99087C30.9833 4.00618 30.9841 4.20117 30.9845 4.28378C30.9848 4.35597 30.9275 4.42915 30.7858 4.592C30.5177 4.89977 30.1116 5.36443 30.116 6.37954C30.1223 7.82704 31.289 9.28221 33.8827 9.27107C36.1272 9.26142 37.6308 8.08653 37.6233 6.34729C37.6188 5.33218 37.2094 4.87103 36.9379 4.56557C36.7955 4.40469 36.7369 4.332 36.7365 4.25907C36.7362 4.17572 36.7353 3.98073 37.1397 3.96262L41.6488 3.94325C42.9162 3.93781 44.1659 5.1381 44.1712 6.36605L44.1845 9.40395C44.1701 9.82896 43.9789 9.82978 43.897 9.83014C43.8114 9.8305 43.6602 9.70538 43.4995 9.57285C43.1306 9.26707 42.5713 8.80507 41.5748 8.80935C39.9827 8.81619 38.2841 10.4571 38.2947 12.8884C38.3052 15.3056 40.0218 16.6022 41.6324 16.5952C42.6214 16.591 43.1651 16.1659 43.5248 15.8838C43.6881 15.7559 43.8293 15.6458 43.9223 15.6454C44.0035 15.6451 44.1947 15.6443 44.2134 16.0543L44.2255 18.8168C44.2312 20.1326 42.911 21.0551 41.7234 21.0602L37.2099 21.0796L37.1752 21.0813C36.2638 21.1194 36.0748 21.6233 36.0766 22.0386C36.0782 22.401 36.2837 22.6331 36.4654 22.8377C36.7087 23.1113 36.9594 23.3938 36.9626 24.1268C36.9683 25.421 35.7475 26.2955 33.9244 26.3033C32.1124 26.3111 30.9373 25.467 30.9316 24.1527C30.9284 23.4204 31.1774 23.135 31.4175 22.8594Z" fill="white" stroke="white" stroke-width="0.5"/>
</g>
<defs>
<clipPath id="clip0_434_579">
<rect width="32.0752" height="29.5686" fill="white" transform="matrix(-1 0 0 -1 32.0752 61)"/>
</clipPath>
<clipPath id="clip1_434_579">
<rect width="31.8442" height="29.7831" fill="white" transform="matrix(-0.0694477 -0.997586 0.997654 -0.0684512 34.2871 56.1406)"/>
</clipPath>
<clipPath id="clip2_434_579">
<rect width="26.7577" height="24.6667" fill="white" transform="matrix(-0.999991 0.00429515 -0.00435797 -0.999991 45.1934 27.6641)"/>
</clipPath>
</defs>
</svg>
