<svg width="61" height="59" viewBox="0 0 61 59" fill="none" xmlns="http://www.w3.org/2000/svg">
<path d="M22.1486 57.4436H1.55566V47.0729L14.889 40.4062C12.5752 47.9947 21.5157 53.3458 26.0001 50.7769L22.1486 57.4436Z" stroke="white" stroke-width="2" stroke-miterlimit="10" stroke-linecap="round" stroke-linejoin="round"/>
<path d="M24.5155 51.3193C24.5155 50.73 26.4622 48.0376 27.1849 48.0376C28.0738 48.0376 30.648 46.6456 30.648 44.9264V3.22244C30.0702 0.859778 26.5555 0.555778 26 3.53089L23.6667 19.362C23.2595 21.9309 22.1111 21.9309 21.6667 24.4998C21.0551 29.4998 20.4729 38.2278 14.584 41.802M39.1484 57.4447H59.7404V47.074L46.4071 40.4073C48.7218 47.9958 39.7804 53.3469 35.296 50.778L39.1484 57.4447Z" stroke="white" stroke-width="2" stroke-miterlimit="10" stroke-linecap="round" stroke-linejoin="round"/>
<path d="M36.7804 51.3193C36.7804 50.73 34.8337 48.0376 34.111 48.0376C33.2221 48.0376 30.6479 46.6456 30.6479 44.9264V3.22244C31.2257 0.859778 34.7404 0.555778 35.2968 3.53089L37.6293 19.362C38.0373 21.9309 39.1848 21.9309 39.6293 24.4998C40.2408 29.4998 40.823 38.2278 46.7119 41.802M12.5608 14.4296L6.85059 14.6616M16.7341 10.6927L17.5946 5.042M14.4186 12.3398L11.4541 9.02867M47.4399 14.4296L53.1501 14.6616M43.2657 10.6927L42.4061 5.042M45.5813 12.3398L48.5466 9.02867" stroke="white" stroke-width="2" stroke-miterlimit="10" stroke-linecap="round" stroke-linejoin="round"/>
</svg>
