<svg width="64" height="64" viewBox="0 0 64 64" fill="none" xmlns="http://www.w3.org/2000/svg">
<g clip-path="url(#clip0_434_64)">
<path d="M30.6527 21.7348C30.441 21.7526 30.2296 21.7745 30.0188 21.8004C29.9999 21.8463 30.0992 21.9111 30.414 21.9948L30.7683 22.0169C31.1611 21.8578 30.9479 21.766 30.6527 21.7348ZM33.7359 21.7865C33.4956 21.9128 33.1127 22.0489 32.724 22.1366C32.9372 22.8992 33.8236 24.8484 34.8871 24.1661C34.6928 24.267 35.785 24.8902 35.3775 25.1526C35.5677 26.8131 33.5604 24.4966 32.9126 24.7073C31.9753 25.1362 33.2734 25.31 32.9831 25.6421C32.2681 26.6901 34.2254 27.0624 33.726 25.7577C34.1295 26.809 34.487 26.677 35.3488 26.3859C33.4366 27.2608 36.7625 27.2026 35.9236 28.1218C34.8953 28.2981 34.4337 28.8229 35.2635 29.6527C35.2414 30.6343 36.1508 30.4334 36.5427 30.6654L36.8715 30.5433L37.0815 30.4572C37.0733 30.458 37.0651 30.4629 37.056 30.4637C38.204 29.7438 36.8871 27.4133 38.2639 27.2206C38.2434 28.2628 40.031 28.7712 38.8289 27.5888C38.0745 27.0279 40.7928 27.6118 39.8334 28.244C41.2192 29.3215 39.7973 26.8992 40.751 27.4059C41.4783 28.1366 41.8867 27.3379 42.0129 27.2698C42.3163 27.0902 42.8502 27.1017 43.001 27.1435C44.5787 28.0062 41.9982 28.1644 42.2081 29.091C42.4984 29.6421 40.8223 29.2944 40.5583 29.1935C39.4431 27.6224 38.4361 29.7577 37.4275 30.3292C37.1531 30.6909 36.8819 31.055 36.6141 31.4215C36.7699 33.018 35.7891 34.2767 35.7473 35.9454C35.8949 36.8638 36.523 38.02 36.6575 39.0171C37.2774 40.1766 38.637 40.5702 39.8186 40.9031C40.7182 41.191 41.2635 40.0298 42.0867 39.7978C42.5246 38.5415 43.8907 39.0114 44.5221 38.758C44.0875 40.1446 45.6447 40.708 45.616 42.0889C45.2249 42.9581 45.3143 43.9486 45.2306 44.8826C46.2633 43.1231 46.9353 41.1755 47.2074 39.1536C47.4796 37.1316 47.3464 35.0757 46.8157 33.1058C45.133 26.827 39.817 22.5048 33.7359 21.7865ZM28.747 22.1194C28.441 22.1425 28.1364 22.1808 27.8343 22.2342C21.358 24.0169 16.9841 29.6716 16.5446 36.0241C16.6536 35.8109 16.8078 35.6789 17.0202 35.6912C17.7475 35.3075 17.8156 36.5932 18.0821 37.3296C18.7331 37.4231 17.8 35.0369 18.998 34.6547C19.5705 33.5243 20.2962 32.4782 21.1546 31.5461C21.6212 31.72 22.4535 31.4608 22.9479 30.6638C22.1722 30.713 21.9689 30.1652 22.893 29.6798C24.2788 28.5876 22.3846 30.6064 23.7179 30.4686C25.2152 30.5055 23.6064 29.2058 24.0951 28.3973C23.28 28.1128 23.8967 25.9931 22.9094 27.1263C23.2456 26.7163 22.4486 26.3309 22.7618 26.0128C23.0316 26.4023 23.9639 26.7868 23.9729 25.72C24.7823 25.6446 24.3731 24.5532 24.6289 23.8381C26.4067 22.6204 25.2931 24.9574 25.4719 25.9209C26.5969 27.5937 26.9782 24.7573 28.0836 24.3933C29.4612 24.0743 28.9544 22.8123 28.747 22.1194ZM34.3886 22.6122C34.7248 22.9353 34.1295 22.6713 34.2771 22.6188C34.3138 22.6098 34.351 22.6075 34.3886 22.6122ZM34.4361 23.0739C34.4968 23.0632 34.6518 23.0796 34.9486 23.1411C35.6538 23.6651 34.1696 23.1198 34.4361 23.0739ZM35.6932 23.5093C35.9105 23.4503 36.6231 23.6667 36.6108 24.1136C36.1491 24.7467 36.3549 24.4195 36.0983 23.9226C35.6104 23.6799 35.562 23.5454 35.6932 23.5093ZM30.086 24.0448C29.9139 24.0402 29.7421 24.0623 29.5768 24.1104C29.2964 24.1981 29.1193 24.3744 29.3169 24.6516C29.5252 24.7664 29.7761 24.7393 29.9958 24.6819C30.9774 24.2842 30.5969 24.0538 30.086 24.0448ZM32.9806 24.2334C32.9585 24.2334 32.9692 24.2785 33.0471 24.4064C33.3947 24.6384 33.0454 24.2342 32.9806 24.2334ZM31.9614 24.2604C31.9458 24.2727 31.9401 24.308 31.9532 24.3793C32.2763 24.5909 32.027 24.2079 31.9614 24.2604ZM40.1343 24.9058C40.1884 24.8844 40.3205 24.9336 40.5615 25.0968C40.6845 24.6762 42.0441 25.2116 41.1003 25.6265C41.1126 26.417 39.8998 24.9992 40.1343 24.9058ZM23.1595 25.1862C23.2669 25.2485 23.0176 25.7733 22.565 25.9791C22.0041 26.7745 22.401 25.7955 22.6741 25.5806C22.8725 25.3379 23.0094 25.2223 23.0906 25.1895C23.121 25.1772 23.1439 25.1772 23.1595 25.1862ZM21.572 26.2178C22.1378 26.1095 21.8934 27.5642 21.2932 27.7938C20.9545 27.8512 20.8676 28.4334 20.6577 28.6728C20.6634 28.7942 20.2009 26.8811 21.0447 26.5761C21.2678 26.3506 21.4416 26.2432 21.572 26.2178ZM38.7059 26.5671C38.8912 26.549 39.6964 26.7606 40.049 26.9623C40.3221 27.2985 39.4094 26.8131 39.2725 26.8967C38.7764 26.6991 38.628 26.6032 38.6739 26.5753C38.6839 26.5704 38.6948 26.5676 38.7059 26.5671ZM41.0019 26.7171C41.0265 26.6983 41.1167 26.7221 41.3192 26.8311C41.4521 27.2108 40.9297 26.7745 41.0019 26.7171ZM42.1458 27.5568C42.1186 27.5495 42.0899 27.5512 42.0638 27.5617C41.9949 27.5896 41.9416 27.6897 41.9473 27.9102C42.5353 28.0193 42.3418 27.6052 42.1458 27.5568ZM37.9433 28.3235C37.8801 28.3514 37.8104 28.4924 37.7547 28.8327C38.2573 29.178 38.1319 28.2391 37.9433 28.3235ZM22.0796 29.6208C22.1189 29.6109 22.1911 29.6265 22.3092 29.6896C22.1452 29.8996 21.9623 29.6511 22.0796 29.6208ZM19.0382 30.0357C19.0825 30.0291 19.1571 30.0644 19.276 30.1685C19.2383 30.8713 18.8463 30.0636 19.0382 30.0357ZM19.2702 30.8155C19.2899 30.8057 19.3153 30.813 19.3473 30.845C19.285 31.7938 19.1341 30.886 19.2702 30.8155ZM30.7232 31.5428C30.6445 31.5568 30.5452 31.6183 30.4427 31.7626C31.0184 31.8881 30.9602 31.501 30.7232 31.5428ZM31.4858 31.5945C31.4513 31.5904 31.3939 31.6298 31.3111 31.7478C31.4948 31.9938 31.5899 31.6043 31.4858 31.5945ZM19.1489 31.8159C19.1866 31.8126 19.2251 31.8421 19.2555 31.9258C18.8209 32.4407 18.9841 31.8266 19.1489 31.8159ZM34.4755 32.5277C34.4688 32.5244 34.4614 32.5228 34.454 32.5231C34.4465 32.5234 34.4393 32.5255 34.4329 32.5293C34.4042 32.5457 34.3722 32.5892 34.341 32.6802C34.587 32.9163 34.5673 32.5728 34.4755 32.5277ZM35.7588 33.4264C35.6932 33.4436 35.6538 33.5822 35.7203 33.9504C36.1729 33.9381 35.9023 33.3878 35.7588 33.4264ZM35.0987 33.9504C34.9815 33.9502 34.8649 33.9674 34.7527 34.0012C34.5698 34.0619 34.4714 34.1783 34.6625 34.3636L34.7256 34.3743L35.0413 34.2898C35.7399 34.0766 35.4554 33.9454 35.0987 33.9504ZM18.5757 36.9245C18.547 36.9327 18.5478 37.009 18.62 37.2115C19.0283 37.496 18.6618 36.8999 18.5757 36.9245ZM18.5429 37.4928C18.5134 37.4952 18.4929 37.5928 18.5035 37.8642C18.8135 38.3251 18.6339 37.4837 18.5429 37.4928ZM17.7303 37.9971C17.0981 38.0987 18.5199 38.8802 18.6921 39.3476C19.9139 39.3492 18.7094 40.0446 19.777 40.1758C21.367 40.3086 20.1583 39.3829 19.4769 39.3025C19.6146 38.8507 18.6839 38.7941 18.1354 37.9987C18.0008 37.9825 17.8649 37.982 17.7303 37.9971ZM17.0825 38.1578C17.0144 38.1406 16.9054 38.2783 16.7291 38.6662C16.659 38.5881 16.6035 38.4981 16.5651 38.4005C16.6143 38.9663 16.6938 39.5362 16.8078 40.1053C17.2637 40.9622 17.6835 41.9864 18.2903 42.685C18.8135 43.6001 18.6733 42.3094 18.9455 43.0679C19.5581 44.4742 19.0685 46.2233 20.5453 47.3344C21.4473 48.612 22.8627 49.2975 23.9975 50.3167C25.786 51.3912 27.7739 52.0917 29.8409 52.3758C30.0951 51.9805 30.1689 51.4713 30.5854 51.2196C32.7724 51.1654 31.198 48.8662 32.4386 47.9174C32.9142 45.9552 29.8581 46.4808 28.6273 46.1429C26.7536 46.3529 26.3354 44.1175 24.5732 44.0815C23.1775 44.2266 23.1472 42.1668 22.1935 42.5325C21.3883 42.9179 20.7389 41.8412 20.2895 42.0511C20.2075 42.2012 19.4884 41.4279 19.2415 42.5595C17.7065 42.6276 18.2748 40.6916 17.4129 39.9241C17.1366 39.6551 17.2883 38.2086 17.0825 38.1578ZM19.0611 38.1783C19.0566 38.1781 19.052 38.1789 19.0478 38.1806C19.0436 38.1823 19.0397 38.1849 19.0365 38.1881C19.0095 38.2185 19.0349 38.3201 19.1874 38.521L19.2719 38.5497C19.2752 38.3234 19.1284 38.1775 19.0611 38.1783ZM34.5108 38.7047C34.4747 38.7154 34.4337 38.7539 34.3927 38.8384C34.7371 39.1541 34.6682 38.6604 34.5108 38.7047ZM33.6079 38.7375C33.5259 38.7498 33.5423 38.8113 33.8179 38.9614C34.4337 38.9204 33.7867 38.7096 33.6079 38.7375ZM34.5542 39.1475C34.5295 39.1439 34.5042 39.1482 34.4821 39.1598C34.4288 39.1844 34.3599 39.2418 34.2754 39.3509C34.6034 39.5575 34.692 39.1762 34.5542 39.1475ZM34.0885 39.3296C34.0573 39.3345 34.0245 39.3911 33.9983 39.5395C34.2443 39.7609 34.1795 39.3156 34.0885 39.3296ZM18.4953 39.5952C18.4076 39.6002 18.4215 39.6994 18.7118 39.9831C19.3777 40.0323 18.6889 39.5846 18.4953 39.5952ZM44.1384 39.8002C44.1072 39.8052 44.0728 39.8601 44.0465 40.0085C44.2925 40.2299 44.2294 39.7863 44.1384 39.8002ZM20.916 39.9208C20.8852 39.9147 20.8533 39.9175 20.8241 39.929C20.7503 39.9585 20.7044 40.0569 20.7421 40.2717C21.4203 40.3578 21.1439 39.961 20.916 39.9208ZM22.246 40.7859C22.2124 40.7818 22.2165 40.9286 22.3075 41.3509L22.3813 41.5764C22.8053 42.1709 22.3485 40.7974 22.246 40.7859Z" fill="white"/>
<path d="M51 14L44.5 23M19.5 12.5L22.5 20M12 56L18.5 50" stroke="white" stroke-width="1.8"/>
<circle cx="17.9201" cy="8.96109" r="3.84" stroke="white" stroke-width="1.8"/>
<circle cx="53.7599" cy="10.8791" r="3.84" stroke="white" stroke-width="1.8"/>
<circle cx="8.96012" cy="58.8791" r="3.84" stroke="white" stroke-width="1.8"/>
<circle cx="32" cy="37" r="19.1" stroke="white" stroke-width="1.8"/>
</g>
<defs>
<clipPath id="clip0_434_64">
<rect width="64" height="64" fill="white"/>
</clipPath>
</defs>
</svg>
