<svg width="94" height="226" viewBox="0 0 94 226" fill="none" xmlns="http://www.w3.org/2000/svg">
<circle cx="3" cy="3" r="3" fill="#212121" fill-opacity="0.3"/>
<circle cx="25" cy="3" r="3" fill="#212121" fill-opacity="0.3"/>
<circle cx="47" cy="3" r="3" fill="#212121" fill-opacity="0.3"/>
<circle cx="69" cy="3" r="3" fill="#212121" fill-opacity="0.3"/>
<circle cx="91" cy="3" r="3" fill="#212121" fill-opacity="0.3"/>
<circle cx="3" cy="25" r="3" fill="#212121" fill-opacity="0.3"/>
<circle cx="25" cy="25" r="3" fill="#212121" fill-opacity="0.3"/>
<circle cx="47" cy="25" r="3" fill="#212121" fill-opacity="0.3"/>
<circle cx="69" cy="25" r="3" fill="#212121" fill-opacity="0.3"/>
<circle cx="91" cy="25" r="3" fill="#212121" fill-opacity="0.3"/>
<circle cx="3" cy="47" r="3" fill="#212121" fill-opacity="0.3"/>
<circle cx="25" cy="47" r="3" fill="#212121" fill-opacity="0.3"/>
<circle cx="47" cy="47" r="3" fill="#212121" fill-opacity="0.3"/>
<circle cx="69" cy="47" r="3" fill="#212121" fill-opacity="0.3"/>
<circle cx="91" cy="47" r="3" fill="#212121" fill-opacity="0.3"/>
<circle cx="3" cy="69" r="3" fill="#212121" fill-opacity="0.3"/>
<circle cx="25" cy="69" r="3" fill="#212121" fill-opacity="0.3"/>
<circle cx="47" cy="69" r="3" fill="#212121" fill-opacity="0.3"/>
<circle cx="69" cy="69" r="3" fill="#212121" fill-opacity="0.3"/>
<circle cx="91" cy="69" r="3" fill="#212121" fill-opacity="0.3"/>
<circle cx="3" cy="91" r="3" fill="#212121" fill-opacity="0.3"/>
<circle cx="25" cy="91" r="3" fill="#212121" fill-opacity="0.3"/>
<circle cx="47" cy="91" r="3" fill="#212121" fill-opacity="0.3"/>
<circle cx="69" cy="91" r="3" fill="#212121" fill-opacity="0.3"/>
<circle cx="91" cy="91" r="3" fill="#212121" fill-opacity="0.3"/>
<circle cx="3" cy="113" r="3" fill="#212121" fill-opacity="0.3"/>
<circle cx="25" cy="113" r="3" fill="#212121" fill-opacity="0.3"/>
<circle cx="47" cy="113" r="3" fill="#212121" fill-opacity="0.3"/>
<circle cx="69" cy="113" r="3" fill="#212121" fill-opacity="0.3"/>
<circle cx="91" cy="113" r="3" fill="#212121" fill-opacity="0.3"/>
<circle cx="3" cy="135" r="3" fill="#212121" fill-opacity="0.3"/>
<circle cx="25" cy="135" r="3" fill="#212121" fill-opacity="0.3"/>
<circle cx="47" cy="135" r="3" fill="#212121" fill-opacity="0.3"/>
<circle cx="69" cy="135" r="3" fill="#212121" fill-opacity="0.3"/>
<circle cx="91" cy="135" r="3" fill="#212121" fill-opacity="0.3"/>
<circle cx="3" cy="157" r="3" fill="#212121" fill-opacity="0.3"/>
<circle cx="25" cy="157" r="3" fill="#212121" fill-opacity="0.3"/>
<circle cx="47" cy="157" r="3" fill="#212121" fill-opacity="0.3"/>
<circle cx="69" cy="157" r="3" fill="#212121" fill-opacity="0.3"/>
<circle cx="91" cy="157" r="3" fill="#212121" fill-opacity="0.3"/>
<circle cx="3" cy="179" r="3" fill="#212121" fill-opacity="0.3"/>
<circle cx="25" cy="179" r="3" fill="#212121" fill-opacity="0.3"/>
<circle cx="47" cy="179" r="3" fill="#212121" fill-opacity="0.3"/>
<circle cx="69" cy="179" r="3" fill="#212121" fill-opacity="0.3"/>
<circle cx="91" cy="179" r="3" fill="#212121" fill-opacity="0.3"/>
<circle cx="3" cy="201" r="3" fill="#212121" fill-opacity="0.3"/>
<circle cx="25" cy="201" r="3" fill="#212121" fill-opacity="0.3"/>
<circle cx="47" cy="201" r="3" fill="#212121" fill-opacity="0.3"/>
<circle cx="69" cy="201" r="3" fill="#212121" fill-opacity="0.3"/>
<circle cx="91" cy="201" r="3" fill="#212121" fill-opacity="0.3"/>
<circle cx="3" cy="223" r="3" fill="#212121" fill-opacity="0.3"/>
<circle cx="25" cy="223" r="3" fill="#212121" fill-opacity="0.3"/>
<circle cx="47" cy="223" r="3" fill="#212121" fill-opacity="0.3"/>
<circle cx="69" cy="223" r="3" fill="#212121" fill-opacity="0.3"/>
<circle cx="91" cy="223" r="3" fill="#212121" fill-opacity="0.3"/>
</svg>
