<svg width="331" height="327" viewBox="0 0 331 327" fill="none" xmlns="http://www.w3.org/2000/svg">
<path d="M330.322 148.604C330.622 151.882 330.824 155.188 330.925 158.519L329.925 158.55C329.975 160.194 330 161.844 330 163.5C330 165.156 329.975 166.806 329.925 168.45L330.925 168.48C330.824 171.812 330.622 175.118 330.322 178.396L329.326 178.305C329.025 181.6 328.624 184.867 328.127 188.103L329.115 188.255C328.609 191.546 328.004 194.806 327.302 198.03L326.325 197.817C325.622 201.048 324.822 204.243 323.927 207.4L324.889 207.672C323.983 210.87 322.981 214.029 321.886 217.144L320.943 216.813C319.848 219.927 318.661 222.998 317.383 226.023L318.305 226.412C317.013 229.47 315.63 232.482 314.158 235.444L313.263 234.999C311.795 237.953 310.24 240.856 308.599 243.706L309.466 244.205C307.811 247.08 306.071 249.9 304.248 252.662L303.413 252.112C301.599 254.862 299.702 257.555 297.726 260.187L298.526 260.787C296.537 263.438 294.468 266.027 292.323 268.551L291.561 267.904C289.429 270.414 287.221 272.859 284.942 275.236L285.663 275.928C283.371 278.318 281.006 280.64 278.573 282.891L277.894 282.156C275.477 284.391 272.993 286.554 270.443 288.643L271.077 289.417C268.517 291.514 265.891 293.537 263.205 295.481L262.618 294.671C259.954 296.599 257.23 298.45 254.447 300.22L254.984 301.064C252.193 302.839 249.345 304.534 246.443 306.145L245.957 305.27C243.083 306.865 240.156 308.377 237.179 309.804L237.611 310.705C234.631 312.133 231.601 313.474 228.525 314.727L228.148 313.801C225.108 315.039 222.022 316.189 218.894 317.249L219.214 318.196C216.088 319.255 212.919 320.225 209.711 321.101L209.447 320.137C206.283 321.001 203.08 321.774 199.842 322.454L200.047 323.432C196.82 324.11 193.557 324.694 190.262 325.182L190.116 324.193C186.877 324.673 183.608 325.06 180.311 325.35L180.398 326.346C177.119 326.636 173.812 326.83 170.481 326.927L170.452 325.928C168.807 325.976 167.156 326 165.5 326C163.844 326 162.193 325.976 160.548 325.928L160.519 326.927C157.188 326.83 153.881 326.636 150.602 326.346L150.689 325.35C147.392 325.06 144.123 324.673 140.884 324.193L140.738 325.182C137.443 324.694 134.18 324.11 130.953 323.432L131.158 322.454C127.92 321.774 124.717 321.001 121.553 320.137L121.289 321.101C118.081 320.225 114.912 319.255 111.786 318.196L112.106 317.249C108.978 316.189 105.892 315.039 102.852 313.801L102.475 314.727C99.3989 313.474 96.3692 312.133 93.3894 310.705L93.8213 309.804C90.8439 308.377 87.9165 306.865 85.0426 305.27L84.5573 306.145C81.655 304.534 78.8068 302.839 76.0161 301.064L76.5529 300.22C73.7705 298.45 71.0456 296.599 68.3817 294.671L67.7954 295.481C65.1086 293.537 62.4835 291.514 59.9233 289.417L60.557 288.643C58.0074 286.554 55.5227 284.391 53.1062 282.157L52.4273 282.891C49.9937 280.64 47.629 278.318 45.3366 275.928L46.0583 275.236C43.7788 272.859 41.5712 270.414 39.439 267.904L38.6769 268.551C36.5323 266.027 34.4634 263.438 32.4738 260.787L33.2736 260.187C31.2982 257.555 29.4014 254.862 27.5867 252.112L26.752 252.662C24.9294 249.9 23.189 247.08 21.5342 244.205L22.4009 243.706C20.7605 240.856 19.2048 237.953 17.7373 234.999L16.8417 235.444C15.3705 232.482 13.9873 229.47 12.6954 226.412L13.6166 226.023C12.3392 222.998 11.1516 219.927 10.0573 216.813L9.11386 217.144C8.01896 214.029 7.01676 210.87 6.11053 207.672L7.07265 207.4C6.17825 204.243 5.37792 201.048 4.67483 197.817L3.6977 198.03C2.99605 194.806 2.39065 191.546 1.8846 188.255L2.87298 188.103C2.37559 184.867 1.97477 181.6 1.67351 178.305L0.677667 178.396C0.377962 175.118 0.176209 171.812 0.0753217 168.481L1.07486 168.45C1.02507 166.806 1 165.156 1 163.5C1 161.844 1.02507 160.194 1.07486 158.55L0.0753205 158.52C0.176207 155.188 0.37796 151.882 0.677664 148.604L1.67351 148.695C1.97476 145.4 2.37559 142.133 2.87298 138.897L1.88459 138.745C2.39064 135.454 2.99605 132.194 3.69769 128.97L4.67482 129.183C5.37791 125.952 6.17825 122.757 7.07264 119.6L6.11052 119.328C7.01675 116.13 8.01894 112.971 9.11385 109.856L10.0573 110.187C11.1516 107.073 12.3392 104.002 13.6166 100.977L12.6954 100.588C13.9873 97.5295 15.3705 94.5178 16.8417 91.5564L17.7373 92.0013C19.2048 89.0474 20.7605 86.1438 22.4009 83.294L21.5342 82.7951C23.1889 79.9204 24.9294 77.1001 26.752 74.3376L27.5867 74.8883C29.4014 72.1379 31.2981 69.4451 33.2735 66.8132L32.4737 66.213C34.4634 63.5622 36.5322 60.9729 38.6769 58.4486L39.439 59.0961C41.5712 56.5865 43.7788 54.1415 46.0583 51.7644L45.3365 51.0723C47.629 48.6818 49.9937 46.3597 52.4273 44.1093L53.1062 44.8435C55.5226 42.609 58.0074 40.4457 60.557 38.3569L59.9233 37.5834C62.4834 35.486 65.1086 33.4634 67.7953 31.5189L68.3816 32.329C71.0456 30.401 73.7705 28.5502 76.5529 26.7801L76.0161 25.9364C78.8068 24.161 81.655 22.4663 84.5573 20.8555L85.0426 21.7299C87.9165 20.1348 90.8439 18.6226 93.8213 17.1965L93.3893 16.2946C96.3692 14.8673 99.3989 13.5257 102.475 12.2731L102.852 13.1993C105.892 11.9614 108.978 10.8109 112.106 9.75103L111.786 8.80392C114.912 7.74458 118.081 6.77516 121.289 5.89878L121.553 6.86343C124.717 5.99896 127.92 5.22555 131.158 4.54624L130.953 3.56755C134.18 2.89036 137.443 2.30613 140.738 1.81783L140.884 2.80702C144.123 2.32703 147.392 1.94028 150.689 1.64964L150.602 0.653504C153.881 0.364462 157.188 0.169913 160.519 0.07263L160.548 1.0722C162.193 1.02418 163.844 1 165.5 1C167.156 1 168.807 1.02418 170.452 1.0722L170.481 0.0726283C173.812 0.16991 177.119 0.364458 180.398 0.653498L180.311 1.64964C183.608 1.94028 186.877 2.32703 190.116 2.80702L190.262 1.81782C193.557 2.30612 196.82 2.89035 200.047 3.56754L199.842 4.54623C203.08 5.22554 206.283 5.99894 209.447 6.86341L209.711 5.89876C212.919 6.77515 216.088 7.74457 219.214 8.8039L218.894 9.75102C222.022 10.8109 225.108 11.9614 228.148 13.1992L228.525 12.2731C231.601 13.5257 234.631 14.8673 237.611 16.2946L237.179 17.1964C240.156 18.6226 243.083 20.1348 245.957 21.7298L246.443 20.8555C249.345 22.4663 252.193 24.161 254.984 25.9364L254.447 26.7801C257.23 28.5502 259.954 30.4009 262.618 32.329L263.205 31.5189C265.891 33.4634 268.517 35.486 271.077 37.5833L270.443 38.3569C272.993 40.4456 275.477 42.609 277.894 44.8435L278.573 44.1093C281.006 46.3596 283.371 48.6818 285.663 51.0723L284.942 51.7644C287.221 54.1415 289.429 56.5865 291.561 59.0961L292.323 58.4486C294.468 60.9729 296.537 63.5621 298.526 66.2129L297.726 66.8132C299.702 69.445 301.599 72.1378 303.413 74.8883L304.248 74.3375C306.071 77.1001 307.811 79.9204 309.466 82.7951L308.599 83.294C310.24 86.1438 311.795 89.0473 313.263 92.0013L314.158 91.5564C315.63 94.5178 317.013 97.5295 318.305 100.588L317.383 100.977C318.661 104.002 319.848 107.073 320.943 110.187L321.886 109.856C322.981 112.971 323.983 116.13 324.889 119.328L323.927 119.6C324.822 122.757 325.622 125.952 326.325 129.183L327.302 128.97C328.004 132.194 328.609 135.454 329.115 138.745L328.127 138.897C328.624 142.133 329.025 145.4 329.326 148.695L330.322 148.604Z" stroke="white" stroke-opacity="0.6" stroke-width="2" stroke-dasharray="10 10"/>
<path d="M258.651 147.708C259.245 151.149 259.649 154.654 259.851 158.212L258.852 158.269C258.95 160 259 161.744 259 163.5C259 165.256 258.95 167 258.852 168.731L259.851 168.788C259.649 172.346 259.245 175.851 258.651 179.292L257.665 179.122C257.067 182.585 256.272 185.983 255.294 189.304L256.253 189.586C255.252 192.986 254.059 196.307 252.688 199.535L251.768 199.144C250.399 202.365 248.851 205.494 247.136 208.519L248.006 209.012C246.263 212.084 244.349 215.05 242.277 217.896L241.469 217.307C239.415 220.128 237.204 222.831 234.849 225.403L235.586 226.079C233.207 228.677 230.682 231.143 228.023 233.464L227.366 232.711C224.743 235.001 221.99 237.149 219.117 239.142L219.688 239.964C216.8 241.968 213.794 243.817 210.682 245.5L210.206 244.621C207.152 246.273 203.994 247.762 200.745 249.078L201.12 250.005C197.872 251.32 194.535 252.463 191.118 253.422L190.848 252.459C187.516 253.395 184.108 254.154 180.636 254.726L180.799 255.713C177.354 256.28 173.847 256.665 170.288 256.858L170.234 255.859C168.501 255.953 166.756 256 165 256C163.244 256 161.499 255.953 159.766 255.859L159.712 256.858C156.153 256.665 152.646 256.28 149.201 255.713L149.364 254.726C145.891 254.154 142.484 253.395 139.152 252.459L138.882 253.422C135.465 252.463 132.128 251.32 128.88 250.005L129.255 249.078C126.006 247.762 122.848 246.273 119.794 244.621L119.318 245.5C116.206 243.817 113.2 241.968 110.312 239.964L110.883 239.142C108.01 237.149 105.257 235.001 102.634 232.711L101.977 233.464C99.3183 231.143 96.7932 228.677 94.414 226.079L95.1514 225.403C92.7958 222.831 90.5849 220.128 88.5312 217.307L87.7227 217.896C85.6508 215.05 83.7372 212.084 81.9945 209.012L82.8643 208.519C81.1486 205.494 79.6006 202.365 78.2324 199.144L77.312 199.535C75.9408 196.307 74.7483 192.986 73.7466 189.586L74.7058 189.304C73.7275 185.983 72.9333 182.585 72.3347 179.122L71.3493 179.292C70.7546 175.851 70.3509 172.346 70.1494 168.788L71.1478 168.731C71.0497 167 71 165.256 71 163.5C71 161.744 71.0497 160 71.1478 158.269L70.1494 158.212C70.3509 154.654 70.7546 151.149 71.3493 147.708L72.3347 147.878C72.9333 144.415 73.7276 141.017 74.7059 137.696L73.7466 137.414C74.7483 134.014 75.9408 130.693 77.312 127.465L78.2324 127.856C79.6006 124.635 81.1486 121.506 82.8643 118.481L81.9945 117.988C83.7372 114.916 85.6508 111.95 87.7228 109.104L88.5312 109.693C90.5849 106.872 92.7958 104.169 95.1515 101.597L94.414 100.921C96.7932 98.3233 99.3183 95.8574 101.977 93.5361L102.634 94.2894C105.257 91.9993 108.01 89.8514 110.883 87.8579L110.312 87.0364C113.2 85.0323 116.206 83.1827 119.318 81.4996L119.794 82.3792C122.848 80.7274 126.006 79.2378 129.255 77.9221L128.88 76.9952C132.128 75.6804 135.465 74.5375 138.882 73.5781L139.152 74.5408C142.484 73.6051 145.892 72.8458 149.364 72.2738L149.201 71.2871C152.646 70.7196 156.153 70.3346 159.712 70.1424L159.766 71.1409C161.499 71.0474 163.244 71 165 71C166.756 71 168.501 71.0474 170.234 71.1409L170.288 70.1424C173.847 70.3346 177.354 70.7196 180.799 71.2871L180.636 72.2738C184.109 72.8458 187.516 73.6051 190.848 74.5408L191.118 73.5781C194.535 74.5375 197.872 75.6804 201.12 76.9952L200.745 77.9222C203.994 79.2378 207.152 80.7274 210.206 82.3792L210.682 81.4996C213.794 83.1827 216.8 85.0323 219.688 87.0364L219.117 87.858C221.99 89.8515 224.743 91.9994 227.366 94.2894L228.023 93.5361C230.682 95.8575 233.207 98.3233 235.586 100.921L234.849 101.597C237.204 104.169 239.415 106.872 241.469 109.693L242.277 109.104C244.349 111.95 246.263 114.916 248.006 117.988L247.136 118.481C248.851 121.506 250.399 124.635 251.768 127.856L252.688 127.465C254.059 130.693 255.252 134.014 256.253 137.414L255.294 137.696C256.272 141.017 257.067 144.415 257.665 147.878L258.651 147.708Z" stroke="white" stroke-opacity="0.6" stroke-width="2" stroke-dasharray="10 10"/>
</svg>
