<svg width="569" height="565" viewBox="0 0 569 565" fill="none" xmlns="http://www.w3.org/2000/svg">
<path d="M567.773 267.162C567.951 270.51 568.071 273.874 568.131 277.252L567.131 277.269C567.161 278.951 567.176 280.637 567.176 282.326C567.176 284.015 567.161 285.7 567.131 287.382L568.131 287.4C568.071 290.778 567.951 294.142 567.773 297.49L566.774 297.437C566.595 300.806 566.356 304.16 566.058 307.497L567.054 307.586C566.754 310.955 566.393 314.308 565.975 317.642L564.983 317.517C564.563 320.857 564.085 324.179 563.549 327.482L564.536 327.642C563.994 330.978 563.394 334.295 562.736 337.59L561.755 337.394C561.095 340.698 560.377 343.981 559.602 347.243L560.575 347.474C559.794 350.76 558.955 354.024 558.06 357.265L557.096 356.999C556.2 360.24 555.247 363.459 554.239 366.653L555.192 366.954C554.175 370.175 553.101 373.372 551.972 376.543L551.03 376.208C549.901 379.377 548.717 382.521 547.478 385.637L548.407 386.007C547.161 389.143 545.859 392.251 544.504 395.331L543.589 394.929C542.235 398.006 540.827 401.054 539.367 404.072L540.267 404.508C538.797 407.546 537.274 410.555 535.699 413.532L534.815 413.064C533.243 416.036 531.619 418.976 529.944 421.884L530.81 422.383C529.127 425.306 527.392 428.195 525.608 431.051L524.76 430.521C522.979 433.371 521.149 436.187 519.27 438.968L520.098 439.528C518.21 442.322 516.272 445.082 514.287 447.804L513.479 447.215C511.5 449.93 509.473 452.608 507.399 455.249L508.186 455.866C506.104 458.518 503.975 461.132 501.801 463.706L501.037 463.061C498.87 465.627 496.657 468.155 494.401 470.642L495.141 471.314C492.877 473.81 490.568 476.266 488.216 478.681L487.499 477.983C485.156 480.388 482.77 482.752 480.342 485.074L481.033 485.797C478.598 488.125 476.12 490.412 473.602 492.654L472.937 491.907C470.43 494.14 467.882 496.329 465.295 498.473L465.933 499.243C463.34 501.393 460.707 503.498 458.036 505.556L457.426 504.764C454.767 506.813 452.071 508.816 449.338 510.772L449.92 511.585C447.18 513.545 444.404 515.459 441.593 517.323L441.04 516.49C438.244 518.345 435.412 520.152 432.546 521.909L433.069 522.761C430.199 524.521 427.296 526.232 424.359 527.892L423.867 527.022C420.947 528.673 417.994 530.274 415.01 531.823L415.471 532.711C412.482 534.263 409.462 535.763 406.412 537.212L405.983 536.308C402.955 537.747 399.896 539.133 396.809 540.466L397.205 541.384C394.117 542.718 391 543.999 387.856 545.225L387.492 544.294C384.368 545.512 381.218 546.677 378.041 547.788L378.371 548.732C375.193 549.842 371.99 550.898 368.761 551.899L368.465 550.944C365.267 551.935 362.044 552.871 358.798 553.752L359.059 554.717C355.815 555.597 352.547 556.421 349.258 557.188L349.031 556.214C345.766 556.976 342.481 557.681 339.174 558.329L339.366 559.31C336.068 559.957 332.749 560.546 329.411 561.078L329.254 560.091C325.95 560.617 322.626 561.087 319.285 561.499L319.408 562.491C316.073 562.902 312.72 563.256 309.35 563.551L309.263 562.555C305.925 562.847 302.57 563.082 299.199 563.258L299.252 564.256C295.904 564.431 292.54 564.549 289.162 564.608L289.145 563.608C287.463 563.637 285.777 563.652 284.088 563.652C282.399 563.652 280.713 563.637 279.031 563.608L279.014 564.608C275.636 564.549 272.272 564.431 268.924 564.256L268.977 563.258C265.606 563.082 262.251 562.847 258.913 562.555L258.826 563.551C255.456 563.256 252.103 562.902 248.768 562.491L248.891 561.499C245.55 561.087 242.226 560.617 238.922 560.091L238.765 561.078C235.427 560.546 232.108 559.957 228.81 559.31L229.002 558.329C225.695 557.681 222.409 556.976 219.145 556.214L218.918 557.188C215.629 556.421 212.361 555.597 209.117 554.717L209.378 553.752C206.132 552.871 202.909 551.935 199.711 550.944L199.415 551.899C196.186 550.898 192.983 549.842 189.805 548.732L190.135 547.788C186.958 546.677 183.807 545.512 180.684 544.294L180.32 545.225C177.176 543.999 174.059 542.718 170.971 541.384L171.367 540.466C168.28 539.133 165.221 537.747 162.192 536.308L161.763 537.212C158.714 535.763 155.694 534.263 152.705 532.711L153.166 531.823C150.182 530.274 147.229 528.673 144.309 527.022L143.816 527.892C140.88 526.232 137.976 524.521 135.107 522.761L135.629 521.909C132.764 520.152 129.932 518.345 127.136 516.49L126.583 517.323C123.771 515.459 120.995 513.545 118.256 511.585L118.838 510.772C116.105 508.816 113.409 506.813 110.75 504.764L110.14 505.556C107.469 503.497 104.836 501.393 102.243 499.243L102.881 498.473C100.294 496.329 97.746 494.14 95.2384 491.907L94.5734 492.654C92.0555 490.412 89.5782 488.125 87.1425 485.796L87.8336 485.074C85.4059 482.752 83.0197 480.388 80.6763 477.983L79.96 478.68C77.6081 476.266 75.2991 473.81 73.0343 471.314L73.7749 470.642C71.5184 468.155 69.3058 465.627 67.1386 463.061L66.3746 463.706C64.2006 461.131 62.072 458.518 59.9901 455.866L60.7766 455.249C58.7031 452.608 56.6761 449.93 54.6966 447.215L53.8886 447.804C51.9035 445.081 49.9662 442.322 48.0777 439.528L48.9063 438.968C47.0272 436.187 45.1967 433.371 43.416 430.521L42.5679 431.051C40.7836 428.195 39.049 425.306 37.3656 422.383L38.2321 421.884C36.5572 418.976 34.9331 416.036 33.3609 413.064L32.477 413.532C30.9018 410.555 29.3786 407.546 27.9085 404.508L28.8087 404.072C27.3484 401.054 25.9408 398.006 24.587 394.929L23.6717 395.331C22.3165 392.251 21.015 389.143 19.7685 386.007L20.6977 385.637C19.459 382.521 18.2746 379.377 17.1458 376.208L16.2038 376.543C15.0746 373.372 14.0008 370.175 12.9835 366.954L13.9371 366.653C12.9287 363.459 11.976 360.241 11.0802 356.999L10.1163 357.265C9.22079 354.024 8.38194 350.76 7.60087 347.474L8.57377 347.243C7.79866 343.982 7.08066 340.698 6.42089 337.394L5.44025 337.59C4.78214 334.295 4.18175 330.978 3.64018 327.642L4.62725 327.482C4.09106 324.18 3.61272 320.858 3.1933 317.517L2.20109 317.642C1.78241 314.308 1.42224 310.955 1.12162 307.586L2.11767 307.497C1.81993 304.16 1.58082 300.806 1.40137 297.437L0.402781 297.49C0.22448 294.142 0.104873 290.778 0.0449643 287.4L1.04481 287.383C1.01498 285.701 1 284.015 1 282.326C1 280.637 1.01498 278.951 1.0448 277.269L0.0449619 277.252C0.104869 273.874 0.224475 270.51 0.402776 267.162L1.40136 267.215C1.58081 263.846 1.81992 260.492 2.11766 257.155L1.12161 257.066C1.42223 253.696 1.7824 250.344 2.20108 247.01L3.19329 247.134C3.61271 243.794 4.09105 240.472 4.62724 237.17L3.64016 237.009C4.18174 233.674 4.78212 230.357 5.44023 227.062L6.42087 227.257C7.08065 223.953 7.79865 220.67 8.57376 217.409L7.60086 217.178C8.38192 213.892 9.22078 210.628 10.1163 207.387L11.0802 207.653C11.976 204.411 12.9286 201.193 13.9371 197.999L12.9835 197.698C14.0008 194.476 15.0746 191.28 16.2037 188.109L17.1458 188.444C18.2746 185.275 19.459 182.131 20.6977 179.014L19.7685 178.645C21.015 175.509 22.3165 172.4 23.6717 169.32L24.587 169.723C25.9408 166.646 27.3484 163.598 28.8087 160.58L27.9085 160.144C29.3786 157.105 30.9018 154.097 32.477 151.12L33.3609 151.587C34.9331 148.616 36.5573 145.676 38.2322 142.768L37.3656 142.269C39.0491 139.346 40.7836 136.456 42.5679 133.601L43.416 134.131C45.1967 131.281 47.0272 128.465 48.9063 125.684L48.0778 125.124C49.9662 122.329 51.9036 119.57 53.8886 116.848L54.6967 117.437C56.6761 114.722 58.7032 112.044 60.7766 109.403L59.9901 108.785C62.0721 106.134 64.2007 103.52 66.3746 100.946L67.1387 101.591C69.3059 99.0245 71.5184 96.497 73.775 94.0098L73.0344 93.3379C75.2991 90.8415 77.6081 88.3856 79.9601 85.9712L80.6764 86.669C83.0197 84.2635 85.4059 81.8995 87.8337 79.578L87.1426 78.8553C89.5782 76.5263 92.0556 74.2402 94.5735 71.998L95.2385 72.7448C97.7461 70.5118 100.294 68.3226 102.881 66.1784L102.243 65.4085C104.836 63.2588 107.469 61.1542 110.14 59.096L110.75 59.888C113.409 57.8389 116.105 55.8359 118.838 53.8801L118.256 53.0669C120.995 51.1064 123.771 49.1932 126.583 47.3285L127.136 48.1619C129.932 46.3069 132.764 44.5002 135.63 42.7428L135.107 41.8903C137.977 40.1304 140.88 38.4198 143.816 36.7596L144.309 37.6301C147.229 35.979 150.182 34.378 153.166 32.8284L152.705 31.9409C155.694 30.389 158.714 28.8883 161.763 27.4401L162.192 28.3435C165.221 26.9052 168.28 25.5189 171.367 24.1857L170.971 23.2677C174.059 21.934 177.176 20.6532 180.32 19.4266L180.684 20.3582C183.807 19.1395 186.958 17.9745 190.135 16.8641L189.805 15.9201C192.983 14.8095 196.186 13.7533 199.415 12.7529L199.711 13.7081C202.909 12.7169 206.132 11.7806 209.378 10.9002L209.116 9.93509C212.361 9.05521 215.628 8.23104 218.918 7.46369L219.145 8.43755C222.409 7.67612 225.695 6.97083 229.002 6.32277L228.81 5.34144C232.108 4.69501 235.427 4.10532 238.765 3.57342L238.922 4.56097C242.226 4.03452 245.549 3.56489 248.891 3.15312L248.768 2.16063C252.103 1.74962 255.456 1.39606 258.826 1.10097L258.913 2.09716C262.251 1.80485 265.606 1.57011 268.976 1.39395L268.924 0.395311C272.272 0.220318 275.636 0.102932 279.013 0.0441343L279.031 1.04398C280.713 1.0147 282.399 1 284.088 1C285.777 1 287.463 1.0147 289.145 1.04398L289.162 0.0441314C292.54 0.102928 295.903 0.220311 299.251 0.395303L299.199 1.39394C302.57 1.5701 305.924 1.80484 309.262 2.09714L309.35 1.10096C312.72 1.39605 316.072 1.74961 319.407 2.16061L319.285 3.1531C322.626 3.56487 325.949 4.0345 329.253 4.56094L329.411 3.5734C332.749 4.1053 336.068 4.69499 339.366 5.34141L339.174 6.32274C342.48 6.97081 345.766 7.6761 349.031 8.43752L349.258 7.46367C352.547 8.23102 355.815 9.05519 359.059 9.93507L358.798 10.9002C362.044 11.7806 365.267 12.7169 368.465 13.7081L368.761 12.7529C371.989 13.7533 375.193 14.8094 378.371 15.9201L378.041 16.8641C381.218 17.9744 384.368 19.1395 387.492 20.3582L387.856 19.4266C391 20.6532 394.117 21.934 397.205 23.2677L396.809 24.1857C399.896 25.5189 402.954 26.9052 405.983 28.3435L406.412 27.4401C409.462 28.8883 412.482 30.389 415.471 31.9409L415.01 32.8284C417.994 34.378 420.947 35.979 423.867 37.6302L424.359 36.7596C427.296 38.4198 430.199 40.1304 433.069 41.8903L432.546 42.7428C435.412 44.5002 438.244 46.307 441.04 48.1619L441.593 47.3285C444.404 49.1932 447.18 51.1064 449.92 53.067L449.338 53.8802C452.071 55.836 454.767 57.839 457.426 59.8881L458.036 59.096C460.707 61.1543 463.34 63.2589 465.933 65.4085L465.295 66.1784C467.882 68.3226 470.43 70.5119 472.937 72.7449L473.602 71.9981C476.12 74.2402 478.598 76.5264 481.033 78.8553L480.342 79.5781C482.77 81.8995 485.156 84.2636 487.5 86.6691L488.216 85.9713C490.568 88.3857 492.877 90.8416 495.142 93.3379L494.401 94.0098C496.657 96.4971 498.87 99.0246 501.037 101.591L501.801 100.946C503.975 103.52 506.104 106.134 508.186 108.785L507.399 109.403C509.473 112.044 511.5 114.722 513.479 117.437L514.287 116.848C516.272 119.57 518.21 122.329 520.098 125.124L519.27 125.684C521.149 128.465 522.979 131.281 524.76 134.131L525.608 133.601C527.392 136.456 529.127 139.346 530.81 142.269L529.944 142.768C531.619 145.676 533.243 148.616 534.815 151.587L535.699 151.12C537.274 154.097 538.797 157.105 540.267 160.144L539.367 160.58C540.827 163.598 542.235 166.646 543.589 169.723L544.504 169.32C545.859 172.4 547.161 175.509 548.407 178.645L547.478 179.014C548.717 182.131 549.901 185.274 551.03 188.444L551.972 188.109C553.101 191.28 554.175 194.476 555.192 197.698L554.239 197.999C555.247 201.193 556.2 204.411 557.096 207.653L558.06 207.387C558.955 210.627 559.794 213.892 560.575 217.178L559.602 217.409C560.377 220.67 561.095 223.953 561.755 227.257L562.736 227.062C563.394 230.357 563.994 233.673 564.536 237.009L563.549 237.17C564.085 240.472 564.563 243.794 564.983 247.134L565.975 247.01C566.393 250.344 566.754 253.696 567.054 257.066L566.058 257.155C566.356 260.492 566.595 263.846 566.774 267.215L567.773 267.162Z" stroke="white" stroke-opacity="0.6" stroke-width="2" stroke-dasharray="10 10"/>
<path d="M447.335 266.739C447.629 269.988 447.827 273.264 447.926 276.565L446.926 276.595C446.975 278.224 447 279.859 447 281.5C447 283.141 446.975 284.776 446.926 286.405L447.926 286.435C447.827 289.736 447.629 293.012 447.335 296.261L446.339 296.171C446.043 299.436 445.649 302.674 445.161 305.88L446.149 306.031C445.652 309.293 445.058 312.524 444.368 315.719L443.391 315.508C442.7 318.711 441.914 321.879 441.035 325.008L441.998 325.279C441.107 328.45 440.122 331.583 439.046 334.672L438.102 334.344C437.026 337.433 435.859 340.479 434.603 343.48L435.525 343.866C434.255 346.901 432.895 349.89 431.448 352.829L430.551 352.387C429.107 355.32 427.576 358.203 425.962 361.033L426.831 361.528C425.202 364.384 423.489 367.185 421.694 369.929L420.857 369.382C419.07 372.115 417.202 374.791 415.257 377.407L416.059 378.004C414.098 380.639 412.06 383.214 409.946 385.724L409.181 385.08C407.079 387.577 404.903 390.009 402.655 392.374L403.38 393.063C401.119 395.442 398.786 397.754 396.385 399.994L395.703 399.263C393.318 401.488 390.866 403.642 388.35 405.722L388.987 406.493C386.459 408.583 383.866 410.598 381.213 412.536L380.623 411.729C377.991 413.651 375.299 415.496 372.55 417.26L373.09 418.102C370.332 419.873 367.516 421.563 364.647 423.17L364.158 422.297C361.317 423.889 358.422 425.398 355.478 426.821L355.913 427.721C352.964 429.146 349.967 430.486 346.923 431.737L346.543 430.812C343.534 432.048 340.48 433.197 337.384 434.255L337.708 435.201C334.612 436.26 331.475 437.228 328.298 438.104L328.032 437.14C324.899 438.004 321.727 438.776 318.521 439.455L318.728 440.434C315.53 441.11 312.298 441.694 309.035 442.183L308.887 441.194C305.679 441.673 302.44 442.06 299.173 442.351L299.262 443.347C296.013 443.636 292.736 443.83 289.435 443.927L289.406 442.928C287.777 442.976 286.141 443 284.5 443C282.859 443 281.223 442.976 279.594 442.928L279.565 443.927C276.264 443.83 272.987 443.636 269.738 443.347L269.827 442.351C266.56 442.06 263.321 441.673 260.113 441.194L259.965 442.183C256.702 441.694 253.47 441.11 250.272 440.434L250.479 439.455C247.273 438.776 244.101 438.004 240.968 437.14L240.702 438.104C237.525 437.228 234.388 436.26 231.292 435.201L231.616 434.255C228.52 433.197 225.466 432.048 222.457 430.812L222.077 431.737C219.033 430.486 216.036 429.146 213.087 427.721L213.522 426.821C210.578 425.398 207.683 423.889 204.842 422.297L204.353 423.17C201.484 421.563 198.668 419.873 195.91 418.102L196.45 417.26C193.701 415.496 191.009 413.651 188.377 411.729L187.787 412.536C185.134 410.598 182.541 408.583 180.013 406.493L180.65 405.722C178.134 403.642 175.682 401.488 173.297 399.263L172.615 399.994C170.214 397.754 167.881 395.442 165.62 393.063L166.345 392.374C164.097 390.009 161.921 387.577 159.819 385.08L159.054 385.724C156.94 383.214 154.902 380.639 152.941 378.004L153.743 377.407C151.798 374.791 149.93 372.115 148.143 369.382L147.306 369.929C145.511 367.185 143.798 364.384 142.169 361.528L143.038 361.033C141.424 358.203 139.893 355.32 138.449 352.387L137.552 352.829C136.105 349.89 134.745 346.901 133.475 343.866L134.397 343.48C133.141 340.479 131.974 337.433 130.898 334.344L129.954 334.673C128.878 331.583 127.893 328.45 127.002 325.279L127.965 325.008C127.086 321.879 126.3 318.711 125.609 315.508L124.632 315.719C123.942 312.524 123.348 309.293 122.851 306.031L123.839 305.88C123.351 302.674 122.957 299.436 122.661 296.171L121.665 296.261C121.371 293.012 121.173 289.736 121.074 286.435L122.074 286.405C122.025 284.776 122 283.141 122 281.5C122 279.859 122.025 278.224 122.074 276.595L121.074 276.565C121.173 273.264 121.371 269.988 121.665 266.739L122.661 266.829C122.957 263.564 123.351 260.326 123.839 257.12L122.851 256.969C123.348 253.707 123.942 250.476 124.632 247.281L125.609 247.492C126.3 244.289 127.086 241.121 127.965 237.992L127.002 237.721C127.893 234.55 128.877 231.417 129.954 228.328L130.898 228.656C131.974 225.567 133.141 222.521 134.397 219.52L133.475 219.134C134.745 216.099 136.105 213.11 137.552 210.171L138.449 210.613C139.893 207.68 141.424 204.797 143.038 201.967L142.169 201.472C143.798 198.616 145.511 195.815 147.306 193.071L148.143 193.618C149.93 190.885 151.798 188.209 153.743 185.593L152.941 184.996C154.902 182.361 156.94 179.786 159.054 177.276L159.819 177.92C161.921 175.423 164.097 172.991 166.345 170.626L165.62 169.937C167.881 167.558 170.214 165.246 172.615 163.006L173.297 163.737C175.682 161.512 178.134 159.358 180.65 157.278L180.013 156.507C182.541 154.417 185.134 152.402 187.787 150.464L188.377 151.271C191.009 149.349 193.701 147.504 196.45 145.74L195.91 144.898C198.668 143.127 201.484 141.437 204.353 139.83L204.842 140.703C207.683 139.111 210.578 137.602 213.522 136.179L213.087 135.279C216.036 133.854 219.033 132.514 222.077 131.263L222.457 132.188C225.466 130.952 228.52 129.803 231.616 128.745L231.292 127.799C234.388 126.74 237.525 125.772 240.702 124.896L240.968 125.86C244.101 124.996 247.273 124.224 250.479 123.545L250.272 122.566C253.47 121.89 256.702 121.306 259.965 120.817L260.113 121.806C263.321 121.327 266.56 120.94 269.827 120.649L269.738 119.653C272.987 119.364 276.264 119.17 279.565 119.073L279.594 120.072C281.223 120.024 282.859 120 284.5 120C286.141 120 287.777 120.024 289.406 120.072L289.435 119.073C292.736 119.17 296.013 119.364 299.262 119.653L299.173 120.649C302.44 120.94 305.679 121.327 308.887 121.806L309.035 120.817C312.298 121.306 315.53 121.89 318.728 122.566L318.521 123.545C321.727 124.224 324.899 124.996 328.032 125.86L328.298 124.896C331.475 125.772 334.612 126.74 337.708 127.799L337.384 128.745C340.48 129.803 343.534 130.952 346.543 132.188L346.923 131.263C349.967 132.514 352.964 133.854 355.913 135.279L355.478 136.179C358.422 137.602 361.317 139.111 364.158 140.703L364.647 139.83C367.516 141.437 370.332 143.127 373.09 144.898L372.55 145.74C375.299 147.504 377.991 149.349 380.623 151.271L381.213 150.464C383.866 152.402 386.459 154.417 388.987 156.507L388.35 157.278C390.866 159.358 393.318 161.512 395.703 163.737L396.385 163.006C398.786 165.246 401.119 167.558 403.38 169.937L402.655 170.626C404.903 172.991 407.079 175.423 409.181 177.92L409.946 177.276C412.06 179.786 414.098 182.361 416.059 184.996L415.257 185.593C417.202 188.209 419.07 190.885 420.857 193.618L421.694 193.071C423.489 195.815 425.202 198.616 426.831 201.472L425.962 201.967C427.576 204.797 429.107 207.68 430.551 210.613L431.448 210.171C432.895 213.11 434.255 216.099 435.525 219.134L434.603 219.52C435.859 222.521 437.026 225.567 438.102 228.656L439.046 228.327C440.122 231.417 441.107 234.55 441.998 237.721L441.035 237.992C441.914 241.121 442.7 244.289 443.391 247.492L444.368 247.281C445.058 250.476 445.652 253.707 446.149 256.969L445.161 257.12C445.649 260.326 446.043 263.564 446.339 266.829L447.335 266.739Z" stroke="white" stroke-opacity="0.6" stroke-width="2" stroke-dasharray="10 10"/>
</svg>
