<svg width="49" height="48" viewBox="0 0 49 48" fill="none" xmlns="http://www.w3.org/2000/svg">
<path d="M40.613 20.3056H13.6048L39.3068 13.5241C39.4021 13.499 39.4915 13.4553 39.5698 13.3954C39.6481 13.3356 39.7138 13.2609 39.7631 13.1756C39.8124 13.0903 39.8442 12.9961 39.8569 12.8984C39.8695 12.8007 39.8627 12.7015 39.8368 12.6064L38.3141 7.01115C38.1566 6.44814 37.7836 5.96981 37.2758 5.67973C36.768 5.38964 36.1663 5.31115 35.601 5.46125L7.18017 12.9589C6.89708 13.0322 6.63145 13.1611 6.39883 13.3382C6.16621 13.5153 5.97128 13.737 5.82546 13.9903C5.68178 14.2378 5.58866 14.5112 5.5515 14.7949C5.51435 15.0785 5.53389 15.3668 5.60901 15.6428L7.04022 20.9005C7.02995 20.9502 7.02494 21.0009 7.02529 21.0516L7.02529 37.4644C7.02529 38.058 7.26121 38.6273 7.68113 39.047C8.10106 39.4668 8.67061 39.7026 9.26447 39.7026H39.1202C39.7141 39.7026 40.2837 39.4668 40.7036 39.047C41.1235 38.6273 41.3594 38.058 41.3594 37.4644V21.0516C41.3594 20.8537 41.2808 20.664 41.1408 20.5241C41.0008 20.3842 40.811 20.3056 40.613 20.3056ZM23.8192 10.1091L30.9099 14.1974L21.9681 16.5567L14.8848 12.4721L23.8192 10.1091ZM35.9779 6.90111C36.0389 6.88519 36.1015 6.87704 36.1645 6.87686C36.3252 6.8723 36.4829 6.92134 36.6126 7.01623C36.7423 7.11112 36.8368 7.24648 36.8811 7.40095L38.2059 12.2726L32.9625 13.6565L25.8717 9.56819L35.9779 6.90111ZM7.11113 14.7345C7.15895 14.6521 7.22266 14.58 7.29858 14.5223C7.37449 14.4647 7.46109 14.4227 7.55337 14.3988L12.8285 13.0074L19.9193 17.0939L8.37813 20.1414L7.04955 15.2586C7.02588 15.1713 7.01979 15.0802 7.03164 14.9906C7.0435 14.9009 7.07305 14.8145 7.11859 14.7364L7.11113 14.7345ZM39.8666 37.4644C39.8666 37.6623 39.788 37.8521 39.648 37.992C39.508 38.1319 39.3182 38.2105 39.1202 38.2105H9.26447C9.06652 38.2105 8.87667 38.1319 8.73669 37.992C8.59672 37.8521 8.51808 37.6623 8.51808 37.4644L8.51808 21.7976L39.8666 21.7976V37.4644Z" fill="url(#paint0_linear_29_31913)" stroke="url(#paint1_linear_29_31913)"/>
<defs>
<linearGradient id="paint0_linear_29_31913" x1="23.4463" y1="11.9471" x2="27.7172" y2="39.029" gradientUnits="userSpaceOnUse">
<stop stop-color="#827BFD"/>
<stop offset="1" stop-color="#736BF8"/>
</linearGradient>
<linearGradient id="paint1_linear_29_31913" x1="23.4463" y1="11.9471" x2="27.7172" y2="39.029" gradientUnits="userSpaceOnUse">
<stop stop-color="#827BFD"/>
<stop offset="1" stop-color="#736BF8"/>
</linearGradient>
</defs>
</svg>
