<svg width="57" height="57" viewBox="0 0 57 57" fill="none" xmlns="http://www.w3.org/2000/svg">
<g id="Icon" clip-path="url(#clip0_29_31910)">
<path id="Vector" d="M38.1234 32.1735C38.1647 32.2995 38.1804 32.4325 38.1696 32.5646C38.1588 32.6967 38.1216 32.8253 38.0603 32.9429C37.9991 33.0604 37.9149 33.1646 37.8128 33.2492C37.7107 33.3337 37.5927 33.3971 37.4658 33.4354C37.3388 33.4738 37.2055 33.4864 37.0736 33.4726C36.9417 33.4587 36.8139 33.4186 36.6977 33.3547C36.5816 33.2907 36.4794 33.2043 36.3971 33.1003C36.3148 32.9963 36.2542 32.8769 36.2188 32.7492C35.9985 32.0209 35.1752 31.1653 34.3048 30.7596C33.4344 30.3539 32.2494 30.2735 31.5497 30.573C31.3084 30.6697 31.0388 30.6683 30.7986 30.5689C30.5584 30.4695 30.3666 30.2801 30.2643 30.0413C30.162 29.8024 30.1572 29.533 30.2511 29.2907C30.345 29.0483 30.53 28.8523 30.7665 28.7446C31.9914 28.2179 33.7509 28.3063 35.146 28.9565C36.541 29.6067 37.7398 30.8972 38.1234 32.1735ZM25.3953 27.7046C25.4308 27.8323 25.4914 27.9517 25.5737 28.0556C25.6559 28.1596 25.7582 28.2461 25.8743 28.31C25.9905 28.374 26.1183 28.4141 26.2502 28.4279C26.3821 28.4418 26.5154 28.4292 26.6424 28.3908C26.7693 28.3524 26.8873 28.2891 26.9894 28.2045C27.0915 28.1199 27.1757 28.0158 27.2369 27.8982C27.2982 27.7807 27.3354 27.6521 27.3462 27.5199C27.357 27.3878 27.3413 27.2549 27.3 27.1289C26.9164 25.8525 25.7176 24.5621 24.3226 23.9119C22.9275 23.2617 21.1679 23.1733 19.9431 23.7C19.82 23.7493 19.7081 23.8228 19.6138 23.916C19.5195 24.0092 19.4448 24.1203 19.3941 24.2428C19.3433 24.3653 19.3176 24.4966 19.3184 24.6292C19.3192 24.7617 19.3465 24.8928 19.3987 25.0147C19.4509 25.1365 19.527 25.2467 19.6224 25.3388C19.7178 25.4309 19.8306 25.5029 19.9543 25.5508C20.078 25.5987 20.21 25.6213 20.3425 25.6175C20.4751 25.6136 20.6056 25.5833 20.7262 25.5284C21.426 25.2289 22.611 25.3093 23.4814 25.7149C24.3518 26.1206 25.1751 26.9763 25.3953 27.7046ZM32.0208 36.5419C31.9665 36.423 31.8894 36.316 31.7937 36.227C31.6981 36.1379 31.5858 36.0685 31.4634 36.0228C31.3409 35.9771 31.2107 35.956 31.08 35.9606C30.9494 35.9653 30.821 35.9956 30.702 36.0498C29.8482 36.4482 28.9174 36.6547 27.9751 36.6548C27.0328 36.655 26.1019 36.4488 25.2479 36.0508C24.3938 35.6527 23.6374 35.0725 23.0319 34.3509C22.4263 33.6293 21.9862 32.7838 21.7427 31.874C21.7078 31.7481 21.6485 31.6303 21.568 31.5273C21.4876 31.4243 21.3877 31.3381 21.274 31.2738C21.1602 31.2094 21.0349 31.168 20.9052 31.152C20.7755 31.136 20.6439 31.1457 20.5179 31.1806C20.3919 31.2154 20.274 31.2748 20.171 31.3551C20.068 31.4355 19.9818 31.5354 19.9174 31.6491C19.8529 31.7628 19.8115 31.888 19.7956 32.0177C19.7796 32.1473 19.7893 32.2789 19.8241 32.4048C20.1448 33.5918 20.721 34.6945 21.5126 35.6357C22.3042 36.5768 23.292 37.3337 24.4069 37.8533C25.5218 38.3729 26.7368 38.6428 27.9669 38.6439C29.1971 38.6451 30.4126 38.3775 31.5285 37.86C31.6474 37.8058 31.7545 37.7287 31.8436 37.6331C31.9327 37.5375 32.0021 37.4253 32.0478 37.3029C32.0935 37.1805 32.1146 37.0503 32.11 36.9197C32.1054 36.7891 32.075 36.6608 32.0208 36.5419ZM48.4913 23.1035L44.5819 31.4832C42.097 36.8097 38.3224 41.1619 33.9553 43.7362C29.4678 46.3842 24.8814 46.8551 21.0421 45.0657C17.2028 43.2762 14.6157 39.4619 13.7599 34.3252C12.9258 29.3267 13.8351 23.6391 16.3201 18.3126L20.2301 9.93144C20.3906 9.59087 20.6316 9.29443 20.9322 9.06768C21.2328 8.84093 21.5841 8.69066 21.9558 8.62985C22.3275 8.56904 22.7084 8.59951 23.0657 8.71862C23.423 8.83773 23.7459 9.04192 24.0066 9.31357C25.757 11.1282 29.4101 14.5211 34.2415 16.7729C39.073 19.0248 44.0215 19.641 46.5373 19.8148C46.9131 19.8398 47.2772 19.9559 47.5981 20.1528C47.9191 20.3498 48.1873 20.6219 48.3796 20.9456C48.5719 21.2693 48.6825 21.6348 48.702 22.0108C48.7215 22.3867 48.6491 22.7618 48.4913 23.1035ZM46.6874 22.2628C46.7105 22.2138 46.7213 22.1599 46.7188 22.1058C46.7163 22.0517 46.7005 21.999 46.6729 21.9524C46.6462 21.9055 46.608 21.8661 46.562 21.838C46.5159 21.8098 46.4635 21.7937 46.4096 21.7912C43.7477 21.6243 38.5265 20.9652 33.4004 18.576C28.2743 16.1868 24.4129 12.6127 22.5733 10.6833C22.5361 10.6445 22.49 10.6152 22.439 10.5981C22.388 10.5811 22.3336 10.5766 22.2805 10.5852C22.2273 10.5941 22.1771 10.6157 22.1341 10.6483C22.0912 10.6808 22.0568 10.7234 22.0341 10.7722L18.1254 19.1503C13.4001 29.2789 15.0871 40.095 21.8833 43.2626C28.6795 46.4302 38.0534 40.7695 42.7773 30.6439L46.6874 22.2628Z" fill="url(#paint0_linear_29_31910)" stroke="url(#paint1_linear_29_31910)"/>
</g>
<defs>
<linearGradient id="paint0_linear_29_31910" x1="32.6052" y1="20.2803" x2="25.6978" y2="46.3015" gradientUnits="userSpaceOnUse">
<stop stop-color="#827BFD"/>
<stop offset="1" stop-color="#736BF8"/>
</linearGradient>
<linearGradient id="paint1_linear_29_31910" x1="32.6052" y1="20.2803" x2="25.6978" y2="46.3015" gradientUnits="userSpaceOnUse">
<stop stop-color="#827BFD"/>
<stop offset="1" stop-color="#736BF8"/>
</linearGradient>
<clipPath id="clip0_29_31910">
<rect width="42.4579" height="42.4449" fill="white" transform="matrix(0.906385 0.422453 -0.422784 0.906231 18.4839 0.335938)"/>
</clipPath>
</defs>
</svg>
