<svg width="25" height="25" viewBox="0 0 25 25" fill="none" xmlns="http://www.w3.org/2000/svg">
<g clip-path="url(#clip0_29_31915)">
<path fill-rule="evenodd" clip-rule="evenodd" d="M12.8949 3.5317C13.5463 3.53462 14.072 4.0648 14.0691 4.71589L14.0364 12.0115L21.382 12.2685C22.033 12.2913 22.5422 12.8373 22.5195 13.488C22.4967 14.1387 21.9504 14.6477 21.2994 14.625L14.0258 14.3704L13.9957 21.0939C13.9928 21.745 13.4624 22.2704 12.811 22.2675C12.1596 22.2646 11.6339 21.7344 11.6368 21.0833L11.6672 14.2878L4.61875 14.0412C3.96773 14.0184 3.45846 13.4724 3.48125 12.8217C3.50405 12.171 4.05028 11.662 4.70129 11.6848L11.6778 11.9289L11.7101 4.70534C11.713 4.05424 12.2435 3.52879 12.8949 3.5317Z" fill="url(#paint0_linear_29_31915)"/>
</g>
<defs>
<linearGradient id="paint0_linear_29_31915" x1="10.3031" y1="8.48527" x2="18.6544" y2="18.6754" gradientUnits="userSpaceOnUse">
<stop stop-color="#827BFD"/>
<stop offset="1" stop-color="#736BF8"/>
</linearGradient>
<clipPath id="clip0_29_31915">
<rect width="17.6902" height="17.686" fill="white" transform="matrix(0.866129 -0.499821 0.500179 0.865922 0.769287 9.66406)"/>
</clipPath>
</defs>
</svg>
