<svg width="25" height="25" viewBox="0 0 25 25" fill="none" xmlns="http://www.w3.org/2000/svg">
<g clip-path="url(#clip0_29_31912)">
<path fill-rule="evenodd" clip-rule="evenodd" d="M20.5294 7.96554C20.8526 8.53086 20.6561 9.25101 20.0905 9.57403L13.753 13.1935L17.203 19.6805C17.5088 20.2554 17.2904 20.9692 16.7152 21.2749C16.14 21.5805 15.4258 21.3622 15.1201 20.7873L11.7038 14.3639L5.8633 17.6995C5.29771 18.0226 4.57722 17.8261 4.25404 17.2608C3.93086 16.6955 4.12738 15.9754 4.69297 15.6523L10.596 12.2809L7.28556 6.05635C6.97979 5.48144 7.1982 4.76762 7.7734 4.462C8.34859 4.15638 9.06274 4.37469 9.36851 4.9496L12.6452 11.1106L18.9202 7.52682C19.4857 7.20379 20.2062 7.40022 20.5294 7.96554Z" fill="url(#paint0_linear_29_31912)"/>
</g>
<defs>
<linearGradient id="paint0_linear_29_31912" x1="14.9416" y1="8.19885" x2="10.2977" y2="20.5265" gradientUnits="userSpaceOnUse">
<stop stop-color="#827BFD"/>
<stop offset="1" stop-color="#736BF8"/>
</linearGradient>
<clipPath id="clip0_29_31912">
<rect width="17.6902" height="17.686" fill="white" transform="matrix(0.866129 0.499821 -0.500179 0.865922 9.15381 0.535156)"/>
</clipPath>
</defs>
</svg>
