<svg width="20" height="20" viewBox="0 0 20 20" fill="none" xmlns="http://www.w3.org/2000/svg">
<path fill-rule="evenodd" clip-rule="evenodd" d="M19.1887 4.7654C19.5491 5.40754 19.3207 6.22028 18.6786 6.58072L11.4834 10.6195L15.3273 17.9856C15.668 18.6384 15.4149 19.4438 14.7621 19.7845C14.1093 20.1252 13.3039 19.8721 12.9632 19.2193L9.15695 11.9253L2.52598 15.6474C1.88385 16.0078 1.0711 15.7794 0.710662 15.1373C0.350224 14.4952 0.578585 13.6824 1.22072 13.322L7.9227 9.56009L4.23428 2.49188C3.89361 1.83904 4.14667 1.03364 4.7995 0.69297C5.45234 0.352298 6.25774 0.605359 6.59841 1.2582L10.2492 8.25422L17.3733 4.25534C18.0155 3.8949 18.8282 4.12326 19.1887 4.7654Z" fill="white" fill-opacity="0.6"/>
</svg>
