<svg width="95" height="95" viewBox="0 0 95 95" fill="none" xmlns="http://www.w3.org/2000/svg">
<path d="M69.7673 46.0936C69.9681 46.3078 70.124 46.56 70.2259 46.8353C70.3278 47.1107 70.3737 47.4036 70.3608 47.6969C70.3479 47.9902 70.2765 48.278 70.1509 48.5433C70.0252 48.8086 69.8477 49.0462 69.629 49.2419C69.4102 49.4377 69.1545 49.5878 68.8769 49.6834C68.5993 49.7789 68.3054 49.818 68.0124 49.7984C67.7195 49.7787 67.4334 49.7007 67.1711 49.569C66.9087 49.4372 66.6753 49.2543 66.4846 49.0311C65.3611 47.7753 62.9082 46.828 60.7822 46.828C58.6562 46.828 56.2034 47.7753 55.0798 49.0311C54.6862 49.451 54.144 49.7003 53.569 49.7255C52.9941 49.7508 52.432 49.5501 52.0032 49.1663C51.5743 48.7825 51.3126 48.2462 51.2741 47.6719C51.2356 47.0977 51.4233 46.5312 51.7971 46.0936C53.7616 43.8905 57.3747 42.4217 60.7822 42.4217C64.1897 42.4217 67.8028 43.8905 69.7673 46.0936ZM40.0471 49.0311C40.2378 49.2543 40.4712 49.4372 40.7336 49.569C40.9959 49.7007 41.282 49.7787 41.5749 49.7984C41.8679 49.818 42.1618 49.7789 42.4394 49.6834C42.717 49.5878 42.9727 49.4377 43.1915 49.2419C43.4102 49.0462 43.5877 48.8086 43.7134 48.5433C43.839 48.278 43.9104 47.9902 43.9233 47.6969C43.9362 47.4036 43.8903 47.1107 43.7884 46.8353C43.6865 46.56 43.5306 46.3078 43.3298 46.0936C41.3654 43.8905 37.7522 42.4217 34.3447 42.4217C30.9372 42.4217 27.3241 43.8905 25.3596 46.0936C25.1589 46.3078 25.003 46.56 24.901 46.8353C24.7991 47.1107 24.7532 47.4036 24.7661 47.6969C24.779 47.9902 24.8504 48.278 24.9761 48.5433C25.1018 48.8086 25.2792 49.0462 25.498 49.2419C25.7168 49.4377 25.9725 49.5878 26.2501 49.6834C26.5277 49.7789 26.8216 49.818 27.1145 49.7984C27.4075 49.7787 27.6935 49.7007 27.9559 49.569C28.2182 49.4372 28.4516 49.2543 28.6423 49.0311C29.7659 47.7753 32.2187 46.828 34.3447 46.828C36.4707 46.828 38.9236 47.7753 40.0471 49.0311ZM61.6121 60.5718C61.392 60.384 61.137 60.2413 60.8618 60.152C60.5865 60.0627 60.2964 60.0285 60.0079 60.0513C59.7194 60.0742 59.4383 60.1536 59.1805 60.2851C58.9228 60.4167 58.6935 60.5977 58.5057 60.8178C57.1653 62.4163 55.4911 63.7017 53.6006 64.5836C51.7102 65.4655 49.6495 65.9225 47.5635 65.9225C45.4774 65.9225 43.4167 65.4655 41.5263 64.5836C39.6359 63.7017 37.9616 62.4163 36.6213 60.8178C36.4335 60.5977 36.2041 60.4167 35.9464 60.2852C35.6886 60.1537 35.4075 60.0743 35.119 60.0515C34.8306 60.0286 34.5404 60.0628 34.2652 60.1521C33.99 60.2414 33.735 60.384 33.5149 60.5718C33.2948 60.7596 33.1138 60.989 32.9823 61.2467C32.8508 61.5045 32.7714 61.7856 32.7485 62.0741C32.7257 62.3625 32.7599 62.6527 32.8491 62.9279C32.9384 63.2031 33.081 63.4581 33.2689 63.6782C35.0232 65.761 37.2116 67.4353 39.6808 68.5839C42.1499 69.7324 44.8402 70.3275 47.5635 70.3275C50.2867 70.3275 52.977 69.7324 55.4462 68.5839C57.9154 67.4353 60.1037 65.761 61.8581 63.6782C62.0459 63.4581 62.1886 63.2032 62.2779 62.9279C62.3672 62.6527 62.4014 62.3625 62.3786 62.0741C62.3557 61.7856 62.2763 61.5044 62.1447 61.2467C62.0132 60.9889 61.8322 60.7596 61.6121 60.5718ZM82.0791 18.1874V38.6654C82.0791 51.6822 78.5798 63.9499 72.2275 73.2031C65.7025 82.7169 56.9414 87.953 47.5635 87.953C38.1855 87.953 29.4244 82.7169 22.8995 73.2067C16.5471 63.9536 13.0479 51.6859 13.0479 38.6691L13.0479 18.1874C13.051 17.3536 13.257 16.5331 13.6479 15.7967C14.0388 15.0603 14.603 14.43 15.2918 13.9602C15.9806 13.4904 16.7734 13.1952 17.6017 13.1C18.43 13.0048 19.269 13.1126 20.0464 13.4139C25.2568 15.4188 35.7621 18.8116 47.5635 18.8116C59.3649 18.8116 69.8701 15.4188 75.0805 13.4139C75.8579 13.1126 76.6969 13.0048 77.5253 13.1C78.3536 13.1952 79.1463 13.4904 79.8351 13.9602C80.5239 14.43 81.0881 15.0603 81.479 15.7967C81.87 16.5331 82.0759 17.3536 82.0791 18.1874ZM77.6728 18.1874C77.6734 18.0674 77.6446 17.9491 77.5889 17.8429C77.5333 17.7366 77.4524 17.6456 77.3534 17.5778C77.2559 17.5087 77.1424 17.4654 77.0237 17.4519C76.9049 17.4385 76.7846 17.4552 76.6741 17.5007C71.1773 19.6561 60.0846 23.2178 47.5635 23.2178C35.0424 23.2178 23.9496 19.6561 18.4529 17.5044C18.3419 17.4612 18.222 17.4457 18.1037 17.4591C17.9853 17.4725 17.872 17.5145 17.7736 17.5815C17.6751 17.6489 17.5945 17.7393 17.5389 17.8449C17.4832 17.9505 17.4541 18.068 17.4541 18.1874V38.6617C17.4541 63.4138 30.9629 83.5467 47.5635 83.5467C64.164 83.5467 77.6728 63.4138 77.6728 38.6691V18.1874Z" fill="white" stroke="white"/>
</svg>
