<svg width="28" height="28" viewBox="0 0 28 28" fill="none" xmlns="http://www.w3.org/2000/svg">
<g id="Icon" opacity="0.6" clip-path="url(#clip0_29_27877)">
<path id="Vector 7 (Stroke)" fill-rule="evenodd" clip-rule="evenodd" d="M22.8595 8.40364C23.2249 9.04301 23.0027 9.85747 22.3634 10.2228L15.1992 14.3164L19.0993 21.653C19.4449 22.3032 19.198 23.1105 18.5478 23.4561C17.8976 23.8018 17.0903 23.5549 16.7446 22.9047L12.8828 15.64L6.28046 19.4125C5.6411 19.7779 4.82663 19.5557 4.4613 18.9164C4.09597 18.277 4.31811 17.4625 4.95748 17.0972L11.6305 13.2842L7.88823 6.2444C7.54258 5.59419 7.78949 4.78688 8.4397 4.44123C9.08992 4.09558 9.89723 4.34248 10.2429 4.9927L13.947 11.9606L21.0404 7.90746C21.6797 7.54213 22.4942 7.76428 22.8595 8.40364Z" fill="white"/>
</g>
<defs>
<clipPath id="clip0_29_27877">
<rect width="20" height="20" fill="white" transform="translate(10) rotate(30)"/>
</clipPath>
</defs>
</svg>
