<svg width="96" height="96" viewBox="0 0 96 96" fill="none" xmlns="http://www.w3.org/2000/svg">
<path d="M81.023 40.9454H27.3109L78.4254 27.4524C78.6149 27.4025 78.7927 27.3155 78.9484 27.1965C79.1041 27.0775 79.2347 26.9288 79.3327 26.7591C79.4307 26.5893 79.4941 26.4019 79.5193 26.2075C79.5444 26.0131 79.5308 25.8157 79.4793 25.6266L76.4511 14.4938C76.1379 13.3736 75.396 12.4219 74.3861 11.8447C73.3762 11.2675 72.1796 11.1114 71.0554 11.41L14.5342 26.328C13.9712 26.4736 13.4429 26.7302 12.9803 27.0826C12.5177 27.4349 12.13 27.8761 11.84 28.3801C11.5543 28.8724 11.3691 29.4165 11.2952 29.9809C11.2213 30.5453 11.2602 31.1188 11.4095 31.668L14.2558 42.1292C14.2354 42.228 14.2255 42.3288 14.2261 42.4297V75.086C14.2261 76.267 14.6953 77.3997 15.5304 78.2348C16.3656 79.0699 17.4982 79.5391 18.6793 79.5391H78.0543C79.2353 79.5391 80.368 79.0699 81.2031 78.2348C82.0382 77.3997 82.5074 76.267 82.5074 75.086V42.4297C82.5074 42.0361 82.351 41.6585 82.0726 41.3801C81.7943 41.1018 81.4167 40.9454 81.023 40.9454ZM47.6246 20.6577L61.7262 28.792L43.9433 33.4864L29.8566 25.3594L47.6246 20.6577ZM71.8051 14.2749C71.9262 14.2432 72.0509 14.227 72.1762 14.2266C72.4957 14.2175 72.8093 14.3151 73.0673 14.5039C73.3253 14.6927 73.5131 14.962 73.6012 15.2694L76.2359 24.9624L65.8082 27.7159L51.7066 19.5815L71.8051 14.2749ZM14.3969 29.8608C14.492 29.6968 14.6187 29.5533 14.7696 29.4386C14.9206 29.324 15.0928 29.2404 15.2763 29.1928L25.7672 26.4245L39.8687 34.5551L16.9166 40.6188L14.2744 30.9036C14.2273 30.7299 14.2152 30.5486 14.2388 30.3703C14.2624 30.1919 14.3211 30.02 14.4117 29.8645L14.3969 29.8608ZM79.5387 75.086C79.5387 75.4797 79.3823 75.8572 79.1039 76.1356C78.8255 76.414 78.448 76.5704 78.0543 76.5704H18.6793C18.2856 76.5704 17.908 76.414 17.6297 76.1356C17.3513 75.8572 17.1949 75.4797 17.1949 75.086V43.9141H79.5387V75.086Z" fill="white" stroke="white"/>
</svg>
