<svg width="122" height="50" viewBox="0 0 122 50" fill="none" xmlns="http://www.w3.org/2000/svg">
<path d="M120.271 9.01904C120.819 9.07974 121.313 8.68373 121.374 8.13452C121.435 7.58531 121.04 7.09088 120.491 7.03018L120.271 9.01904ZM65.8543 26.1524L64.9104 25.8238L65.8543 26.1524ZM84.6125 44.7666L85.2459 45.5402L84.6125 44.7666ZM4.45649 31.6882C4.68365 32.1917 5.27565 32.4154 5.77876 32.1879L13.9774 28.4793C14.4805 28.2517 14.7042 27.659 14.4771 27.1555C14.2499 26.652 13.6579 26.4283 13.1548 26.6559L5.86711 29.9524L2.57669 22.6589C2.34953 22.1554 1.75753 21.9317 1.25442 22.1593C0.751312 22.3868 0.527609 22.9795 0.754767 23.483L4.45649 31.6882ZM120.491 7.03018C111.867 6.07601 99.34 7.07948 88.3398 10.1028C82.8355 11.6156 77.6656 13.6468 73.5391 16.2257C69.4239 18.7976 66.2482 21.9767 64.9104 25.8238L66.7983 26.4809C67.9258 23.2387 70.6776 20.3726 74.5973 17.9229C78.5058 15.4803 83.4781 13.5138 88.8684 12.0323C99.6571 9.06715 111.929 8.09611 120.271 9.01904L120.491 7.03018ZM64.9104 25.8238C61.3583 36.0387 63.5253 43.2633 68.3271 46.7936C73.0713 50.2815 80.0003 49.8443 85.2459 45.5402L83.979 43.9929C79.3234 47.813 73.4047 48.0435 69.5109 45.1807C65.6745 42.3602 63.4132 36.2157 66.7983 26.4809L64.9104 25.8238ZM85.2459 45.5402C90.4854 41.2411 93.3675 34.0359 90.5737 26.2066C87.7988 18.4303 79.5108 10.2749 62.9734 3.71135L62.2359 5.57149C78.5275 12.0375 86.1941 19.8825 88.6912 26.8804C91.1694 33.8252 88.6408 40.1678 83.979 43.9929L85.2459 45.5402ZM62.9734 3.71135C46.2402 -2.92993 32.9331 0.201235 23.1378 6.8807C13.398 13.5223 7.18637 23.6269 4.43247 30.9229L6.30244 31.6295C8.94888 24.6182 14.9414 14.8906 24.2628 8.53427C33.5288 2.21578 46.1402 -0.816801 62.2359 5.57149L62.9734 3.71135Z" fill="#20193F"/>
</svg>
