<svg width="80" height="98" viewBox="0 0 80 98" fill="none" xmlns="http://www.w3.org/2000/svg">
<path d="M24.6867 29.7992C23.3753 32.1431 23.9358 35.4285 25.8524 36.8537C25.4638 34.5023 25.0752 32.1507 24.6867 29.7992ZM36.0577 72.0195H19.165V24.0959C26.2083 30.154 26.9644 29.9296 25.559 41.8544C24.6179 41.2852 23.6697 40.7116 22.7214 40.138C22.5039 40.2975 22.2863 40.4571 22.0688 40.6167C22.5288 43.1011 22.7078 45.739 23.5141 48.0341C24.742 51.5288 25.5274 55.4166 28.1415 57.9758C28.5281 58.3544 28.7182 59.3911 28.6561 60.0748C28.436 62.5016 29.2816 64.2691 30.6287 65.8102C32.3157 67.7401 34.003 69.6696 36.0577 72.0195Z" fill="white"/>
<path d="M19.1035 5.84149C21.8123 6.8412 24.5307 7.84448 27.249 8.8477C27.3649 8.60295 27.4808 8.35821 27.5967 8.11346C25.1079 6.21904 24.4855 3.46391 25.0034 -0.00193787H55.4237V12.875C54.9724 11.241 54.6284 9.87957 54.2224 8.54764C53.0721 4.77451 51.5749 3.34456 48.3947 3.97215C44.4898 4.74273 40.6729 6.18543 36.7791 7.07221C32.9541 7.94334 29.0946 8.73323 25.2228 9.07253C22.8893 9.27705 20.6847 8.07966 19.1035 5.84149Z" fill="white"/>
<path d="M55.4624 72.0909C53.0753 72.0909 50.9006 72.1315 48.7286 72.0543C48.3276 72.04 47.7071 71.6626 47.5799 71.2601C46.7656 68.683 46.3987 66.105 47.5256 63.4253C48.2344 61.7394 48.6252 59.85 49.222 58.0852C49.9345 55.9788 50.7124 53.9068 51.4666 51.8225C51.7056 51.162 51.9593 50.5099 52.2063 49.8539C51.5809 49.649 50.9623 49.3436 50.3275 49.2762C49.9371 49.2347 49.5219 49.5569 49.037 49.7476C51.2632 45.8146 53.4301 41.9865 55.4624 38.3962V72.0909Z" fill="white"/>
<path d="M28.9355 49.8866C30.3988 49.3692 31.5221 48.972 32.5948 48.5926C32.4678 49.4753 32.3347 50.4004 32.1765 51.5001C31.7582 51.3136 31.2294 51.0779 30.7007 50.8423C30.6427 50.9235 30.5846 51.0048 30.5266 51.086C31.7399 52.0619 32.9504 53.0433 34.1686 54.0098C34.48 54.2568 34.8703 54.3835 35.1316 54.6889C37.7132 57.7057 38.3074 57.9488 41.4294 55.9783C43.5711 54.6266 45.5561 52.8888 47.7609 51.2094C46.0271 55.0092 44.4304 58.6489 40.4215 59.0337C34.7852 59.5747 32.0802 54.6036 28.9355 49.8866Z" fill="white"/>
<path d="M23.86 25.8733C24.4348 26.291 25.083 26.6055 25.5718 27.1447C27.5805 29.3606 29.6394 29.4068 32.0827 28.1252C35.4082 26.3808 38.6056 26.8065 41.593 30.6232C40.7792 30.4639 40.3485 30.3999 39.9247 30.2934C36.835 29.517 33.7508 29.4341 30.7251 30.6478C28.5731 31.5111 26.8713 31.0541 25.5486 28.6251C25.0386 27.6884 24.2955 26.949 23.6587 26.1197L23.86 25.8733Z" fill="white"/>
<path d="M31.9155 32.4298H41.1302C40.3617 34.695 39.0983 35.5124 37.6147 35.7386C35.4372 36.0707 33.6907 34.9854 31.9155 32.4298Z" fill="white"/>
<path d="M49.3728 55.3334C48.4306 58.2304 47.3211 61.0652 46.6096 64.0477C46.1892 65.8101 46.3669 67.8056 46.3433 69.6976C46.3362 70.2723 46.5549 70.8514 46.7243 71.6992C44.5117 68.9206 44.1719 65.7894 45.5449 62.9183C46.1757 61.5993 46.7053 60.2039 47.2603 58.8302C47.78 57.5438 48.2727 56.2404 48.7772 54.9445C48.9757 55.0741 49.1742 55.2038 49.3728 55.3334Z" fill="white"/>
<path d="M40.1529 71.9983C38.272 72.6668 37.0177 72.2216 35.9255 70.5733C34.5608 68.514 33.038 66.6176 31.5835 64.6508C31.7007 64.4778 31.818 64.3049 31.9352 64.1318C34.5942 66.6772 37.2532 69.2226 40.1529 71.9983Z" fill="white"/>
<path d="M21.2407 0.0413072C20.6868 0.889041 19.9675 1.98996 19.1162 3.29297V0.0413072H21.2407Z" fill="white"/>
<path d="M32.4527 62.3867C29.1046 61.0684 29.1046 61.0684 29.1838 59.0601C30.3892 60.2868 31.4209 61.3368 32.4527 62.3867Z" fill="white"/>
<path d="M24.6871 29.7971C25.0757 32.1486 25.4642 34.5001 25.8528 36.8516C23.9363 35.4263 23.3757 32.1409 24.6871 29.7971Z" fill="white"/>
<path d="M12.767 93.0019C12.9283 93.0385 13.1628 93.0476 13.412 93.0476C14.7752 93.0476 15.5154 92.0969 15.5154 90.4332C15.5228 88.9796 14.8631 88.0564 13.5146 88.0564C13.1848 88.0564 12.9356 88.0929 12.767 88.1387V93.0019ZM12.1294 87.5536C12.5179 87.4805 12.9796 87.4256 13.4853 87.4256C14.4014 87.4256 15.0537 87.6907 15.4861 88.1935C15.9258 88.6963 16.1824 89.4093 16.1824 90.4057C16.1824 91.4113 15.9332 92.234 15.4715 92.8008C15.0097 93.3767 14.2475 93.6875 13.2874 93.6875C12.833 93.6875 12.4519 93.6601 12.1294 93.6144V87.5536Z" fill="white"/>
<path d="M19.2673 90.9894C19.2746 90.4774 19.0987 89.6821 18.3731 89.6821C17.7208 89.6821 17.435 90.4317 17.3837 90.9894H19.2673ZM17.3764 91.5653C17.3911 92.6531 17.948 93.101 18.593 93.101C19.0548 93.101 19.3332 93.0005 19.5751 92.8725L19.685 93.4484C19.4578 93.5764 19.0694 93.7227 18.5051 93.7227C17.413 93.7227 16.7607 92.8268 16.7607 91.4921C16.7607 90.1575 17.3911 89.1062 18.4244 89.1062C19.5824 89.1062 19.8902 90.3769 19.8902 91.1905C19.8902 91.355 19.8756 91.483 19.8682 91.5653H17.3764Z" fill="white"/>
<path d="M20.689 90.4059C20.689 89.9488 20.6817 89.574 20.6597 89.2084H21.2313L21.268 89.9397H21.2826C21.4585 89.5192 21.8689 89.1078 22.4553 89.1078C22.9464 89.1078 23.7085 89.4734 23.7085 90.9909V93.6328H23.0636V91.0823C23.0636 90.3693 22.851 89.7751 22.2428 89.7751C21.8176 89.7751 21.4879 90.1499 21.3779 90.5979C21.3486 90.6984 21.334 90.8355 21.334 90.9727V93.6328H20.689V90.4059Z" fill="white"/>
<path d="M24.7564 89.2084H25.4014V93.6328H24.7564V89.2084ZM25.4747 87.9651C25.482 88.2394 25.3207 88.4587 25.0642 88.4587C24.837 88.4587 24.6758 88.2394 24.6758 87.9651C24.6758 87.6818 24.8443 87.4623 25.0789 87.4623C25.3208 87.4623 25.4747 87.6818 25.4747 87.9651Z" fill="white"/>
<path d="M26.3834 92.8085C26.5739 92.9639 26.9111 93.1284 27.2336 93.1284C27.7026 93.1284 27.9225 92.8359 27.9225 92.4703C27.9225 92.0863 27.7393 91.8761 27.2629 91.6567C26.6252 91.3733 26.3248 90.9345 26.3248 90.4043C26.3248 89.6913 26.7865 89.1062 27.5487 89.1062C27.9079 89.1062 28.223 89.2342 28.4209 89.3805L28.2596 89.9656C28.1204 89.8558 27.8639 89.7096 27.5341 89.7096C27.153 89.7096 26.9404 89.9838 26.9404 90.3129C26.9404 90.6785 27.153 90.8431 27.6147 91.0625C28.2303 91.355 28.5455 91.739 28.5455 92.3971C28.5455 93.1742 28.0618 93.7227 27.2189 93.7227C26.8305 93.7227 26.4713 93.6038 26.2222 93.421L26.3834 92.8085Z" fill="white"/>
<path d="M30.8609 92.6622C31.1468 92.8817 31.5645 93.0645 32.0043 93.0645C32.6566 93.0645 33.0377 92.6348 33.0377 92.0132C33.0377 91.4373 32.7738 91.1082 32.1069 90.7882C31.3007 90.4318 30.8023 89.9107 30.8023 89.0422C30.8023 88.0824 31.4399 87.3693 32.4001 87.3693C32.9057 87.3693 33.2722 87.5156 33.4921 87.671L33.3162 88.3201C33.1549 88.2104 32.8251 88.0275 32.3781 88.0275C31.7038 88.0275 31.4473 88.5303 31.4473 88.9508C31.4473 89.5267 31.7478 89.8101 32.4293 90.1392C33.2648 90.5415 33.6899 91.0442 33.6899 91.9492C33.6899 92.8999 33.1256 93.7227 31.9603 93.7227C31.4839 93.7227 30.9635 93.549 30.6997 93.3296L30.8609 92.6622Z" fill="white"/>
<path d="M34.54 87.1424H35.185V89.9031H35.1997C35.3023 89.6746 35.4635 89.4735 35.6614 89.3363C35.852 89.1992 36.0792 89.1078 36.321 89.1078C36.7974 89.1078 37.5596 89.4735 37.5596 91.0001V93.6328H36.9147V91.0915C36.9147 90.3785 36.7021 89.7751 36.0938 89.7751C35.676 89.7751 35.3462 90.1408 35.229 90.5796C35.1923 90.6893 35.185 90.8081 35.185 90.9636V93.6328H34.54V87.1424Z" fill="white"/>
<path d="M40.8576 90.9894C40.8649 90.4774 40.6891 89.6821 39.9635 89.6821C39.3112 89.6821 39.0254 90.4317 38.9741 90.9894H40.8576ZM38.9667 91.5653C38.9814 92.6531 39.5384 93.101 40.1833 93.101C40.6451 93.101 40.9236 93.0005 41.1654 92.8725L41.2754 93.4484C41.0482 93.5764 40.6597 93.7227 40.0954 93.7227C39.0034 93.7227 38.3511 92.8268 38.3511 91.4921C38.3511 90.1575 38.9814 89.1062 40.0148 89.1062C41.1728 89.1062 41.4806 90.3769 41.4806 91.1905C41.4806 91.355 41.4659 91.483 41.4586 91.5653H38.9667Z" fill="white"/>
<path d="M42.5283 89.2084L43.2246 91.6948C43.3418 92.0971 43.4371 92.4627 43.5104 92.8284H43.5324C43.613 92.4627 43.7156 92.0971 43.8329 91.6948L44.5218 89.2084H45.1961L43.8035 93.6328H43.1879L41.8394 89.2084H42.5283Z" fill="white"/>
<path d="M48.2596 93.4667C48.0911 93.5764 47.7173 93.7227 47.2409 93.7227C46.1709 93.7227 45.4746 92.8176 45.4746 91.4647C45.4746 90.1026 46.2222 89.1154 47.3802 89.1154C47.7613 89.1154 48.0984 89.2342 48.2743 89.3439L48.1277 89.9655C47.9738 89.8558 47.7319 89.7553 47.3802 89.7553C46.5666 89.7553 46.1269 90.5048 46.1269 91.4282C46.1269 92.452 46.6546 93.0828 47.3582 93.0828C47.7246 93.0828 47.9665 92.9639 48.1497 92.8634L48.2596 93.4667Z" fill="white"/>
<path d="M49.0142 87.1424H49.6591V89.9031H49.6738C49.7764 89.6746 49.9376 89.4735 50.1355 89.3363C50.3261 89.1992 50.5533 89.1078 50.7951 89.1078C51.2715 89.1078 52.0337 89.4735 52.0337 91.0001V93.6328H51.3888V91.0915C51.3888 90.3785 51.1762 89.7751 50.5679 89.7751C50.1502 89.7751 49.8204 90.1408 49.7031 90.5796C49.6665 90.6893 49.6591 90.8081 49.6591 90.9636V93.6328H49.0142V87.1424Z" fill="white"/>
<path d="M55.3317 90.9894C55.3391 90.4774 55.1632 89.6821 54.4376 89.6821C53.7853 89.6821 53.4995 90.4317 53.4482 90.9894H55.3317ZM53.4408 91.5653C53.4555 92.6531 54.0125 93.101 54.6575 93.101C55.1192 93.101 55.3977 93.0005 55.6395 92.8725L55.7495 93.4484C55.5223 93.5764 55.1338 93.7227 54.5695 93.7227C53.4775 93.7227 52.8252 92.8268 52.8252 91.4921C52.8252 90.1575 53.4555 89.1062 54.4889 89.1062C55.6469 89.1062 55.9547 90.3769 55.9547 91.1905C55.9547 91.355 55.9401 91.483 55.9327 91.5653H53.4408Z" fill="white"/>
<path d="M56.7534 90.4059C56.7534 89.9488 56.7461 89.574 56.7241 89.2084H57.2958L57.3324 89.9397H57.3471C57.523 89.5192 57.9334 89.1078 58.5197 89.1078C59.0108 89.1078 59.773 89.4734 59.773 90.9909V93.6328H59.128V91.0823C59.128 90.3693 58.9155 89.7751 58.3072 89.7751C57.8821 89.7751 57.5523 90.1499 57.4423 90.5979C57.413 90.6984 57.3984 90.8355 57.3984 90.9727V93.6328H56.7534V90.4059Z" fill="white"/>
<path d="M61.4584 91.2377H61.4731C61.561 91.0823 61.6857 90.8904 61.7882 90.7349L62.829 89.2084H63.6059L62.2353 91.0275L63.7964 93.6328H63.0122L61.7882 91.512L61.4584 91.9691V93.6328H60.8208V87.1424H61.4584V91.2377Z" fill="white"/>
<path d="M64.6538 91.4307C64.6538 92.3997 65.1009 93.131 65.7311 93.131C66.3467 93.131 66.8085 92.4088 66.8085 91.4124C66.8085 90.6628 66.508 89.7121 65.7458 89.7121C64.9836 89.7121 64.6538 90.5897 64.6538 91.4307ZM67.4681 91.385C67.4681 93.0213 66.5593 93.7344 65.7018 93.7344C64.7417 93.7344 64.0015 92.8568 64.0015 91.4581C64.0015 89.9772 64.7783 89.1088 65.7604 89.1088C66.7792 89.1088 67.4681 90.032 67.4681 91.385Z" fill="white"/>
<path d="M3.61856 81.2603L2.79654 78.1953L2.0224 81.2603H3.61856ZM5.96714 84.4609H4.4275L3.92734 82.4592H1.72665L1.22213 84.4609H0L2.24421 76.1285H3.65336L5.96714 84.4609Z" fill="white"/>
<path d="M10.4119 84.0955C10.2611 84.2185 10.0313 84.3342 9.7225 84.4427C9.41372 84.5512 9.15778 84.6055 8.95486 84.6055C7.16007 84.6055 6.2627 83.4933 6.2627 81.2692C6.2627 80.2241 6.49605 79.4094 6.96291 78.8253C7.4297 78.2413 8.0821 77.9492 8.92006 77.9492C9.53474 77.9492 10.0102 78.0957 10.3466 78.3886L10.2161 79.4518C9.94357 79.1843 9.58258 79.0505 9.1332 79.0505C8.243 79.0505 7.79797 79.8009 7.79797 81.3017C7.79797 82.7267 8.1894 83.4391 8.97227 83.4391C9.15778 83.4391 9.38467 83.3976 9.6529 83.3143C9.92106 83.2312 10.119 83.1407 10.2466 83.0431L10.4119 84.0955Z" fill="white"/>
<path d="M14.1308 84.2119C13.8205 84.4144 13.4044 84.5156 12.8825 84.5156C12.3809 84.5156 11.9981 84.3059 11.7343 83.8864C11.4908 83.5031 11.369 82.9913 11.369 82.3512V79.2373H10.6992V78.1198H11.369V77.317L12.7869 76.2537V78.1198H13.8437V79.2373H12.7869V82.4597C12.7869 82.7851 12.8288 83.0184 12.913 83.1595C13.0115 83.3295 13.1855 83.4144 13.4349 83.4144C13.6581 83.4144 13.822 83.3837 13.9263 83.3222L14.1308 84.2119Z" fill="white"/>
<path d="M18.0581 81.2692C18.0581 79.7503 17.6928 78.9908 16.9621 78.9908C16.2372 78.9908 15.8748 79.7503 15.8748 81.2692C15.8748 82.7881 16.2372 83.5476 16.9621 83.5476C17.6928 83.5476 18.0581 82.7881 18.0581 81.2692ZM19.5195 81.2692C19.5195 82.3289 19.3093 83.1444 18.8889 83.7158C18.4539 84.309 17.8146 84.6055 16.9708 84.6055C16.1415 84.6055 15.5036 84.3053 15.0572 83.7049C14.6222 83.1227 14.4048 82.3108 14.4048 81.2692C14.4048 80.2313 14.6222 79.423 15.0572 78.8443C15.5008 78.2476 16.1358 77.9492 16.9621 77.9492C17.7913 77.9492 18.4278 78.2458 18.8714 78.8389C19.3035 79.4176 19.5195 80.2276 19.5195 81.2692Z" fill="white"/>
<path d="M23.3856 79.6491C22.9913 79.6491 22.6593 79.7902 22.3897 80.0723C22.0446 80.434 21.8721 80.9529 21.8721 81.6292V84.4609H20.4673V78.1194H21.8373V79.4376C21.9069 79.0543 22.0562 78.7215 22.2853 78.4394C22.5346 78.1357 22.81 77.9838 23.1116 77.9838C23.2334 77.9838 23.3247 77.9946 23.3856 78.0163V79.6491Z" fill="white"/>
<path d="M27.474 82.5278C27.474 83.2728 27.2449 83.8207 26.7868 84.1715C26.4128 84.4608 25.9083 84.6055 25.2733 84.6055C24.6759 84.6055 24.186 84.4753 23.8032 84.2149L23.9685 83.1679C24.3831 83.4428 24.7818 83.5802 25.1645 83.5802C25.4168 83.5802 25.64 83.5296 25.8343 83.4283C26.0895 83.2945 26.217 83.0865 26.217 82.8044C26.217 82.5114 26.0837 82.2782 25.8169 82.1046C25.7502 82.0612 25.5153 81.9618 25.1124 81.8063C24.6919 81.6435 24.3889 81.4102 24.2034 81.1065C24.0091 80.7918 23.912 80.3651 23.912 79.8262C23.912 79.2042 24.1091 78.7323 24.5034 78.4103C24.8369 78.1391 25.266 78.0035 25.7908 78.0035C26.333 78.0035 26.7969 78.1265 27.1826 78.3723L27.0652 79.3217C26.7636 79.1156 26.362 79.0125 25.8604 79.0125C25.6458 79.0125 25.4617 79.0541 25.3081 79.1373C25.0935 79.2531 24.9862 79.423 24.9862 79.6472C24.9862 79.9004 25.1138 80.0939 25.3689 80.2277C25.3863 80.2385 25.6009 80.3198 26.0126 80.4718C26.5055 80.6562 26.8593 80.8823 27.0739 81.1498C27.3406 81.4826 27.474 81.9419 27.474 82.5278Z" fill="white"/>
<path d="M34.7896 81.9827C34.7896 83.7078 33.9429 84.5703 32.2496 84.5703C31.49 84.5703 30.8376 84.4293 30.2925 84.1472L30.4882 82.8507C30.9695 83.14 31.4682 83.2846 31.9843 83.2846C32.3815 83.2846 32.6671 83.2322 32.8411 83.1273C33.1021 82.9719 33.2325 82.6753 33.2325 82.2376C33.2325 81.8905 33.0687 81.5867 32.7411 81.3263C32.5903 81.2069 32.3076 81.0442 31.893 80.8381C31.3711 80.5777 30.9898 80.2685 30.7492 79.9104C30.4737 79.4981 30.336 78.963 30.336 78.3047C30.336 77.5417 30.6056 76.9539 31.1449 76.5416C31.6001 76.1944 32.1554 76.0208 32.8107 76.0208C33.5036 76.0208 34.0734 76.133 34.5199 76.3572L34.359 77.5778C33.7994 77.397 33.3108 77.3065 32.8933 77.3065C32.1394 77.3065 31.7625 77.5814 31.7625 78.1311C31.7625 78.4999 31.9219 78.8002 32.2409 79.0316C32.2786 79.0606 32.5729 79.1998 33.1238 79.4493C34.2343 79.9557 34.7896 80.8 34.7896 81.9827Z" fill="white"/>
<path d="M38.5863 84.2119C38.276 84.4144 37.86 84.5156 37.3381 84.5156C36.8365 84.5156 36.4537 84.3059 36.1899 83.8864C35.9463 83.5031 35.8246 82.9913 35.8246 82.3512V79.2373H35.1548V78.1198H35.8246V77.317L37.2424 76.2537V78.1198H38.2993V79.2373H37.2424V82.4597C37.2424 82.7851 37.2844 83.0184 37.3686 83.1595C37.4671 83.3295 37.6411 83.4144 37.8904 83.4144C38.1137 83.4144 38.2775 83.3837 38.3819 83.3222L38.5863 84.2119Z" fill="white"/>
<path d="M43.6274 84.462H42.3357L42.2487 83.4747C41.7993 84.2233 41.2136 84.5977 40.4916 84.5977C39.642 84.5977 39.2173 83.916 39.2173 82.5525V78.1205H40.6264V82.3843C40.6264 82.9558 40.8192 83.2415 41.2049 83.2415C41.6514 83.2415 41.9906 83.0408 42.2226 82.6393V78.1205H43.6274V84.462Z" fill="white"/>
<path d="M47.8938 81.2377C47.8938 80.6447 47.8546 80.2089 47.7763 79.9303C47.6459 79.4603 47.3907 79.2251 47.0109 79.2251C46.6078 79.2251 46.3411 79.4566 46.2106 79.9195C46.1381 80.1799 46.1019 80.6193 46.1019 81.2377C46.1019 81.8599 46.1381 82.301 46.2106 82.5614C46.3382 83.0207 46.6049 83.2503 47.0109 83.2503C47.3907 83.2503 47.6459 83.0171 47.7763 82.5505C47.8546 82.2721 47.8938 81.8344 47.8938 81.2377ZM49.2855 84.4601H47.9926L47.9055 83.6138C47.7604 83.8959 47.5587 84.1219 47.3004 84.2919C47.0421 84.4618 46.7766 84.5469 46.5038 84.5469C45.2558 84.5469 44.6318 83.4366 44.6318 81.216C44.6318 80.3626 44.7654 79.6447 45.0325 79.0624C45.3635 78.3428 45.8513 77.9828 46.4958 77.9828C47.1258 77.9828 47.586 78.2831 47.8764 78.8834V76.1276H49.2855V84.4601Z" fill="white"/>
<path d="M52.017 84.4609H50.6035V78.1194H52.017V84.4609ZM52.017 77.4846H50.6035V76.1284H52.017V77.4846Z" fill="white"/>
<path d="M56.627 81.2692C56.627 79.7503 56.2616 78.9908 55.531 78.9908C54.8061 78.9908 54.4437 79.7503 54.4437 81.2692C54.4437 82.7881 54.8061 83.5476 55.531 83.5476C56.2616 83.5476 56.627 82.7881 56.627 81.2692ZM58.0883 81.2692C58.0883 82.3289 57.8781 83.1444 57.4577 83.7158C57.0228 84.309 56.3835 84.6055 55.5397 84.6055C54.7104 84.6055 54.0725 84.3053 53.626 83.7049C53.1911 83.1227 52.9736 82.3108 52.9736 81.2692C52.9736 80.2313 53.1911 79.423 53.626 78.8443C54.0697 78.2476 54.7046 77.9492 55.531 77.9492C56.3602 77.9492 56.9967 78.2458 57.4403 78.8389C57.8723 79.4176 58.0883 80.2276 58.0883 81.2692Z" fill="white"/>
<path d="M66.6044 84.4609H64.9777L63.312 80.8697L62.7509 81.7377V84.4609H61.2461V76.1285H62.7509V79.6383L64.8516 76.1285H66.3304L64.247 79.3508L66.6044 84.4609Z" fill="white"/>
<path d="M68.6308 84.4609H67.2173V78.1194H68.6308V84.4609ZM68.6308 77.4846H67.2173V76.1284H68.6308V77.4846Z" fill="white"/>
<path d="M73.0675 80.7159C73.0153 79.5441 72.6891 78.9582 72.0889 78.9582C71.4627 78.9582 71.1277 79.5441 71.0843 80.7159H73.0675ZM74.3766 81.6272H71.0712C71.0712 82.8713 71.5177 83.4933 72.4108 83.4933C72.8776 83.4933 73.3748 83.3433 73.9026 83.0431L74.12 83.9979C73.543 84.4029 72.8921 84.6055 72.1672 84.6055C71.3496 84.6055 70.7233 84.3089 70.2884 83.7158C69.8679 83.1444 69.6577 82.3433 69.6577 81.3126C69.6577 80.3072 69.8578 79.5061 70.2579 78.9094C70.687 78.2693 71.2974 77.9492 72.0889 77.9492C72.8544 77.9492 73.4329 78.2295 73.8243 78.7901C74.1925 79.3217 74.3766 80.0703 74.3766 81.0359V81.6272Z" fill="white"/>
<path d="M80.0002 78.1194L77.8082 84.4609H76.7774L74.7202 78.1194H76.2511L77.4994 82.2856L78.8781 78.1194H80.0002Z" fill="white"/>
<path fill-rule="evenodd" clip-rule="evenodd" d="M67.7859 96.1249H11.873V98H67.7859V96.1249Z" fill="white"/>
</svg>
