<svg width="935" height="209" viewBox="0 0 935 209" fill="none" xmlns="http://www.w3.org/2000/svg">
<path d="M88.2793 208.712H119.469C119.469 197.171 121.653 186.255 125.707 176.17C122.068 163.486 116.766 151.738 109.281 141.029C96.0768 160.367 88.2793 183.656 88.2793 208.712Z" fill="#2127C6"/>
<path d="M207.944 89.0459C167.085 89.0459 130.904 109.631 109.279 141.029C116.661 151.738 122.067 163.486 125.706 176.17C138.702 143.42 170.62 120.236 207.944 120.236V89.0459Z" fill="#252EFF"/>
<path d="M0 89V120.277C48.4891 120.277 87.9835 160.103 87.9835 209H119C119 142.901 65.5482 89 0 89Z" fill="#1DD5C5"/>
<path d="M119.469 0.674805H88.2793C88.2793 26.2506 96.3887 50.0589 110.112 69.5007C116.766 58.0643 122.068 46.2122 126.019 33.9441C121.757 23.6514 119.469 12.423 119.469 0.674805Z" fill="#C6005D"/>
<path d="M207.944 89.1506C170.932 89.1506 139.222 66.2779 126.018 33.9443C122.067 46.2124 116.765 58.0646 110.111 69.5009C131.84 100.171 167.605 120.341 207.944 120.341V89.1506Z" fill="#FE0078"/>
<path d="M87.9835 1C87.9835 49.4891 48.4891 88.9835 0 88.9835V120C65.6516 120 119 66.6516 119 1H87.9835Z" fill="#FECB00"/>
<path d="M119 158C119.333 158.632 119.667 159.368 120 160C119.667 159.368 119.333 158.737 119 158Z" fill="#2127C6"/>
<path d="M249.118 103.599C249.118 94.9489 251.05 87.2224 254.913 80.4197C258.86 73.5331 264.193 68.2001 270.912 64.4209C277.714 60.5577 285.315 58.626 293.713 58.626C303.539 58.626 312.148 61.1455 319.538 66.1845C326.929 71.2235 332.094 78.1942 335.033 87.0964H314.751C312.736 82.8972 309.88 79.7479 306.185 77.6483C302.574 75.5487 298.374 74.4989 293.587 74.4989C288.464 74.4989 283.887 75.7167 279.856 78.1522C275.909 80.5037 272.801 83.863 270.534 88.2302C268.35 92.5973 267.259 97.7203 267.259 103.599C267.259 109.394 268.35 114.517 270.534 118.968C272.801 123.335 275.909 126.737 279.856 129.172C283.887 131.524 288.464 132.699 293.587 132.699C298.374 132.699 302.574 131.65 306.185 129.55C309.88 127.366 312.736 124.175 314.751 119.976H335.033C332.094 128.962 326.929 135.975 319.538 141.014C312.232 145.969 303.623 148.446 293.713 148.446C285.315 148.446 277.714 146.557 270.912 142.777C264.193 138.914 258.86 133.581 254.913 126.779C251.05 119.976 249.118 112.249 249.118 103.599ZM390.913 148.572C382.683 148.572 375.124 146.641 368.237 142.777C361.351 138.914 355.892 133.581 351.861 126.779C347.829 119.892 345.814 112.123 345.814 103.473C345.814 94.9069 347.829 87.2224 351.861 80.4197C355.892 73.5331 361.351 68.1581 368.237 64.2949C375.124 60.4317 382.683 58.5001 390.913 58.5001C399.227 58.5001 406.786 60.4317 413.588 64.2949C420.475 68.1581 425.892 73.5331 429.839 80.4197C433.87 87.2224 435.886 94.9069 435.886 103.473C435.886 112.123 433.87 119.892 429.839 126.779C425.892 133.581 420.475 138.914 413.588 142.777C406.702 146.641 399.143 148.572 390.913 148.572ZM390.913 132.825C396.204 132.825 400.865 131.65 404.896 129.298C408.927 126.863 412.077 123.419 414.344 118.968C416.612 114.517 417.746 109.352 417.746 103.473C417.746 97.5943 416.612 92.4713 414.344 88.1042C412.077 83.6531 408.927 80.2518 404.896 77.9002C400.865 75.5487 396.204 74.3729 390.913 74.3729C385.622 74.3729 380.919 75.5487 376.804 77.9002C372.773 80.2518 369.623 83.6531 367.356 88.1042C365.088 92.4713 363.954 97.5943 363.954 103.473C363.954 109.352 365.088 114.517 367.356 118.968C369.623 123.419 372.773 126.863 376.804 129.298C380.919 131.65 385.622 132.825 390.913 132.825ZM479.745 59.7598C488.983 59.7598 497.088 61.5655 504.058 65.1767C511.113 68.788 516.53 73.953 520.309 80.6717C524.172 87.3064 526.104 95.0328 526.104 103.851C526.104 112.669 524.172 120.396 520.309 127.031C516.53 133.581 511.113 138.662 504.058 142.274C497.088 145.885 488.983 147.69 479.745 147.69H449.007V59.7598H479.745ZM479.115 132.699C488.353 132.699 495.492 130.18 500.531 125.141C505.57 120.102 508.089 113.005 508.089 103.851C508.089 94.6969 505.57 87.5583 500.531 82.4353C495.492 77.2284 488.353 74.6249 479.115 74.6249H466.644V132.699H479.115ZM556.942 73.995V96.0406H586.546V110.024H556.942V133.329H590.326V147.69H539.306V59.6338H590.326V73.995H556.942ZM602.07 103.599C602.07 94.9489 604.001 87.2224 607.865 80.4197C611.812 73.5331 617.145 68.2001 623.864 64.4209C630.666 60.5577 638.267 58.626 646.665 58.626C656.491 58.626 665.099 61.1455 672.49 66.1845C679.88 71.2235 685.045 78.1942 687.985 87.0964H667.703C665.687 82.8972 662.832 79.7479 659.137 77.6483C655.525 75.5487 651.326 74.4989 646.539 74.4989C641.416 74.4989 636.839 75.7167 632.808 78.1522C628.861 80.5037 625.753 83.863 623.486 88.2302C621.302 92.5973 620.21 97.7203 620.21 103.599C620.21 109.394 621.302 114.517 623.486 118.968C625.753 123.335 628.861 126.737 632.808 129.172C636.839 131.524 641.416 132.699 646.539 132.699C651.326 132.699 655.525 131.65 659.137 129.55C662.832 127.366 665.687 124.175 667.703 119.976H687.985C685.045 128.962 679.88 135.975 672.49 141.014C665.183 145.969 656.575 148.446 646.665 148.446C638.267 148.446 630.666 146.557 623.864 142.777C617.145 138.914 611.812 133.581 607.865 126.779C604.001 119.976 602.07 112.249 602.07 103.599ZM720.685 133.707H749.66V147.69H703.049V59.7598H720.685V133.707ZM814.787 130.936H779.766L773.971 147.69H755.452L787.072 59.6338H807.606L839.226 147.69H820.582L814.787 130.936ZM810 116.827L797.276 80.0418L784.553 116.827H810ZM881.783 59.7598C891.021 59.7598 899.125 61.5655 906.096 65.1767C913.151 68.788 918.567 73.953 922.347 80.6717C926.21 87.3064 928.142 95.0328 928.142 103.851C928.142 112.669 926.21 120.396 922.347 127.031C918.567 133.581 913.151 138.662 906.096 142.274C899.125 145.885 891.021 147.69 881.783 147.69H851.045V59.7598H881.783ZM881.153 132.699C890.391 132.699 897.53 130.18 902.569 125.141C907.608 120.102 910.127 113.005 910.127 103.851C910.127 94.6969 907.608 87.5583 902.569 82.4353C897.53 77.2284 890.391 74.6249 881.153 74.6249H868.681V132.699H881.153Z" fill="white"/>
</svg>
