<svg width="59" height="60" viewBox="0 0 59 60" fill="none" xmlns="http://www.w3.org/2000/svg">
<g id="Logo">
<g id="g14">
<g id="g182">
<g id="Group 6">
<path id="path22" d="M18.2009 18.6428C17.234 20.0297 17.6473 21.9737 19.0603 22.817C18.7738 21.4256 18.4873 20.0342 18.2009 18.6428ZM26.5844 43.625H14.1299V15.2681C19.3227 18.8528 19.8802 18.72 18.844 25.776C18.1502 25.4392 17.451 25.0998 16.7519 24.7604C16.5915 24.8548 16.4311 24.9492 16.2708 25.0436C16.6099 26.5137 16.7419 28.0746 17.3364 29.4326C18.2416 31.5004 18.8207 33.8009 20.748 35.3152C21.0331 35.5392 21.1732 36.1526 21.1274 36.5572C20.9652 37.9931 21.5886 39.039 22.5817 39.9509C23.8255 41.0928 25.0696 42.2345 26.5844 43.625Z" fill="#0D0D0E"/>
<path id="path26" d="M14.0845 4.47101C16.0816 5.06255 18.0858 5.6562 20.09 6.24982C20.1754 6.105 20.2609 5.96018 20.3463 5.81536C18.5113 4.69442 18.0525 3.06417 18.4343 1.0134H40.8625V8.63281C40.5297 7.66595 40.2762 6.86039 39.9768 6.07227C39.1287 3.83967 38.0249 2.99355 35.6802 3.36491C32.8012 3.82087 29.9871 4.67453 27.1163 5.19925C24.2962 5.7147 21.4506 6.18208 18.596 6.38285C16.8757 6.50387 15.2502 5.79536 14.0845 4.47101Z" fill="#0D0D0E"/>
<path id="path30" d="M40.8911 43.6695C39.1311 43.6695 37.5278 43.6935 35.9264 43.6478C35.6308 43.6393 35.1733 43.416 35.0795 43.1779C34.4792 41.653 34.2087 40.1275 35.0394 38.5419C35.5621 37.5444 35.8502 36.4264 36.2902 35.3822C36.8155 34.1358 37.389 32.9098 37.9451 31.6765C38.1213 31.2857 38.3083 30.8998 38.4904 30.5116C38.0293 30.3904 37.5733 30.2097 37.1052 30.1698C36.8174 30.1452 36.5113 30.3358 36.1538 30.4487C37.7951 28.1215 39.3927 25.8564 40.8911 23.7319V43.6695Z" fill="#0D0D0E"/>
<path id="path34" d="M21.3335 30.5285C22.4123 30.2223 23.2405 29.9872 24.0314 29.7628C23.9378 30.285 23.8396 30.8324 23.723 31.4831C23.4146 31.3728 23.0247 31.2334 22.6349 31.0939C22.5921 31.142 22.5493 31.1901 22.5065 31.2381C23.4011 31.8156 24.2936 32.3963 25.1917 32.9682C25.4213 33.1143 25.709 33.1893 25.9017 33.37C27.8051 35.1551 28.2431 35.2989 30.545 34.133C32.1239 33.3332 33.5874 32.3049 35.213 31.3112C33.9347 33.5595 32.7575 35.7132 29.8018 35.9409C25.6463 36.261 23.652 33.3195 21.3335 30.5285Z" fill="#0D0D0E"/>
<path id="path38" d="M17.5913 16.3231C18.0151 16.5703 18.493 16.7564 18.8534 17.0754C20.3344 18.3866 21.8523 18.414 23.6537 17.6556C26.1055 16.6234 28.4629 16.8753 30.6654 19.1337C30.0654 19.0394 29.7479 19.0016 29.4354 18.9386C27.1575 18.4791 24.8835 18.4301 22.6527 19.1483C21.0662 19.6591 19.8114 19.3887 18.8363 17.9514C18.4602 17.3971 17.9124 16.9597 17.4429 16.4689L17.5913 16.3231Z" fill="#0D0D0E"/>
<path id="path42" d="M23.5308 20.1991H30.3245C29.7579 21.5394 28.8265 22.0231 27.7326 22.1569C26.1272 22.3534 24.8396 21.7112 23.5308 20.1991Z" fill="#0D0D0E"/>
<path id="path46" d="M36.4014 33.7537C35.7068 35.4678 34.8888 37.1452 34.3642 38.91C34.0542 39.9528 34.1853 41.1336 34.1679 42.2531C34.1626 42.5932 34.3239 42.9359 34.4487 43.4375C32.8175 41.7934 32.567 39.9406 33.5792 38.2417C34.0443 37.4613 34.4348 36.6356 34.8439 35.8227C35.2271 35.0616 35.5903 34.2904 35.9623 33.5236C36.1087 33.6003 36.255 33.677 36.4014 33.7537Z" fill="#0D0D0E"/>
<path id="path50" d="M29.6041 43.6163C28.2174 44.0119 27.2927 43.7484 26.4874 42.7731C25.4812 41.5546 24.3585 40.4325 23.2861 39.2687C23.3726 39.1664 23.459 39.064 23.5454 38.9616C25.5059 40.4678 27.4663 41.9739 29.6041 43.6163Z" fill="#0D0D0E"/>
<path id="path54" d="M15.6601 1.0369C15.2517 1.53851 14.7214 2.18993 14.0938 2.96094V1.0369H15.6601Z" fill="#0D0D0E"/>
<path id="path58" d="M23.9266 37.9258C21.4581 37.1457 21.4581 37.1457 21.5165 35.9574C22.4052 36.6833 23.1659 37.3045 23.9266 37.9258Z" fill="#0D0D0E"/>
<path id="path62" d="M18.201 18.6461C18.4874 20.0375 18.7739 21.4289 19.0604 22.8203C17.6474 21.977 17.2341 20.033 18.201 18.6461Z" fill="white"/>
<path id="path66" d="M9.4125 56.0436C9.53137 56.0652 9.70428 56.0706 9.88802 56.0706C10.8931 56.0706 11.4388 55.508 11.4388 54.5236C11.4442 53.6635 10.9579 53.1172 9.96366 53.1172C9.72049 53.1172 9.53677 53.1389 9.4125 53.1659V56.0436ZM8.94238 52.8197C9.22879 52.7765 9.56919 52.744 9.94205 52.744C10.6175 52.744 11.0984 52.9008 11.4172 53.1984C11.7414 53.4959 11.9306 53.9178 11.9306 54.5074C11.9306 55.1023 11.7468 55.5892 11.4064 55.9246C11.066 56.2653 10.504 56.4492 9.79616 56.4492C9.46113 56.4492 9.18016 56.433 8.94238 56.4059V52.8197Z" fill="#0D0D0E"/>
<path id="path70" d="M14.2054 54.8514C14.2108 54.5485 14.0812 54.0779 13.5462 54.0779C13.0653 54.0779 12.8546 54.5215 12.8167 54.8514H14.2054ZM12.8113 55.1922C12.8221 55.8359 13.2328 56.1009 13.7083 56.1009C14.0487 56.1009 14.2541 56.0414 14.4324 55.9657L14.5134 56.3065C14.3459 56.3822 14.0595 56.4688 13.6435 56.4688C12.8383 56.4688 12.3574 55.9387 12.3574 55.1489C12.3574 54.3592 12.8221 53.7371 13.584 53.7371C14.4378 53.7371 14.6647 54.489 14.6647 54.9704C14.6647 55.0678 14.6539 55.1435 14.6485 55.1922H12.8113Z" fill="#0D0D0E"/>
<path id="path74" d="M15.2535 54.5047C15.2535 54.2342 15.2481 54.0124 15.2319 53.7961H15.6534L15.6804 54.2288H15.6912C15.8209 53.98 16.1235 53.7366 16.5558 53.7366C16.9178 53.7366 17.4798 53.9529 17.4798 54.8508V56.4141H17.0043V54.9049C17.0043 54.483 16.8476 54.1314 16.3991 54.1314C16.0857 54.1314 15.8425 54.3532 15.7615 54.6183C15.7399 54.6778 15.7291 54.7589 15.7291 54.84V56.4141H15.2535V54.5047Z" fill="#0D0D0E"/>
<path id="path76" d="M18.2523 53.7961H18.7278V56.4141H18.2523V53.7961ZM18.7819 53.0604C18.7873 53.2227 18.6684 53.3525 18.4792 53.3525C18.3117 53.3525 18.1929 53.2227 18.1929 53.0604C18.1929 52.8928 18.3171 52.7629 18.4901 52.7629C18.6684 52.7629 18.7819 52.8928 18.7819 53.0604Z" fill="#0D0D0E"/>
<path id="path80" d="M19.4519 55.9278C19.5924 56.0198 19.8409 56.1171 20.0787 56.1171C20.4245 56.1171 20.5866 55.9441 20.5866 55.7277C20.5866 55.5005 20.4515 55.3761 20.1003 55.2463C19.6302 55.0786 19.4087 54.819 19.4087 54.5053C19.4087 54.0833 19.7491 53.7371 20.311 53.7371C20.5758 53.7371 20.8082 53.8129 20.9541 53.8994L20.8352 54.2456C20.7325 54.1807 20.5434 54.0942 20.3002 54.0942C20.0193 54.0942 19.8625 54.2564 19.8625 54.4512C19.8625 54.6675 20.0193 54.7649 20.3597 54.8947C20.8136 55.0678 21.0459 55.295 21.0459 55.6844C21.0459 56.1442 20.6893 56.4688 20.0679 56.4688C19.7815 56.4688 19.5167 56.3984 19.333 56.2902L19.4519 55.9278Z" fill="#0D0D0E"/>
<path id="path84" d="M22.7532 55.8413C22.9639 55.9711 23.2719 56.0793 23.5961 56.0793C24.077 56.0793 24.358 55.8251 24.358 55.4573C24.358 55.1165 24.1635 54.9218 23.6717 54.7324C23.0773 54.5215 22.7099 54.2132 22.7099 53.6993C22.7099 53.1314 23.18 52.7094 23.8879 52.7094C24.2607 52.7094 24.5309 52.796 24.693 52.8879L24.5633 53.272C24.4444 53.2071 24.2013 53.0989 23.8717 53.0989C23.3746 53.0989 23.1854 53.3964 23.1854 53.6452C23.1854 53.986 23.407 54.1537 23.9095 54.3484C24.5255 54.5864 24.8389 54.8839 24.8389 55.4194C24.8389 55.9819 24.4228 56.4688 23.5637 56.4688C23.2125 56.4688 22.8288 56.366 22.6343 56.2362L22.7532 55.8413Z" fill="#0D0D0E"/>
<path id="path88" d="M25.4653 52.5736H25.9409V54.2072H25.9517C26.0273 54.072 26.1462 53.9529 26.2921 53.8718C26.4326 53.7907 26.6001 53.7366 26.7784 53.7366C27.1296 53.7366 27.6916 53.9529 27.6916 54.8562V56.4141H27.2161V54.9103C27.2161 54.4884 27.0594 54.1314 26.6109 54.1314C26.3029 54.1314 26.0597 54.3478 25.9733 54.6074C25.9463 54.6723 25.9409 54.7427 25.9409 54.8346V56.4141H25.4653V52.5736Z" fill="#0D0D0E"/>
<path id="path92" d="M30.1234 54.8514C30.1288 54.5485 29.9991 54.0779 29.4642 54.0779C28.9833 54.0779 28.7725 54.5215 28.7347 54.8514H30.1234ZM28.7293 55.1922C28.7401 55.8359 29.1508 56.1009 29.6263 56.1009C29.9667 56.1009 30.172 56.0414 30.3503 55.9657L30.4314 56.3065C30.2639 56.3822 29.9775 56.4688 29.5614 56.4688C28.7563 56.4688 28.2754 55.9387 28.2754 55.1489C28.2754 54.3592 28.7401 53.7371 29.502 53.7371C30.3557 53.7371 30.5827 54.489 30.5827 54.9704C30.5827 55.0678 30.5719 55.1435 30.5665 55.1922H28.7293Z" fill="#0D0D0E"/>
<path id="path96" d="M31.3551 53.7961L31.8684 55.2673C31.9549 55.5053 32.0251 55.7217 32.0792 55.9381H32.0954C32.1548 55.7217 32.2305 55.5053 32.3169 55.2673L32.8249 53.7961H33.322L32.2953 56.4141H31.8414L30.8472 53.7961H31.3551Z" fill="#0D0D0E"/>
<path id="path100" d="M35.5807 56.3173C35.4564 56.3822 35.1808 56.4688 34.8296 56.4688C34.0407 56.4688 33.5273 55.9332 33.5273 55.1327C33.5273 54.3267 34.0785 53.7426 34.9323 53.7426C35.2132 53.7426 35.4618 53.8129 35.5915 53.8778L35.4834 54.2456C35.37 54.1807 35.1916 54.1212 34.9323 54.1212C34.3325 54.1212 34.0083 54.5647 34.0083 55.1111C34.0083 55.7169 34.3973 56.0901 34.916 56.0901C35.1862 56.0901 35.3646 56.0198 35.4996 55.9603L35.5807 56.3173Z" fill="#0D0D0E"/>
<path id="path104" d="M36.1372 52.5736H36.6127V54.2072H36.6235C36.6992 54.072 36.8181 53.9529 36.9639 53.8718C37.1045 53.7907 37.272 53.7366 37.4503 53.7366C37.8015 53.7366 38.3635 53.9529 38.3635 54.8562V56.4141H37.888V54.9103C37.888 54.4884 37.7312 54.1314 37.2828 54.1314C36.9747 54.1314 36.7316 54.3478 36.6451 54.6074C36.6181 54.6723 36.6127 54.7427 36.6127 54.8346V56.4141H36.1372V52.5736Z" fill="#0D0D0E"/>
<path id="path108" d="M40.7948 54.8514C40.8002 54.5485 40.6705 54.0779 40.1356 54.0779C39.6546 54.0779 39.4439 54.5215 39.4061 54.8514H40.7948ZM39.4007 55.1922C39.4115 55.8359 39.8221 56.1009 40.2977 56.1009C40.6381 56.1009 40.8434 56.0414 41.0217 55.9657L41.1028 56.3065C40.9353 56.3822 40.6489 56.4688 40.2328 56.4688C39.4277 56.4688 38.9468 55.9387 38.9468 55.1489C38.9468 54.3592 39.4115 53.7371 40.1734 53.7371C41.0271 53.7371 41.2541 54.489 41.2541 54.9704C41.2541 55.0678 41.2433 55.1435 41.2379 55.1922H39.4007Z" fill="#0D0D0E"/>
<path id="path112" d="M41.8429 54.5047C41.8429 54.2342 41.8375 54.0124 41.8213 53.7961H42.2427L42.2698 54.2288H42.2806C42.4103 53.98 42.7128 53.7366 43.1451 53.7366C43.5072 53.7366 44.0691 53.9529 44.0691 54.8508V56.4141H43.5936V54.9049C43.5936 54.483 43.4369 54.1314 42.9884 54.1314C42.675 54.1314 42.4319 54.3532 42.3508 54.6183C42.3292 54.6778 42.3184 54.7589 42.3184 54.84V56.4141H41.8429V54.5047Z" fill="#0D0D0E"/>
<path id="path116" d="M45.3119 54.9969H45.3227C45.3876 54.9049 45.4794 54.7913 45.5551 54.6994L46.3224 53.7961H46.8952L45.8847 54.8725L47.0357 56.4141H46.4575L45.5551 55.1592L45.3119 55.4296V56.4141H44.8418V52.5736H45.3119V54.9969Z" fill="#0D0D0E"/>
<path id="path120" d="M47.6674 55.1135C47.6674 55.6868 47.9971 56.1195 48.4618 56.1195C48.9156 56.1195 49.2561 55.6922 49.2561 55.1026C49.2561 54.6591 49.0345 54.0965 48.4726 54.0965C47.9106 54.0965 47.6674 54.6158 47.6674 55.1135ZM49.7424 55.0864C49.7424 56.0546 49.0723 56.4766 48.4401 56.4766C47.7323 56.4766 47.1865 55.9573 47.1865 55.1297C47.1865 54.2534 47.7593 53.7396 48.4833 53.7396C49.2345 53.7396 49.7424 54.2858 49.7424 55.0864Z" fill="#0D0D0E"/>
<path id="path124" d="M2.66788 49.0944L2.06182 47.2808L1.49106 49.0944H2.66788ZM4.39943 50.9883H3.26429L2.89554 49.8038H1.27302L0.90105 50.9883H0L1.6546 46.0579H2.69354L4.39943 50.9883Z" fill="#0D0D0E"/>
<path id="path128" d="M7.67675 50.7725C7.56558 50.8452 7.3962 50.9137 7.16851 50.9779C6.94085 51.0421 6.75215 51.0742 6.60255 51.0742C5.27929 51.0742 4.61768 50.4162 4.61768 49.1001C4.61768 48.4817 4.78972 47.9997 5.13393 47.654C5.47808 47.3085 5.95908 47.1357 6.57689 47.1357C7.03007 47.1357 7.38065 47.2223 7.62865 47.3956L7.53244 48.0248C7.3315 47.8664 7.06535 47.7873 6.73403 47.7873C6.07771 47.7873 5.7496 48.2313 5.7496 49.1194C5.7496 49.9625 6.03819 50.3841 6.61538 50.3841C6.75215 50.3841 6.91943 50.3595 7.11719 50.3102C7.3149 50.2611 7.46081 50.2075 7.55492 50.1498L7.67675 50.7725Z" fill="#0D0D0E"/>
<path id="path132" d="M10.4182 50.8398C10.1894 50.9596 9.88267 51.0195 9.4979 51.0195C9.12804 51.0195 8.84584 50.8955 8.65135 50.6472C8.47177 50.4204 8.38199 50.1175 8.38199 49.7388V47.8963H7.88818V47.2351H8.38199V46.76L9.42735 46.1309V47.2351H10.2065V47.8963H9.42735V49.803C9.42735 49.9956 9.4583 50.1336 9.52034 50.2171C9.593 50.3177 9.72126 50.3679 9.90512 50.3679C10.0697 50.3679 10.1905 50.3498 10.2675 50.3134L10.4182 50.8398Z" fill="#0D0D0E"/>
<path id="path136" d="M13.3137 49.1001C13.3137 48.2013 13.0443 47.7519 12.5056 47.7519C11.9711 47.7519 11.7039 48.2013 11.7039 49.1001C11.7039 49.9989 11.9711 50.4483 12.5056 50.4483C13.0443 50.4483 13.3137 49.9989 13.3137 49.1001ZM14.3911 49.1001C14.3911 49.7271 14.2361 50.2097 13.9261 50.5478C13.6055 50.8988 13.1341 51.0742 12.512 51.0742C11.9006 51.0742 11.4303 50.8966 11.1011 50.5413C10.7804 50.1968 10.6201 49.7164 10.6201 49.1001C10.6201 48.486 10.7804 48.0077 11.1011 47.6653C11.4282 47.3122 11.8964 47.1357 12.5056 47.1357C13.1169 47.1357 13.5862 47.3112 13.9133 47.6621C14.2318 48.0045 14.3911 48.4838 14.3911 49.1001Z" fill="#0D0D0E"/>
<path id="path140" d="M17.242 48.1411C16.9512 48.1411 16.7064 48.2246 16.5077 48.3915C16.2532 48.6055 16.1261 48.9126 16.1261 49.3127V50.9883H15.0903V47.2359H16.1004V48.0159C16.1517 47.7891 16.2618 47.5922 16.4307 47.4253C16.6145 47.2455 16.8176 47.1557 17.0399 47.1557C17.1297 47.1557 17.1971 47.1621 17.242 47.1749V48.1411Z" fill="#0D0D0E"/>
<path id="path144" d="M20.2562 49.8448C20.2562 50.2857 20.0873 50.6099 19.7495 50.8174C19.4738 50.9886 19.1018 51.0742 18.6336 51.0742C18.1932 51.0742 17.832 50.9972 17.5498 50.8431L17.6717 50.2236C17.9773 50.3863 18.2713 50.4675 18.5535 50.4675C18.7394 50.4675 18.904 50.4376 19.0473 50.3777C19.2354 50.2985 19.3295 50.1755 19.3295 50.0085C19.3295 49.8352 19.2311 49.6972 19.0345 49.5945C18.9853 49.5688 18.8121 49.5099 18.515 49.4179C18.205 49.3216 17.9816 49.1836 17.8448 49.0038C17.7016 48.8177 17.63 48.5652 17.63 48.2463C17.63 47.8783 17.7753 47.599 18.0661 47.4085C18.3119 47.248 18.6283 47.1677 19.0152 47.1677C19.4149 47.1677 19.757 47.2405 20.0413 47.386L19.9547 47.9477C19.7324 47.8258 19.4363 47.7648 19.0665 47.7648C18.9083 47.7648 18.7726 47.7894 18.6593 47.8386C18.5011 47.9072 18.422 48.0077 18.422 48.1404C18.422 48.2902 18.5161 48.4047 18.7042 48.4838C18.717 48.4902 18.8752 48.5384 19.1788 48.6283C19.5422 48.7374 19.803 48.8712 19.9612 49.0295C20.1578 49.2264 20.2562 49.4981 20.2562 49.8448Z" fill="#0D0D0E"/>
<path id="path148" d="M25.6496 49.5236C25.6496 50.5443 25.0254 51.0547 23.7769 51.0547C23.2169 51.0547 22.7359 50.9712 22.334 50.8043L22.4783 50.0372C22.8331 50.2084 23.2008 50.2939 23.5813 50.2939C23.8742 50.2939 24.0848 50.2629 24.213 50.2009C24.4054 50.1089 24.5016 49.9334 24.5016 49.6744C24.5016 49.469 24.3808 49.2893 24.1393 49.1352C24.0281 49.0645 23.8197 48.9682 23.514 48.8463C23.1292 48.6922 22.8481 48.5093 22.6707 48.2974C22.4676 48.0534 22.366 47.7368 22.366 47.3472C22.366 46.8958 22.5649 46.548 22.9625 46.304C23.2981 46.0986 23.7075 45.9959 24.1906 45.9959C24.7015 45.9959 25.1216 46.0622 25.4508 46.1949L25.3321 46.9171C24.9195 46.8101 24.5593 46.7566 24.2515 46.7566C23.6957 46.7566 23.4178 46.9193 23.4178 47.2445C23.4178 47.4628 23.5353 47.6405 23.7705 47.7774C23.7983 47.7945 24.0153 47.8769 24.4215 48.0245C25.2402 48.3242 25.6496 48.8238 25.6496 49.5236Z" fill="#0D0D0E"/>
<path id="path152" d="M28.4489 50.8398C28.2202 50.9596 27.9134 51.0195 27.5287 51.0195C27.1588 51.0195 26.8766 50.8955 26.6821 50.6472C26.5025 50.4204 26.4128 50.1175 26.4128 49.7388V47.8963H25.9189V47.2351H26.4128V46.76L27.4581 46.1309V47.2351H28.2373V47.8963H27.4581V49.803C27.4581 49.9956 27.4891 50.1336 27.5511 50.2171C27.6238 50.3177 27.752 50.3679 27.9359 50.3679C28.1005 50.3679 28.2213 50.3498 28.2982 50.3134L28.4489 50.8398Z" fill="#0D0D0E"/>
<path id="path156" d="M32.1656 50.9901H31.2132L31.1491 50.4059C30.8177 50.8488 30.3859 51.0703 29.8536 51.0703C29.2272 51.0703 28.9141 50.667 28.9141 49.8602V47.2377H29.953V49.7607C29.953 50.0988 30.0951 50.2679 30.3795 50.2679C30.7087 50.2679 30.9588 50.1491 31.1298 49.9115V47.2377H32.1656V50.9901Z" fill="#0D0D0E"/>
<path id="path160" d="M35.3112 49.081C35.3112 48.7301 35.2823 48.4723 35.2246 48.3074C35.1284 48.0293 34.9403 47.8901 34.6602 47.8901C34.3631 47.8901 34.1664 48.0271 34.0702 48.301C34.0168 48.4551 33.9901 48.7151 33.9901 49.081C33.9901 49.4491 34.0168 49.7102 34.0702 49.8642C34.1643 50.136 34.361 50.2719 34.6602 50.2719C34.9403 50.2719 35.1284 50.1339 35.2246 49.8578C35.2823 49.6931 35.3112 49.4341 35.3112 49.081ZM36.3373 50.9877H35.384L35.3199 50.487C35.2129 50.6539 35.0641 50.7876 34.8737 50.8882C34.6832 50.9887 34.4875 51.0391 34.2864 51.0391C33.3663 51.0391 32.9062 50.3821 32.9062 49.0682C32.9062 48.5632 33.0047 48.1384 33.2017 47.7938C33.4457 47.368 33.8053 47.1551 34.2805 47.1551C34.745 47.1551 35.0843 47.3327 35.2984 47.6879V46.0573H36.3373V50.9877Z" fill="#0D0D0E"/>
<path id="path162" d="M38.3507 50.9883H37.3086V47.2359H38.3507V50.9883ZM38.3507 46.8603H37.3086V46.0578H38.3507V46.8603Z" fill="#0D0D0E"/>
<path id="path166" d="M41.7497 49.1001C41.7497 48.2013 41.4803 47.7519 40.9416 47.7519C40.4072 47.7519 40.14 48.2013 40.14 49.1001C40.14 49.9989 40.4072 50.4483 40.9416 50.4483C41.4803 50.4483 41.7497 49.9989 41.7497 49.1001ZM42.8271 49.1001C42.8271 49.7271 42.6721 50.2097 42.3622 50.5478C42.0415 50.8988 41.5701 51.0742 40.948 51.0742C40.3367 51.0742 39.8663 50.8966 39.5372 50.5413C39.2165 50.1968 39.0562 49.7164 39.0562 49.1001C39.0562 48.486 39.2165 48.0077 39.5372 47.6653C39.8642 47.3122 40.3324 47.1357 40.9416 47.1357C41.553 47.1357 42.0223 47.3112 42.3493 47.6621C42.6678 48.0045 42.8271 48.4838 42.8271 49.1001Z" fill="#0D0D0E"/>
<path id="path170" d="M49.1058 50.9883H47.9065L46.6784 48.8633L46.2648 49.3769V50.9883H45.1553V46.0579H46.2648V48.1347L47.8135 46.0579H48.9038L47.3678 47.9645L49.1058 50.9883Z" fill="#0D0D0E"/>
<path id="path172" d="M50.6002 50.9883H49.5581V47.2359H50.6002V50.9883ZM50.6002 46.8603H49.5581V46.0578H50.6002V46.8603Z" fill="#0D0D0E"/>
<path id="path176" d="M53.8709 48.7727C53.8324 48.0794 53.5919 47.7327 53.1494 47.7327C52.6877 47.7327 52.4408 48.0794 52.4087 48.7727H53.8709ZM54.8361 49.3119H52.3991C52.3991 50.0481 52.7283 50.4162 53.3867 50.4162C53.7308 50.4162 54.0975 50.3274 54.4866 50.1498L54.6469 50.7147C54.2215 50.9544 53.7415 51.0742 53.2071 51.0742C52.6043 51.0742 52.1425 50.8987 51.8219 50.5478C51.5119 50.2097 51.3569 49.7357 51.3569 49.1258C51.3569 48.5309 51.5044 48.0569 51.7994 47.7038C52.1158 47.3251 52.5658 47.1356 53.1494 47.1356C53.7138 47.1356 54.1403 47.3015 54.4288 47.6332C54.7003 47.9477 54.8361 48.3907 54.8361 48.9621V49.3119Z" fill="#0D0D0E"/>
<path id="path180" d="M58.9822 47.2359L57.366 50.9883H56.6061L55.0894 47.2359H56.2181L57.1384 49.7011L58.1549 47.2359H58.9822Z" fill="#0D0D0E"/>
<path id="path184 (Stroke)" fill-rule="evenodd" clip-rule="evenodd" d="M49.9766 57.8905H8.75342V59H49.9766V57.8905Z" fill="#0D0D0E"/>
</g>
</g>
</g>
</g>
</svg>
